<svg viewBox="0 0 24 24" xmlns="http://www.w3.org/2000/svg"><path fill="#FFF" d="M3 11.8v0c-.42-.01-.76-.35-.75-.77 0-.03 0-.05 0-.08l0-.001c.34-3.3 2.37-6.19 5.35-7.65V3.29c.37-.19.82-.04 1 .34 .05.1.07.21.07.33v3.05 0c0 .41-.34.75-.75.75 -.42 0-.75-.34-.75-.75V5.26l0-.001c-1.94 1.34-3.2 3.47-3.45 5.82h0c-.05.38-.37.66-.75.66Zm18.08.4v0c-.42-.05-.79.25-.83.66v0c-.25 2.34-1.51 4.47-3.45 5.82v-1.74 0c0-.42-.34-.75-.75-.75 -.42 0-.75.33-.75.75v3.05 0c-.01.41.33.74.74.75 .11 0 .22-.03.33-.08v0c2.98-1.46 5-4.35 5.355-7.641v0c.04-.42-.26-.79-.67-.83 -.01-.01-.01-.01-.01-.01ZM11.25 7v0c0-2.63 2.12-4.75 4.75-4.75 2.62 0 4.75 2.12 4.75 4.75 0 2.62-2.13 4.75-4.75 4.75v0c-2.63-.01-4.75-2.13-4.75-4.75Zm1.5 0v0c0 1.79 1.45 3.25 3.25 3.25 1.79 0 3.25-1.46 3.25-3.25 0-1.8-1.46-3.25-3.25-3.25l-.001 0c-1.8 0-3.25 1.45-3.25 3.25Zm1 8.5v4 -.001c.1 1.13-.73 2.14-1.87 2.25 -.13.01-.26.01-.39 0h-6v0c-1.14.1-2.15-.73-2.25-1.87 -.02-.13-.02-.26 0-.39v-4 0c-.11-1.14.72-2.15 1.86-2.25 .12-.02.25-.02.38 0h6v0c1.13-.11 2.14.72 2.25 1.86 .01.12.01.25 0 .38Zm-9 0v.25h7.5v-.25c0-.59-.17-.75-.75-.75h-6c-.59 0-.75.16-.75.75Zm7.5 4v-2.25h-7.5v2.25c0 .58.16.75.75.75h6c.58 0 .75-.17.75-.75ZM7.5 18.25H6v0c-.42 0-.75.33-.75.75 0 .41.33.75.75.75h1.5v0c.41 0 .75-.34.75-.75 0-.42-.34-.75-.75-.75Z"/></svg>