<svg viewBox="0 0 24 24" xmlns="http://www.w3.org/2000/svg"><path fill="#FFF" d="M19.75 15v3 0c.21 1.85-1.12 3.53-2.98 3.75 -.26.02-.53.02-.78 0h-10v0c-1.86.21-3.54-1.12-3.75-2.98 -.03-.26-.03-.53-.001-.78v-10 0c-.22-1.86 1.11-3.54 2.97-3.75 .25-.03.52-.03.77 0h3v0c.41 0 .75.33.75.75 0 .41-.34.75-.75.75h-3c-1.577 0-2.25.673-2.25 2.25v10c0 1.57.673 2.25 2.25 2.25h10c1.57 0 2.25-.68 2.25-2.25v-3 0c0-.42.33-.75.75-.75 .41 0 .75.33.75.75Zm2-8.95v-.001c-.01.58-.24 1.14-.65 1.55l-8.963 8.92v0c-.15.14-.34.21-.53.21H7.99v0c-.42 0-.75-.34-.75-.75v-3.62h0c-.01-.2.07-.39.21-.53l8.92-8.96v0c.4-.42.96-.65 1.55-.65v0V2.21c.58-.01 1.14.22 1.55.64l1.61 1.6v0 0c.41.41.64.97.64 1.55Zm-4.14 2.9l-2.58-2.58 -6.29 6.31v2.55h2.55Zm2.63-2.91v0c0-.19-.08-.37-.2-.5L18.43 3.93V3.93c-.14-.13-.31-.21-.5-.2v0 0c-.19-.01-.37.07-.5.2l-1.36 1.36 2.58 2.58 1.36-1.359v0c.13-.14.2-.31.2-.5Z"/></svg>