<svg viewBox="0 0 24 24" xmlns="http://www.w3.org/2000/svg"><path fill="#FFF" d="M11.009 10.75v0c2.34 0 4.25-1.91 4.25-4.25 0-2.35-1.91-4.25-4.25-4.25 -2.35 0-4.25 1.9-4.25 4.25v0c0 2.34 1.9 4.24 4.25 4.25Zm0-7v0c1.51 0 2.75 1.23 2.75 2.75 0 1.51-1.24 2.75-2.75 2.75 -1.52 0-2.75-1.24-2.75-2.75v0c0-1.52 1.23-2.75 2.75-2.75ZM4.75 18.02c0 1.56.673 2.23 2.25 2.23h7v0c.41 0 .75.33.75.75 0 .41-.34.75-.75.75H7c-2.42 0-3.75-1.33-3.75-3.73 0-2.67 1.5-5.77 5.75-5.77h4v0c1.34-.06 2.65.35 3.72 1.16v0c.32.25.39.72.14 1.05 -.26.32-.73.39-1.06.14 -.01-.01-.02-.02-.03-.03v0c-.81-.6-1.8-.89-2.8-.84h-4v0c-2.19-.17-4.09 1.46-4.26 3.64 -.02.2-.02.41 0 .62Zm17 .98v0c0 .41-.34.75-.75.75h-1.25V21v0c0 .41-.34.75-.75.75 -.42 0-.75-.34-.75-.75v-1.25H17v0c-.42 0-.75-.34-.75-.75 0-.42.33-.75.75-.75h1.25V17v0c0-.42.33-.75.75-.75 .41 0 .75.33.75.75v1.25H21v0c.41 0 .75.33.75.75Z"/></svg>