<svg viewBox="0 0 24 24" xmlns="http://www.w3.org/2000/svg"><path fill="#FFF" d="M20.75 17v0c0 .41-.34.75-.75.75h-2.25V20v0c0 .41-.34.75-.75.75 -.42 0-.75-.34-.75-.75v-2.25H14v0c-.42 0-.75-.34-.75-.75 0-.42.33-.75.75-.75h2.25V14v0c0-.42.33-.75.75-.75 .41 0 .75.33.75.75v2.25H20v0c.41 0 .75.33.75.75Zm0-11.5v3 0c.1 1.13-.73 2.14-1.87 2.25 -.13.01-.26.01-.39 0h-3v0c-1.14.1-2.15-.73-2.25-1.87 -.02-.13-.02-.26 0-.39v-3 0c-.11-1.14.72-2.15 1.86-2.25 .12-.02.25-.02.38 0h3 -.001c1.13-.11 2.14.72 2.25 1.86 .01.12.01.25 0 .38Zm-1.5 0c0-.59-.17-.75-.75-.75h-3c-.59 0-.75.16-.75.75v3c0 .58.16.75.75.75h3c.58 0 .75-.17.75-.75Zm-8.5 0v3 0c.1 1.13-.73 2.14-1.87 2.25 -.13.01-.26.01-.39 0h-3v0c-1.14.1-2.15-.73-2.25-1.87 -.02-.13-.02-.26 0-.39v-3 0c-.11-1.14.72-2.15 1.86-2.25 .12-.02.25-.02.38 0h3v0c1.13-.11 2.14.72 2.25 1.86 .01.12.01.25 0 .38Zm-1.5 0c0-.59-.17-.75-.75-.75h-3c-.59 0-.75.16-.75.75v3c0 .58.16.75.75.75h3c.58 0 .75-.17.75-.75Zm1.5 10v3 -.001c.1 1.13-.73 2.14-1.87 2.25 -.13.01-.26.01-.39 0h-3v0c-1.14.1-2.15-.73-2.25-1.87 -.02-.13-.02-.26 0-.39v-3 0c-.11-1.14.72-2.15 1.86-2.25 .12-.02.25-.02.38 0h3v0c1.13-.11 2.14.72 2.25 1.86 .01.12.01.25 0 .38Zm-1.5 0c0-.59-.17-.75-.75-.75h-3c-.59 0-.75.16-.75.75v3c0 .58.16.75.75.75h3c.58 0 .75-.17.75-.75Z"/></svg>