<svg viewBox="0 0 24 24" xmlns="http://www.w3.org/2000/svg"><path fill="#FFF" d="M12.751 21v0c0 .41-.34.75-.75.75v0c-1.41-.01-2.8-.31-4.08-.9v0c-.28-.12-.6-.13-.875-.03l-2.489.83h0c-.18.05-.37.09-.56.09v0c-.98-.01-1.76-.8-1.76-1.77 0-.19.03-.37.08-.54l.84-2.5H3.15c.09-.28.08-.59-.03-.86H3.12C.86 11.18 2.99 5.39 7.885 3.13 12.765.87 18.555 3 20.81 7.89c.59 1.27.89 2.67.89 4.08v0c0 .41-.34.75-.75.75 -.42 0-.75-.34-.75-.75v0c.01-4.56-3.68-8.26-8.24-8.27 -4.56-.02-8.26 3.67-8.27 8.23 -.01 1.2.25 2.38.76 3.47v-.001c.27.61.31 1.32.09 1.96l-.843 2.51v0c-.04.09-.01.19.06.25h0c.06.07.16.09.25.06l2.5-.84h0c.64-.23 1.35-.2 1.98.09v0c1.07.49 2.24.75 3.43.75h-.001c.41-.01.75.33.75.74 0 0 0 0-.01 0ZM21 17.75h-1.75V16v0c0-.42-.34-.75-.75-.75 -.42 0-.75.33-.75.75v1.75H16v0c-.42 0-.75.33-.75.75 0 .41.33.75.75.75h1.75V21v0c0 .41.33.75.75.75 .41 0 .75-.34.75-.75v-1.75H21v0c.41 0 .75-.34.75-.75 0-.42-.34-.75-.75-.75ZM12.02 11h-.01 -.001c-.56 0-1.01.45-1 1 0 .55.45 1 1 .99 .55-.01 1-.46.99-1.01 -.01-.56-.45-1-1-1Zm4 2v0c.55 0 1-.45 1-1 0-.56-.45-1-1-1h-.01v0c-.56 0-1 .45-1 1s.45.99 1 .99Zm-8.01-2v0c-.56 0-1.01.45-1 1 0 .55.45 1 1 .99 .55-.01 1-.46.99-1.01 -.01-.56-.45-1-1-1Z"/></svg>