<svg viewBox="0 0 24 24" xmlns="http://www.w3.org/2000/svg"><path fill="#FFF" d="M12 1.25v0C6.06 1.25 1.25 6.06 1.25 12c0 5.93 4.81 10.75 10.75 10.75 5.93 0 10.75-4.82 10.75-10.75v-.001C22.74 6.059 17.93 1.24 12 1.24Zm7.04 16.732l-2.9-2.9v-.001c1.39-1.83 1.39-4.36 0-6.18L19.03 6v0c2.94 3.44 2.94 8.51 0 11.96ZM8.3 11.99v0c0-2.05 1.65-3.7 3.69-3.7s3.69 1.65 3.69 3.69 -1.66 3.69-3.7 3.69h0c-2.04-.01-3.7-1.66-3.7-3.7Zm9.67-7.042l-2.9 2.891 -.001-.001c-1.83-1.4-4.36-1.4-6.18 0l-2.9-2.9v0c3.44-2.95 8.51-2.95 11.96-.001ZM4.94 6.01L7.83 8.9v0c-1.4 1.82-1.4 4.35-.001 6.18l-2.9 2.89 -.001-.001c-2.95-3.45-2.95-8.52 0-11.97ZM6 19.03l2.89-2.9v0c1.82 1.39 4.35 1.39 6.18 0l2.89 2.89v0c-3.45 2.94-8.52 2.94-11.97 0Z"/></svg>