<svg viewBox="0 0 24 24" xmlns="http://www.w3.org/2000/svg"><path fill="#FFF" d="M13.75 12v0c0 .41-.34.75-.75.75H7v0c-.42 0-.75-.34-.75-.75 0-.42.33-.75.75-.75h6v0c.41 0 .75.33.75.75ZM7 8.75h3v0c.41 0 .75-.34.75-.75 0-.42-.34-.75-.75-.75H7v0c-.42 0-.75.33-.75.75 0 .41.33.75.75.75Zm6 6.5H7v0c-.42 0-.75.33-.75.75 0 .41.33.75.75.75h6v0c.41 0 .75-.34.75-.75 0-.42-.34-.75-.75-.75Zm8.75-3.75V19v0c-.01 1.51-1.24 2.74-2.75 2.75H6v0c-1.86.21-3.54-1.12-3.75-2.98 -.03-.26-.03-.53-.001-.78v-12l-.001-.001c-.22-1.86 1.11-3.54 2.97-3.75 .25-.03.52-.03.77-.001h8V2.23c1.85-.22 3.53 1.11 3.75 2.97 .02.25.02.52 0 .77v3.25h1.75 -.001c1.24 0 2.24 1 2.25 2.25Zm-5.2 8.75v0c-.2-.39-.31-.82-.3-1.25V6c0-1.577-.673-2.25-2.25-2.25H6c-1.577 0-2.25.67-2.25 2.25v12c0 1.57.67 2.25 2.25 2.25Zm3.7-8.75v0c-.01-.42-.34-.75-.75-.75h-1.75V19v0c0 .69.55 1.25 1.25 1.25 .69 0 1.25-.56 1.25-1.25Z"/></svg>
