<svg width="900" height="900" viewBox="0 0 900 900" fill="none" xmlns="http://www.w3.org/2000/svg">
<rect width="900" height="900" rx="450" fill="#FFB7AF"/>
<rect x="147" y="614.417" width="607" height="34.81" rx="17.405" fill="#C76C62" stroke="#282F34" stroke-width="6"/>
<rect x="268.835" y="591.573" width="207.772" height="22.8441" rx="11.422" fill="#E56973" stroke="#282F34" stroke-width="6"/>
<path d="M256.859 250H477.312C547.953 250 565.613 267.658 565.613 338.092V463.683C565.613 534.315 547.953 551.775 477.511 551.775H256.859C186.416 551.973 168.756 534.315 168.756 463.881V338.092C168.756 267.658 186.416 250 256.859 250Z" fill="#E56973" stroke="#282F34" stroke-width="6" stroke-linecap="round"/>
<path d="M344.861 551.777L344.861 591.463" stroke="#282F34" stroke-width="6" stroke-linecap="round"/>
<path d="M388.682 551.776L388.682 591.462" stroke="#282F34" stroke-width="6" stroke-linecap="round"/>
<path d="M174.544 507.13H559.826" stroke="#282F34" stroke-width="6" stroke-linecap="round"/>
<circle cx="366.817" cy="382.817" r="103.817" fill="#E56973" stroke="white" stroke-width="6"/>
<circle cx="366" cy="383.607" r="88" fill="white"/>
<path fill-rule="evenodd" clip-rule="evenodd" d="M350.642 305.211C325.646 353.255 325.646 415.299 350.642 463.343C357.959 477.413 375.024 477.413 382.341 463.343C407.338 415.299 407.338 353.255 382.341 305.211C375.016 291.142 357.959 291.142 350.642 305.211Z" stroke="#E56973" stroke-width="10" stroke-linecap="round" stroke-linejoin="round"/>
<path d="M288.763 346.763C336.328 361.455 396.571 361.455 444.126 346.763" stroke="#E56973" stroke-width="10" stroke-linecap="round" stroke-linejoin="round"/>
<path d="M444.141 427.309C396.576 412.618 336.333 412.618 288.778 427.309" stroke="#E56973" stroke-width="10" stroke-linecap="round" stroke-linejoin="round"/>
<rect x="595.322" y="462.632" width="92.1714" height="151.789" rx="10" fill="#FFC18F" stroke="#282F34" stroke-width="6"/>
<line x1="598.179" y1="580.097" x2="684.643" y2="580.097" stroke="#282F34" stroke-width="6" stroke-linecap="round"/>
<rect x="634.933" y="590.324" width="12.0465" height="12.0465" rx="6.02323" fill="#FFC18F" stroke="#282F34" stroke-width="6"/>
</svg>
