<svg width="900" height="900" viewBox="0 0 900 900" fill="none" xmlns="http://www.w3.org/2000/svg">
<rect width="900" height="900" rx="450" fill="#6164D9"/>
<path fill-rule="evenodd" clip-rule="evenodd" d="M179.313 672.279C168.242 672.279 159.277 663.285 159.313 652.213L159.534 584.271C159.545 580.978 160.368 577.739 161.931 574.842L261.804 389.675C267.93 378.318 283.048 375.648 292.693 384.221L389.957 470.667C395.61 475.69 403.612 477.096 410.638 474.3L503.795 437.231C508.192 435.481 513.067 435.347 517.554 436.853L578.266 457.231C585.593 459.691 593.681 457.708 599.041 452.14L676.248 371.918C679.06 368.996 682.695 366.998 686.67 366.189L776.012 348.007C788.406 345.484 800 354.957 800 367.605V652.279C800 663.324 791.046 672.279 780 672.279H179.313Z" fill="#FFC18F" stroke="#282F34" stroke-width="6"/>
<path fill-rule="evenodd" clip-rule="evenodd" d="M179.322 672.279C168.247 672.279 159.281 663.279 159.322 652.204L159.528 596.777C159.543 592.712 160.796 588.749 163.12 585.414L260.942 445.084C267.788 435.264 281.669 433.616 290.623 441.56L389.965 529.7C395.614 534.711 403.604 536.114 410.622 533.326L503.805 496.311C508.196 494.566 513.063 494.433 517.543 495.934L578.283 516.286C585.601 518.738 593.678 516.76 599.035 511.204L676.248 431.116C679.06 428.198 682.693 426.204 686.664 425.397L776.018 407.245C788.411 404.727 800 414.199 800 426.844V652.279C800 663.324 791.046 672.279 780 672.279H179.322Z" fill="#FFB200" stroke="#282F34" stroke-width="6"/>
<path fill-rule="evenodd" clip-rule="evenodd" d="M179.248 672.279C168.202 672.279 159.248 663.324 159.248 652.279V608.562C159.248 602.536 161.964 596.832 166.642 593.034L260.511 516.83C268.162 510.619 279.196 510.906 286.513 517.507L389.889 610.763C395.571 615.889 403.68 617.323 410.776 614.457L503.707 576.922C508.157 575.125 513.105 574.988 517.647 576.535L578.126 597.139C585.523 599.66 593.711 597.64 599.088 591.969L676.247 510.595C679.059 507.63 682.712 505.597 686.714 504.77L775.954 486.336C788.365 483.773 800 493.251 800 505.923V652.279C800 663.324 791.046 672.279 780 672.279H179.248Z" fill="#008D8F" stroke="#282F34" stroke-width="6"/>
<path d="M284.774 507.702C316.036 507.702 342.476 481.035 328.346 453.148C322.93 442.459 315.905 432.544 307.425 423.779C285.646 401.271 255.97 388.11 224.667 387.078C193.364 386.045 162.885 397.223 139.671 418.248C116.457 439.273 102.325 468.499 100.262 499.752C98.199 531.004 108.366 561.834 128.615 585.728C148.863 609.623 177.608 624.71 208.775 627.802C239.942 630.894 271.091 621.748 295.64 602.298C305.199 594.724 313.465 585.819 320.24 575.935C337.914 550.148 315.209 520.236 284.218 516.126L220.69 507.702H284.774Z" fill="url(#paint0_linear_2_84)" stroke="#282F34" stroke-width="6"/>
<path d="M329.713 557.092C330.217 557.32 330.81 557.097 331.033 556.592C341.072 533.935 343.896 508.729 339.108 484.398C334.32 460.068 322.156 437.811 304.281 420.648C303.883 420.265 303.249 420.283 302.87 420.685L221.652 506.683C221.181 507.182 221.341 507.997 221.966 508.28L329.713 557.092Z" fill="#FFC18F" stroke="#282F34" stroke-width="6"/>
<path d="M305.323 423.068C305.714 422.678 305.714 422.044 305.32 421.657C288.73 405.34 267.771 394.161 244.964 389.478C222.156 384.795 198.488 386.811 176.811 395.271C176.297 395.472 176.047 396.054 176.252 396.567L220.127 506.293C220.393 506.96 221.254 507.137 221.762 506.629L305.323 423.068Z" fill="white" stroke="#282F34" stroke-width="6"/>
<path d="M233.692 240.563L215.594 258.897L206.802 250.008" stroke="white" stroke-width="6" stroke-linecap="round" stroke-linejoin="round"/>
<path d="M272.806 232.618H325.364" stroke="white" stroke-width="6" stroke-linecap="round" stroke-linejoin="round"/>
<path d="M272.806 258.286H359.589" stroke="white" stroke-width="6" stroke-linecap="round" stroke-linejoin="round"/>
<path d="M359.589 319.401H272.806" stroke="white" stroke-width="6" stroke-linecap="round" stroke-linejoin="round"/>
<path d="M359.589 293.121H272.806" stroke="white" stroke-width="6" stroke-linecap="round" stroke-linejoin="round"/>
<path fill-rule="evenodd" clip-rule="evenodd" d="M220.247 327.346C229.698 327.346 237.359 319.684 237.359 310.234C237.359 300.783 229.698 293.121 220.247 293.121C210.796 293.121 203.135 300.783 203.135 310.234C203.135 319.684 210.796 327.346 220.247 327.346Z" stroke="white" stroke-width="6" stroke-linecap="round" stroke-linejoin="round"/>
<path d="M434.149 240.563L416.051 258.897L407.258 250.008" stroke="white" stroke-width="6" stroke-linecap="round" stroke-linejoin="round"/>
<path d="M473.262 232.618H525.821" stroke="white" stroke-width="6" stroke-linecap="round" stroke-linejoin="round"/>
<path d="M473.262 258.286H560.045" stroke="white" stroke-width="6" stroke-linecap="round" stroke-linejoin="round"/>
<path d="M560.045 319.401H473.262" stroke="white" stroke-width="6" stroke-linecap="round" stroke-linejoin="round"/>
<path d="M560.045 293.121H473.262" stroke="white" stroke-width="6" stroke-linecap="round" stroke-linejoin="round"/>
<path fill-rule="evenodd" clip-rule="evenodd" d="M420.703 327.346C430.154 327.346 437.816 319.684 437.816 310.234C437.816 300.783 430.154 293.121 420.703 293.121C411.253 293.121 403.591 300.783 403.591 310.234C403.591 319.684 411.253 327.346 420.703 327.346Z" stroke="white" stroke-width="6" stroke-linecap="round" stroke-linejoin="round"/>
<path d="M634.605 240.563L616.507 258.897L607.715 250.008" stroke="white" stroke-width="6" stroke-linecap="round" stroke-linejoin="round"/>
<path d="M673.719 232.618H726.277" stroke="white" stroke-width="6" stroke-linecap="round" stroke-linejoin="round"/>
<path d="M673.719 258.286H760.501" stroke="white" stroke-width="6" stroke-linecap="round" stroke-linejoin="round"/>
<path d="M760.501 319.401H673.719" stroke="white" stroke-width="6" stroke-linecap="round" stroke-linejoin="round"/>
<path d="M760.501 293.121H673.719" stroke="white" stroke-width="6" stroke-linecap="round" stroke-linejoin="round"/>
<path fill-rule="evenodd" clip-rule="evenodd" d="M621.16 327.346C630.611 327.346 638.272 319.684 638.272 310.234C638.272 300.783 630.611 293.121 621.16 293.121C611.709 293.121 604.048 300.783 604.048 310.234C604.048 319.684 611.709 327.346 621.16 327.346Z" stroke="white" stroke-width="6" stroke-linecap="round" stroke-linejoin="round"/>
<defs>
<linearGradient id="paint0_linear_2_84" x1="100.001" y1="507.702" x2="341.378" y2="507.702" gradientUnits="userSpaceOnUse">
<stop stop-color="#FA8148"/>
<stop offset="1" stop-color="#EE5D1F"/>
</linearGradient>
</defs>
</svg>
