<svg width="900" height="900" viewBox="0 0 900 900" fill="none" xmlns="http://www.w3.org/2000/svg">
<rect width="900" height="900" rx="450" fill="#F97C42"/>
<path d="M350.386 439.695L307.822 588.464C307.204 590.646 306.978 592.868 307.122 595.03C307.637 602.851 312.988 609.869 320.953 612.154L579.322 686.065C587.329 688.349 595.603 685.18 600.172 678.758C601.407 677.029 602.374 675.074 602.992 672.913L645.535 524.206C648.458 514.038 642.571 503.439 632.424 500.537L374.055 426.605C363.908 423.703 353.35 429.548 350.386 439.695Z" fill="white" stroke="#282F34" stroke-width="6"/>
<path d="M307.14 595.011C307.654 602.832 313.005 609.85 320.971 612.135L579.319 686.067C587.326 688.351 595.6 685.181 600.169 678.76L468.587 558.868L307.14 595.011Z" fill="white" stroke="#282F34" stroke-width="6"/>
<path d="M350.386 439.695L466.058 583.318L643.353 531.822L645.535 524.206C648.458 514.038 642.571 503.439 632.424 500.537L374.055 426.605C363.908 423.703 353.35 429.548 350.386 439.695Z" fill="white" stroke="#282F34" stroke-width="6"/>
<mask id="path-5-inside-1_2_24" fill="white">
<path fill-rule="evenodd" clip-rule="evenodd" d="M306.344 333.738C312.417 335.366 318.574 334.589 323.828 331.987C327.845 329.998 332.366 328.63 336.696 329.79V329.79C343.686 331.663 347.834 338.848 345.961 345.838L293.292 542.402C291.284 549.895 283.582 554.342 276.089 552.334V552.334C271.748 551.171 268.43 547.833 265.714 544.253C262.483 539.992 257.885 536.742 252.347 535.258C246.81 533.774 241.202 534.289 236.273 536.364C232.132 538.108 227.589 539.339 223.248 538.175V538.175C218.908 537.012 215.589 533.675 212.874 530.094C209.643 525.833 205.044 522.583 199.507 521.099C193.969 519.616 188.361 520.131 183.433 522.205C179.291 523.949 174.748 525.18 170.407 524.017V524.017C166.067 522.854 162.748 519.516 160.033 515.935C156.802 511.675 152.203 508.425 146.666 506.941C141.128 505.457 135.521 505.972 130.592 508.047C126.45 509.79 121.908 511.021 117.567 509.858V509.858C110.074 507.851 105.627 500.149 107.635 492.656L160.305 296.09C162.178 289.101 169.362 284.953 176.351 286.826V286.826C180.681 287.986 183.912 291.43 186.396 295.162C189.644 300.042 194.589 303.794 200.662 305.421C207.061 307.136 213.554 306.181 218.984 303.235C222.408 301.378 226.341 300.22 230.103 301.229V301.229C233.865 302.237 236.692 305.205 238.728 308.526C241.958 313.792 247.104 317.865 253.503 319.58C259.902 321.295 266.395 320.34 271.825 317.394C275.249 315.536 279.181 314.379 282.944 315.387V315.387C286.706 316.395 289.533 319.364 291.569 322.684C294.798 327.95 299.944 332.024 306.344 333.738Z"/>
</mask>
<path fill-rule="evenodd" clip-rule="evenodd" d="M306.344 333.738C312.417 335.366 318.574 334.589 323.828 331.987C327.845 329.998 332.366 328.63 336.696 329.79V329.79C343.686 331.663 347.834 338.848 345.961 345.838L293.292 542.402C291.284 549.895 283.582 554.342 276.089 552.334V552.334C271.748 551.171 268.43 547.833 265.714 544.253C262.483 539.992 257.885 536.742 252.347 535.258C246.81 533.774 241.202 534.289 236.273 536.364C232.132 538.108 227.589 539.339 223.248 538.175V538.175C218.908 537.012 215.589 533.675 212.874 530.094C209.643 525.833 205.044 522.583 199.507 521.099C193.969 519.616 188.361 520.131 183.433 522.205C179.291 523.949 174.748 525.18 170.407 524.017V524.017C166.067 522.854 162.748 519.516 160.033 515.935C156.802 511.675 152.203 508.425 146.666 506.941C141.128 505.457 135.521 505.972 130.592 508.047C126.45 509.79 121.908 511.021 117.567 509.858V509.858C110.074 507.851 105.627 500.149 107.635 492.656L160.305 296.09C162.178 289.101 169.362 284.953 176.351 286.826V286.826C180.681 287.986 183.912 291.43 186.396 295.162C189.644 300.042 194.589 303.794 200.662 305.421C207.061 307.136 213.554 306.181 218.984 303.235C222.408 301.378 226.341 300.22 230.103 301.229V301.229C233.865 302.237 236.692 305.205 238.728 308.526C241.958 313.792 247.104 317.865 253.503 319.58C259.902 321.295 266.395 320.34 271.825 317.394C275.249 315.536 279.181 314.379 282.944 315.387V315.387C286.706 316.395 289.533 319.364 291.569 322.684C294.798 327.95 299.944 332.024 306.344 333.738Z" fill="white"/>
<path d="M291.569 322.684L286.454 325.821L291.569 322.684ZM160.033 515.935L155.252 519.561L160.033 515.935ZM183.433 522.205L181.105 516.675L183.433 522.205ZM212.874 530.094L217.655 526.469L212.874 530.094ZM236.273 536.364L238.601 541.894L236.273 536.364ZM265.714 544.253L260.933 547.878L265.714 544.253ZM345.961 345.838L340.166 344.285L345.961 345.838ZM323.828 331.987L321.165 326.61L323.828 331.987ZM321.165 326.61C317.161 328.593 312.499 329.176 307.896 327.943L304.791 339.534C312.335 341.555 319.988 340.584 326.491 337.364L321.165 326.61ZM299.088 543.955L351.757 347.391L340.166 344.285L287.497 540.849L299.088 543.955ZM270.495 540.627C266.492 535.348 260.776 531.305 253.9 529.463L250.794 541.054C254.993 542.179 258.475 544.636 260.933 547.878L270.495 540.627ZM253.9 529.463C247.024 527.62 240.053 528.263 233.945 530.834L238.601 541.894C242.351 540.316 246.595 539.928 250.794 541.054L253.9 529.463ZM197.954 526.895C202.153 528.02 205.635 530.477 208.093 533.719L217.655 526.469C213.652 521.189 207.935 517.146 201.06 515.304L197.954 526.895ZM185.761 527.735C189.511 526.157 193.755 525.77 197.954 526.895L201.06 515.304C194.184 513.462 187.212 514.105 181.105 516.675L185.761 527.735ZM145.113 512.737C149.312 513.862 152.794 516.319 155.252 519.561L164.814 512.31C160.81 507.031 155.094 502.988 148.219 501.145L145.113 512.737ZM132.92 513.577C136.67 511.998 140.914 511.611 145.113 512.737L148.219 501.145C141.343 499.303 134.371 499.946 128.264 502.517L132.92 513.577ZM154.509 294.537L101.84 491.103L113.431 494.209L166.1 297.643L154.509 294.537ZM202.215 299.626C197.613 298.392 193.866 295.556 191.39 291.837L181.401 298.487C185.422 304.527 191.565 309.195 199.109 311.217L202.215 299.626ZM216.123 297.961C211.98 300.209 207.062 300.924 202.215 299.626L199.109 311.217C207.06 313.347 215.128 312.153 221.846 308.509L216.123 297.961ZM255.056 313.784C250.208 312.486 246.307 309.407 243.843 305.389L233.613 311.662C237.609 318.177 243.999 323.245 251.95 325.376L255.056 313.784ZM268.964 312.12C264.821 314.368 259.903 315.083 255.056 313.784L251.95 325.376C259.901 327.506 267.969 326.312 274.687 322.668L268.964 312.12ZM307.896 327.943C303.049 326.644 299.148 323.565 296.684 319.547L286.454 325.821C290.449 332.335 296.84 337.404 304.791 339.534L307.896 327.943ZM281.391 321.183C283.009 321.616 284.773 323.08 286.454 325.821L296.684 319.547C294.292 315.648 290.403 311.174 284.497 309.592L281.391 321.183ZM274.687 322.668C277.513 321.134 279.773 320.749 281.391 321.183L284.497 309.592C278.59 308.009 272.985 309.939 268.964 312.12L274.687 322.668ZM228.55 307.024C230.168 307.458 231.932 308.921 233.613 311.662L243.843 305.389C241.452 301.489 237.562 297.016 231.656 295.433L228.55 307.024ZM221.846 308.509C224.672 306.976 226.932 306.591 228.55 307.024L231.656 295.433C225.749 293.85 220.144 295.78 216.123 297.961L221.846 308.509ZM174.798 292.621C176.984 293.207 179.171 295.137 181.401 298.487L191.39 291.837C188.652 287.724 184.377 282.765 177.904 281.03L174.798 292.621ZM128.264 502.517C124.427 504.132 121.459 504.689 119.12 504.063L116.014 515.654C122.356 517.353 128.474 515.449 132.92 513.577L128.264 502.517ZM171.96 518.221C169.621 517.595 167.329 515.628 164.814 512.31L155.252 519.561C158.167 523.405 162.512 528.113 168.855 529.812L171.96 518.221ZM181.105 516.675C177.268 518.291 174.299 518.848 171.96 518.221L168.855 529.812C175.197 531.512 181.314 529.607 185.761 527.735L181.105 516.675ZM224.801 532.38C222.462 531.753 220.17 529.786 217.655 526.469L208.093 533.719C211.008 537.564 215.353 542.272 221.695 543.971L224.801 532.38ZM233.945 530.834C230.108 532.449 227.14 533.007 224.801 532.38L221.695 543.971C228.038 545.67 234.155 543.766 238.601 541.894L233.945 530.834ZM277.642 546.539C275.303 545.912 273.011 543.945 270.495 540.627L260.933 547.878C263.848 551.722 268.194 556.43 274.536 558.13L277.642 546.539ZM166.1 297.643C167.116 293.854 171.01 291.606 174.798 292.621L177.904 281.03C167.714 278.3 157.24 284.347 154.509 294.537L166.1 297.643ZM287.497 540.849C286.346 545.141 281.934 547.689 277.642 546.539L274.536 558.13C285.23 560.995 296.222 554.649 299.088 543.955L287.497 540.849ZM119.12 504.063C114.828 502.913 112.281 498.501 113.431 494.209L101.84 491.103C98.9743 501.797 105.32 512.788 116.014 515.654L119.12 504.063ZM335.143 335.586C338.932 336.601 341.181 340.496 340.166 344.285L351.757 347.391C354.487 337.2 348.44 326.725 338.249 323.995L335.143 335.586ZM326.491 337.364C330.097 335.578 332.957 335 335.143 335.586L338.249 323.995C331.775 322.26 325.593 324.418 321.165 326.61L326.491 337.364Z" fill="#282F34" mask="url(#path-5-inside-1_2_24)"/>
<rect x="179.452" y="327.454" width="140.458" height="150.808" rx="15.8624" transform="rotate(15 179.452 327.454)" fill="#F97C42" stroke="#282F34" stroke-width="6"/>
<path fill-rule="evenodd" clip-rule="evenodd" d="M214.393 468.562C214.393 468.562 184.599 426.865 192.295 398.144C197.962 376.995 219.668 364.436 240.778 370.092C261.887 375.748 274.406 397.478 268.739 418.627C261.043 447.348 214.393 468.562 214.393 468.562Z" fill="white"/>
<path fill-rule="evenodd" clip-rule="evenodd" d="M226.299 424.999V424.999C217.234 422.57 211.856 413.254 214.285 404.19V404.19C216.714 395.125 226.029 389.747 235.094 392.176V392.176C244.159 394.604 249.537 403.92 247.108 412.985V412.985C244.679 422.049 235.364 427.428 226.299 424.999Z" fill="#F97C42"/>
<circle cx="651.142" cy="517.142" r="77.142" fill="#2EC275" stroke="#282F34" stroke-width="6"/>
<path d="M651.384 515.112C650.915 515.066 650.353 515.066 649.837 515.112C638.683 514.746 629.826 505.82 629.826 494.834C629.826 483.62 639.105 474.511 650.634 474.511C662.116 474.511 671.442 483.62 671.442 494.834C671.395 505.82 662.538 514.746 651.384 515.112Z" fill="white"/>
<path d="M628.05 526.65C616.884 534.278 616.884 546.709 628.05 554.29C640.738 562.954 661.546 562.954 674.233 554.29C685.399 546.662 685.399 534.231 674.233 526.65C661.592 518.033 640.784 518.033 628.05 526.65Z" fill="white"/>
<rect x="183.623" y="563.431" width="99" height="99" rx="25" transform="rotate(15 183.623 563.431)" fill="#F97C42" stroke="#282F34" stroke-width="6"/>
<path fill-rule="evenodd" clip-rule="evenodd" d="M211.797 584.086C201.314 581.277 190.54 587.498 187.731 597.98L179.086 630.246C178.969 630.681 178.868 631.116 178.782 631.552L194.812 625.98L194.814 625.979C200.734 623.923 207.761 626.174 211.277 631.381L211.301 631.418L212.435 633.138C214.066 635.534 217.664 636.494 220.27 635.225L220.272 635.224L243.669 623.84C247.592 621.929 252.215 622.09 256.047 623.925L257.957 616.797C260.765 606.314 254.545 595.54 244.062 592.731L211.797 584.086ZM253.911 631.896C252.071 630.384 249.275 629.931 247.143 630.97L247.141 630.971L223.744 642.355L223.742 642.356C217.578 645.357 209.687 643.242 205.851 637.56L205.826 637.523L204.692 635.803C203.23 633.655 200.01 632.571 197.415 633.472L178.949 639.891C180.573 646.675 185.768 652.379 192.98 654.311L225.246 662.957C235.728 665.765 246.502 659.545 249.311 649.062L253.911 631.896Z" fill="white"/>
<path d="M219.329 620.459C224.564 621.861 229.944 618.755 231.347 613.52C232.749 608.286 229.643 602.905 224.409 601.503C219.174 600.1 213.794 603.207 212.391 608.441C210.988 613.676 214.095 619.056 219.329 620.459Z" fill="#F97C42"/>
<rect x="645.689" y="645" width="87.6628" height="87.6628" rx="25" transform="rotate(15 645.689 645)" fill="#F97C42" stroke="#282F34" stroke-width="6"/>
<path fill-rule="evenodd" clip-rule="evenodd" d="M672.808 664.184C662.326 661.375 651.551 667.596 648.743 678.078L642.252 702.302C642.037 703.105 641.875 703.91 641.763 704.713L655.448 699.956L655.449 699.956C660.881 698.07 667.321 700.129 670.552 704.914L670.576 704.951L671.578 706.471C672.896 708.405 675.836 709.188 677.94 708.163L677.942 708.163L698.66 698.082L698.661 698.081C702.262 696.328 706.498 696.474 710.011 698.155L710.926 694.74C713.735 684.258 707.514 673.483 697.032 670.675L672.808 664.184ZM707.863 706.171C706.381 704.789 703.947 704.329 702.133 705.212L702.131 705.213L681.414 715.294L681.412 715.294C675.751 718.051 668.518 716.113 664.995 710.894L664.97 710.857L663.968 709.336C662.79 707.609 660.157 706.717 658.05 707.448L642.369 712.9C644.234 719.261 649.274 724.526 656.146 726.367L680.37 732.858C690.852 735.667 701.627 729.446 704.435 718.964L707.863 706.171Z" fill="white"/>
<path d="M677.306 695.497C681.941 696.739 686.705 693.988 687.947 689.353C689.189 684.718 686.438 679.954 681.803 678.712C677.168 677.47 672.404 680.22 671.162 684.855C669.92 689.49 672.671 694.255 677.306 695.497Z" fill="#F97C42"/>
<path d="M416.614 404.498L407.555 353.6C407.403 352.749 407.677 351.878 408.288 351.267L452.197 307.359C452.797 306.758 453.65 306.483 454.488 306.618L506.126 314.959C507.158 315.126 507.995 315.885 508.261 316.897L539.363 435.196C539.88 437.162 538.077 438.951 536.115 438.42L418.526 406.587C417.538 406.32 416.793 405.506 416.614 404.498Z" fill="#FFB200" stroke="#282F34" stroke-width="6"/>
<rect width="66.6827" height="199.696" rx="33.3414" transform="matrix(0.707107 -0.707107 -0.707107 -0.707107 405.047 353.955)" fill="#2EC275" stroke="#282F34" stroke-width="6"/>
<rect width="94.85" height="23.1856" rx="11.5928" transform="matrix(0.707107 -0.707107 -0.707107 -0.707107 397.082 365.455)" fill="#89807C" stroke="#282F34" stroke-width="6"/>
<rect width="21.8452" height="22.1572" rx="10.9226" transform="matrix(0.707107 -0.707107 -0.707107 -0.707107 478.017 391.788)" fill="white" stroke="#282F34" stroke-width="6"/>
<line x1="535.973" y1="434.127" x2="486.019" y2="384.173" stroke="#282F34" stroke-width="6" stroke-linecap="round"/>
<path d="M579.938 199.66C589.221 194.301 600.656 194.301 609.938 199.66L652.631 224.309C661.913 229.668 667.631 239.572 667.631 250.29V299.587C667.631 310.305 661.913 320.209 652.631 325.568L609.938 350.217C600.656 355.576 589.22 355.576 579.938 350.217L537.246 325.568C527.964 320.209 522.246 310.305 522.246 299.587V250.29C522.246 239.572 527.964 229.668 537.246 224.309L579.938 199.66Z" fill="#75B5A0" stroke="#282F34" stroke-width="6"/>
<path d="M618.242 260.88L590.76 288.142L574.271 271.785" stroke="white" stroke-width="12" stroke-linecap="round" stroke-linejoin="round"/>
<path d="M716 409.195H756.389" stroke="#FFBEA0" stroke-width="12" stroke-linecap="round" stroke-linejoin="round"/>
<path d="M736.195 429.389V389" stroke="#FFBEA0" stroke-width="12" stroke-linecap="round" stroke-linejoin="round"/>
<path d="M755 497.195H795.389" stroke="#FFBEA0" stroke-width="12" stroke-linecap="round" stroke-linejoin="round"/>
<path d="M775.194 517.389V477" stroke="#FFBEA0" stroke-width="12" stroke-linecap="round" stroke-linejoin="round"/>
<path d="M638.508 384.269H678.897" stroke="#FFBEA0" stroke-width="12" stroke-linecap="round" stroke-linejoin="round"/>
<path d="M658.703 404.463V364.074" stroke="#FFBEA0" stroke-width="12" stroke-linecap="round" stroke-linejoin="round"/>
</svg>
