<svg xmlns="http://www.w3.org/2000/svg" xmlns:xlink="http://www.w3.org/1999/xlink" xmlns:lucid="lucid" width="1760" height="1360"><g transform="translate(0 0)" lucid:page-tab-id="0_0"><path d="M0 0h1760v1360H0z" fill="#1f1f1f"/><path d="M80 66a6 6 0 0 1 6-6h118a6 6 0 0 1 6 6v8a14.5 14.5 0 0 1-4.24 10.24l-1.52 1.52A14.5 14.5 0 0 1 194 90H86a6 6 0 0 1-6-6z" fill="#bb86fc"/><path d="M210 60v20l-10 10H80" stroke="#9e66e4" stroke-width="2" fill="none"/><path d="M80 66a6 6 0 0 1 6-6h1588a6 6 0 0 1 6 6v268a6 6 0 0 1-6 6H86a6 6 0 0 1-6-6z" stroke="#9e66e4" stroke-width="2" fill="none"/><use xlink:href="#a" transform="matrix(1,0,0,1,88,60) translate(0 21.511111111111106)"/><path d="M140 115.4a6 6 0 0 1 6-6h308a6 6 0 0 1 6 6v169.2a6 6 0 0 1-6 6H146a6 6 0 0 1-6-6zM530 115.4a6 6 0 0 1 6-6h308a6 6 0 0 1 6 6v169.2a6 6 0 0 1-6 6H536a6 6 0 0 1-6-6zM1310 115.4a6 6 0 0 1 6-6h308a6 6 0 0 1 6 6v169.2a6 6 0 0 1-6 6h-308a6 6 0 0 1-6-6zM920 115.4a6 6 0 0 1 6-6h308a6 6 0 0 1 6 6v169.2a6 6 0 0 1-6 6H926a6 6 0 0 1-6-6z" stroke="#9e66e4" stroke-width="2" fill-opacity="0"/><path d="M80 406a6 6 0 0 1 6-6h233a6 6 0 0 1 6 6v8a14.5 14.5 0 0 1-4.24 10.24l-1.52 1.52A14.5 14.5 0 0 1 309 430H86a6 6 0 0 1-6-6z" fill="#bb86fc"/><path d="M325 400v20l-10 10H80" stroke="#9e66e4" stroke-width="2" fill="none"/><path d="M80 406a6 6 0 0 1 6-6h1588a6 6 0 0 1 6 6v568a6 6 0 0 1-6 6H86a6 6 0 0 1-6-6z" stroke="#9e66e4" stroke-width="2" fill="none"/><use xlink:href="#b" transform="matrix(1,0,0,1,88,399.99999999999994) translate(0 21.511111111111106)"/><use xlink:href="#c" transform="matrix(1,0,0,1,88,399.99999999999994) translate(65.579012345679 21.511111111111106)"/><path d="M140 527.27V486a6 6 0 0 1 6-6h408a6 6 0 0 1 6 6v41.27z" stroke="#9e66e4" stroke-width="2" fill="#bb86fc"/><path d="M560 527.27v370.8a6 6 0 0 1-6 6H146a6 6 0 0 1-6-6v-370.8z" stroke="#9e66e4" stroke-width="2" fill="none"/><use xlink:href="#d" transform="matrix(1,0,0,1,140,480.00000000000006) translate(159.2845679012346 29.377777777777776)"/><path d="M992.5 494.63a6 6 0 0 1 6-6H1454a6 6 0 0 1 6 6v60.74a6 6 0 0 1-6 6H998.5a6 6 0 0 1-6-6zM771.34 512.55a8.53 8.53 0 0 1 9.82 0l105.18 74a4.22 4.22 0 0 1 0 6.9l-105.18 74a8.53 8.53 0 0 1-9.82 0l-105.18-74a4.22 4.22 0 0 1 0-6.9zM992.5 604.63a6 6 0 0 1 6-6H1454a6 6 0 0 1 6 6v60.74a6 6 0 0 1-6 6H998.5a6 6 0 0 1-6-6zM992.5 714.63a6 6 0 0 1 6-6H1454a6 6 0 0 1 6 6v60.74a6 6 0 0 1-6 6H998.5a6 6 0 0 1-6-6zM992.5 824.63a6 6 0 0 1 6-6H1454a6 6 0 0 1 6 6v60.74a6 6 0 0 1-6 6H998.5a6 6 0 0 1-6-6zM771.34 712.55a8.53 8.53 0 0 1 9.82 0l105.18 74a4.22 4.22 0 0 1 0 6.9l-105.18 74a8.53 8.53 0 0 1-9.82 0l-105.18-74a4.22 4.22 0 0 1 0-6.9z" stroke="#9e66e4" stroke-width="2" fill-opacity="0"/><path d="M80 1046a6 6 0 0 1 6-6h118a6 6 0 0 1 6 6v8a14.5 14.5 0 0 1-4.24 10.24l-1.52 1.52A14.5 14.5 0 0 1 194 1070H86a6 6 0 0 1-6-6z" fill="#bb86fc"/><path d="M210 1040v20l-10 10H80" stroke="#9e66e4" stroke-width="2" fill="none"/><path d="M80 1046a6 6 0 0 1 6-6h1588a6 6 0 0 1 6 6v228a6 6 0 0 1-6 6H86a6 6 0 0 1-6-6z" stroke="#9e66e4" stroke-width="2" fill="none"/><use xlink:href="#e" transform="matrix(1,0,0,1,88,1040) translate(0 21.511111111111106)"/><path d="M130 1107.85a6 6 0 0 1 6-6h168a6 6 0 0 1 6 6v122.3a6 6 0 0 1-6 6H136a6 6 0 0 1-6-6zM350 1107.85a6 6 0 0 1 6-6h168a6 6 0 0 1 6 6v122.3a6 6 0 0 1-6 6H356a6 6 0 0 1-6-6zM570 1107.85a6 6 0 0 1 6-6h168a6 6 0 0 1 6 6v122.3a6 6 0 0 1-6 6H576a6 6 0 0 1-6-6zM790 1107.85a6 6 0 0 1 6-6h168a6 6 0 0 1 6 6v122.3a6 6 0 0 1-6 6H796a6 6 0 0 1-6-6zM1010 1106a6 6 0 0 1 6-6h168a6 6 0 0 1 6 6v122.3a6 6 0 0 1-6 6h-168a6 6 0 0 1-6-6zM1230 1106a6 6 0 0 1 6-6h168a6 6 0 0 1 6 6v122.3a6 6 0 0 1-6 6h-168a6 6 0 0 1-6-6zM1450 1106a6 6 0 0 1 6-6h168a6 6 0 0 1 6 6v122.3a6 6 0 0 1-6 6h-168a6 6 0 0 1-6-6z" stroke="#9e66e4" stroke-width="2" fill-opacity="0"/><path d="M880 342.46v55.08" stroke="#03dac6" stroke-width="3" fill="none"/><path d="M881.5 342.5h-3v-1.54h3zM881.5 399.04h-3v-1.54h3z" stroke="#03dac6" stroke-width=".05" fill="#03dac6"/><path d="M1500 466.8a6 6 0 0 1 6-6h68a6 6 0 0 1 6 6v446.4a6 6 0 0 1-6 6h-68a6 6 0 0 1-6-6z" fill="none"/><path d="M1500 919.2c5.52 0 10-4.47 10-10V700c0-5.52 4.48-10 10-10-5.52 0-10-4.48-10-10V470.8c0-5.53-4.48-10-10-10" stroke="#9e66e4" stroke-width="2" fill="none"/><use xlink:href="#f" transform="matrix(1,0,0,1,1535,465.79583333333335) translate(0 213.74444444444447)"/><use xlink:href="#g" transform="matrix(1,0,0,1,1535,465.79583333333335) translate(0 246.01111111111112)"/><path d="M642.97 791.43H566a6 6 0 0 1-6-6v-188a6 6 0 0 1 6-6h76.97" stroke="#03dac6" stroke-width="3" fill="none"/><path d="M658.73 791.43l-14.26 4.64v-9.27zM658.73 591.43l-14.26 4.64v-9.27z" stroke="#03dac6" stroke-width="3" fill="#03dac6"/><path d="M776.25 708.5v-37" stroke="#03dac6" stroke-width="3" fill="none"/><path d="M777.75 710.13l-.33-.06-1.17-.07-1.17.07-.33.06v-1.67h3zM775.08 669.93l1.17.07 1.17-.07.33-.06v1.67h-3v-1.67z" stroke="#03dac6" stroke-width=".05" fill="#03dac6"/><path d="M890.64 590H944a6 6 0 0 0 6-6v-53a6 6 0 0 1 6-6h14.92" stroke="#03dac6" stroke-width="3" fill="none"/><path d="M890.68 591.5h-1.8l.16-.5.1-1-.1-1-.15-.5h1.78z" stroke="#03dac6" stroke-width=".05" fill="#03dac6"/><path d="M986.68 525l-14.26 4.64v-9.28z" stroke="#03dac6" stroke-width="3" fill="#03dac6"/><path d="M890.64 590H944a6 6 0 0 1 6 6v33a6 6 0 0 0 6 6h14.92" stroke="#03dac6" stroke-width="3" fill="none"/><path d="M890.68 591.5h-1.8l.16-.5.1-1-.1-1-.15-.5h1.78z" stroke="#03dac6" stroke-width=".05" fill="#03dac6"/><path d="M986.68 635l-14.26 4.64v-9.28z" stroke="#03dac6" stroke-width="3" fill="#03dac6"/><path d="M890.64 590H944a6 6 0 0 1 6 6v143a6 6 0 0 0 6 6h14.92" stroke="#03dac6" stroke-width="3" fill="none"/><path d="M890.68 591.5h-1.8l.16-.5.1-1-.1-1-.15-.5h1.78z" stroke="#03dac6" stroke-width=".05" fill="#03dac6"/><path d="M986.68 745l-14.26 4.64v-9.28z" stroke="#03dac6" stroke-width="3" fill="#03dac6"/><path d="M890.64 590H944a6 6 0 0 1 6 6v253a6 6 0 0 0 6 6h14.92" stroke="#03dac6" stroke-width="3" fill="none"/><path d="M890.68 591.5h-1.8l.16-.5.1-1-.1-1-.15-.5h1.78z" stroke="#03dac6" stroke-width=".05" fill="#03dac6"/><path d="M986.68 855l-14.26 4.64v-9.28z" stroke="#03dac6" stroke-width="3" fill="#03dac6"/><path d="M880 982.46v55.08" stroke="#03dac6" stroke-width="3" fill="none"/><path d="M881.5 982.5h-3v-1.54h3zM881.5 1039.04h-3v-1.54h3z" stroke="#03dac6" stroke-width=".05" fill="#03dac6"/><path d="M180 563.27a6 6 0 0 1 6-6h328a6 6 0 0 1 6 6v76.63a6 6 0 0 1-6 6H186a6 6 0 0 1-6-6z" stroke="#9e66e4" stroke-width="2" fill="#bb86fc"/><use xlink:href="#h" transform="matrix(1,0,0,1,192,569.2666666666665) translate(105.04382716049383 37.761111111111106)"/><path d="M180 676.9a6 6 0 0 1 6-6h328a6 6 0 0 1 6 6v76.63a6 6 0 0 1-6 6H186a6 6 0 0 1-6-6z" stroke="#9e66e4" stroke-width="2" fill="#bb86fc"/><use xlink:href="#i" transform="matrix(1,0,0,1,192,682.9000000000001) translate(100.525 37.761111111111106)"/><path d="M180 790.53a6 6 0 0 1 6-6h328a6 6 0 0 1 6 6v76.64a6 6 0 0 1-6 6H186a6 6 0 0 1-6-6z" stroke="#9e66e4" stroke-width="2" fill="#bb86fc"/><use xlink:href="#j" transform="matrix(1,0,0,1,192,796.5333333333336) translate(107.9567901234568 37.761111111111106)"/><path d="M656.25 563.27a6 6 0 0 1 6-6h228a6 6 0 0 1 6 6v48a6 6 0 0 1-6 6h-228a6 6 0 0 1-6-6z" stroke="#000" stroke-opacity="0" stroke-width="2" fill="#fff" fill-opacity="0"/><use xlink:href="#k" transform="matrix(1,0,0,1,661.25,562.2666666666665) translate(75.52561728395062 30.886111111111106)"/><path d="M656.25 771.45a6 6 0 0 1 6-6h228a6 6 0 0 1 6 6v48a6 6 0 0 1-6 6h-228a6 6 0 0 1-6-6z" stroke="#000" stroke-opacity="0" stroke-width="2" fill="#fff" fill-opacity="0"/><use xlink:href="#l" transform="matrix(1,0,0,1,661.25,770.45) translate(78.51327160493828 30.886111111111106)"/><path d="M1100 503.27a6 6 0 0 1 6-6h228a6 6 0 0 1 6 6v48a6 6 0 0 1-6 6h-228a6 6 0 0 1-6-6z" stroke="#000" stroke-opacity="0" stroke-width="2" fill="#fff" fill-opacity="0"/><use xlink:href="#m" transform="matrix(1,0,0,1,1105,502.26666666666654) translate(32.241975308642 30.886111111111106)"/><use xlink:href="#n" transform="matrix(1,0,0,1,1105,502.26666666666654) translate(99.31481481481482 30.886111111111106)"/><path d="M1100 611a6 6 0 0 1 6-6h228a6 6 0 0 1 6 6v48a6 6 0 0 1-6 6h-228a6 6 0 0 1-6-6z" stroke="#000" stroke-opacity="0" stroke-width="2" fill="#fff" fill-opacity="0"/><use xlink:href="#o" transform="matrix(1,0,0,1,1105,610) translate(53.603703703703715 30.886111111111106)"/><use xlink:href="#p" transform="matrix(1,0,0,1,1105,610) translate(98.86666666666667 30.886111111111106)"/><path d="M1100 721a6 6 0 0 1 6-6h228a6 6 0 0 1 6 6v48a6 6 0 0 1-6 6h-228a6 6 0 0 1-6-6z" stroke="#000" stroke-opacity="0" stroke-width="2" fill="#fff" fill-opacity="0"/><use xlink:href="#q" transform="matrix(1,0,0,1,1105,720) translate(7.556481481481512 30.886111111111106)"/><use xlink:href="#n" transform="matrix(1,0,0,1,1105,720) translate(124.00030864197531 30.886111111111106)"/><path d="M1100 831a6 6 0 0 1 6-6h228a6 6 0 0 1 6 6v48a6 6 0 0 1-6 6h-228a6 6 0 0 1-6-6z" stroke="#000" stroke-opacity="0" stroke-width="2" fill="#fff" fill-opacity="0"/><use xlink:href="#r" transform="matrix(1,0,0,1,1105,830) translate(3.149691358024711 30.886111111111106)"/><use xlink:href="#n" transform="matrix(1,0,0,1,1105,830) translate(128.4070987654321 30.886111111111106)"/><path d="M130 1146a6 6 0 0 1 6-6h168a6 6 0 0 1 6 6v48a6 6 0 0 1-6 6H136a6 6 0 0 1-6-6z" stroke="#000" stroke-opacity="0" stroke-width="2" fill="#fff" fill-opacity="0"/><use xlink:href="#s" transform="matrix(1,0,0,1,135,1145) translate(8.964197530864212 30.886111111111106)"/><use xlink:href="#t" transform="matrix(1,0,0,1,135,1145) translate(76.11172839506173 30.886111111111106)"/><path d="M350 1145a6 6 0 0 1 6-6h168a6 6 0 0 1 6 6v48a6 6 0 0 1-6 6H356a6 6 0 0 1-6-6z" stroke="#000" stroke-opacity="0" stroke-width="2" fill="#fff" fill-opacity="0"/><use xlink:href="#u" transform="matrix(1,0,0,1,355,1144) translate(35.7783950617284 30.886111111111106)"/><path d="M570 1146a6 6 0 0 1 6-6h168a6 6 0 0 1 6 6v48a6 6 0 0 1-6 6H576a6 6 0 0 1-6-6z" stroke="#000" stroke-opacity="0" stroke-width="2" fill="#fff" fill-opacity="0"/><use xlink:href="#v" transform="matrix(1,0,0,1,575,1145) translate(56.69197530864198 30.886111111111106)"/><path d="M790 1146a6 6 0 0 1 6-6h168a6 6 0 0 1 6 6v48a6 6 0 0 1-6 6H796a6 6 0 0 1-6-6z" stroke="#000" stroke-opacity="0" stroke-width="2" fill="#fff" fill-opacity="0"/><use xlink:href="#w" transform="matrix(1,0,0,1,795,1145) translate(20.205246913580254 30.886111111111106)"/><use xlink:href="#x" transform="matrix(1,0,0,1,795,1145) translate(73.83364197530864 30.886111111111106)"/><use xlink:href="#y" transform="matrix(1,0,0,1,795,1145) translate(90.19104938271605 30.886111111111106)"/><path d="M1010 1146a6 6 0 0 1 6-6h168a6 6 0 0 1 6 6v48a6 6 0 0 1-6 6h-168a6 6 0 0 1-6-6z" stroke="#000" stroke-opacity="0" stroke-width="2" fill="#fff" fill-opacity="0"/><use xlink:href="#z" transform="matrix(1,0,0,1,1015,1145) translate(27.599691358024707 30.886111111111106)"/><path d="M1230 1143.15a6 6 0 0 1 6-6h168a6 6 0 0 1 6 6v48a6 6 0 0 1-6 6h-168a6 6 0 0 1-6-6z" stroke="#000" stroke-opacity="0" stroke-width="2" fill="#fff" fill-opacity="0"/><use xlink:href="#A" transform="matrix(1,0,0,1,1235,1142.1470588235293) translate(29.76574074074076 30.886111111111106)"/><path d="M1450 1143.15a6 6 0 0 1 6-6h168a6 6 0 0 1 6 6v48a6 6 0 0 1-6 6h-168a6 6 0 0 1-6-6z" stroke="#000" stroke-opacity="0" stroke-width="2" fill="#fff" fill-opacity="0"/><use xlink:href="#B" transform="matrix(1,0,0,1,1455,1142.1470588235293) translate(26.143209876543224 30.886111111111106)"/><path d="M180 180.77a6 6 0 0 1 6-6h228a6 6 0 0 1 6 6v38.46a6 6 0 0 1-6 6H186a6 6 0 0 1-6-6z" stroke="#000" stroke-opacity="0" stroke-width="2" fill="#fff" fill-opacity="0"/><g><use xlink:href="#C" transform="matrix(1,0,0,1,185,179.76666666666668) translate(22.433024691358128 34.74027777777774)"/><use xlink:href="#D" transform="matrix(1,0,0,1,185,179.76666666666668) translate(140.64166666666665 34.74027777777774)"/></g><path d="M570 180.77a6 6 0 0 1 6-6h228a6 6 0 0 1 6 6v38.46a6 6 0 0 1-6 6H576a6 6 0 0 1-6-6z" stroke="#000" stroke-opacity="0" stroke-width="2" fill="#fff" fill-opacity="0"/><g><use xlink:href="#E" transform="matrix(1,0,0,1,575,179.76666666666668) translate(-1.9796296296294997 32.17777777777774)"/></g><path d="M960 180.77a6 6 0 0 1 6-6h228a6 6 0 0 1 6 6v38.46a6 6 0 0 1-6 6H966a6 6 0 0 1-6-6z" stroke="#000" stroke-opacity="0" stroke-width="2" fill="#fff" fill-opacity="0"/><g><use xlink:href="#F" transform="matrix(1,0,0,1,965,179.76666666666668) translate(11.42777777777789 34.74027777777774)"/><use xlink:href="#G" transform="matrix(1,0,0,1,965,179.76666666666668) translate(133.88209876543206 34.74027777777774)"/></g><path d="M1350 163.38a6 6 0 0 1 6-6h228a6 6 0 0 1 6 6v73.24a6 6 0 0 1-6 6h-228a6 6 0 0 1-6-6z" stroke="#000" stroke-opacity="0" stroke-width="2" fill="#fff" fill-opacity="0"/><g><use xlink:href="#H" transform="matrix(1,0,0,1,1355,162.38333333333333) translate(58.07438271604945 32.17777777777774)"/><use xlink:href="#I" transform="matrix(1,0,0,1,1355,162.38333333333333) translate(21.427469135802568 80.44444444444434)"/></g><defs><path fill="#fff" d="M33 0v-248h34V0H33" id="J"/><path fill="#fff" d="M117-194c89-4 53 116 60 194h-32v-121c0-31-8-49-39-48C34-167 62-67 57 0H25l-1-190h30c1 10-1 24 2 32 11-22 29-35 61-36" id="K"/><path fill="#fff" d="M59-47c-2 24 18 29 38 22v24C64 9 27 4 27-40v-127H5v-23h24l9-43h21v43h35v23H59v120" id="L"/><path fill="#fff" d="M100-194c63 0 86 42 84 106H49c0 40 14 67 53 68 26 1 43-12 49-29l28 8c-11 28-37 45-77 45C44 4 14-33 15-96c1-61 26-98 85-98zm52 81c6-60-76-77-97-28-3 7-6 17-6 28h103" id="M"/><path fill="#fff" d="M114-163C36-179 61-72 57 0H25l-1-190h30c1 12-1 29 2 39 6-27 23-49 58-41v29" id="N"/><path fill="#fff" d="M101-234c-31-9-42 10-38 44h38v23H63V0H32v-167H5v-23h27c-7-52 17-82 69-68v24" id="O"/><path fill="#fff" d="M141-36C126-15 110 5 73 4 37 3 15-17 15-53c-1-64 63-63 125-63 3-35-9-54-41-54-24 1-41 7-42 31l-33-3c5-37 33-52 76-52 45 0 72 20 72 64v82c-1 20 7 32 28 27v20c-31 9-61-2-59-35zM48-53c0 20 12 33 32 33 41-3 63-29 60-74-43 2-92-5-92 41" id="P"/><path fill="#fff" d="M96-169c-40 0-48 33-48 73s9 75 48 75c24 0 41-14 43-38l32 2c-6 37-31 61-74 61-59 0-76-41-82-99-10-93 101-131 147-64 4 7 5 14 7 22l-32 3c-4-21-16-35-41-35" id="Q"/><g id="a"><use transform="matrix(0.07469135802469133,0,0,0.07469135802469133,0,0)" xlink:href="#J"/><use transform="matrix(0.07469135802469133,0,0,0.07469135802469133,7.4691358024691334,0)" xlink:href="#K"/><use transform="matrix(0.07469135802469133,0,0,0.07469135802469133,22.4074074074074,0)" xlink:href="#L"/><use transform="matrix(0.07469135802469133,0,0,0.07469135802469133,29.876543209876534,0)" xlink:href="#M"/><use transform="matrix(0.07469135802469133,0,0,0.07469135802469133,44.8148148148148,0)" xlink:href="#N"/><use transform="matrix(0.07469135802469133,0,0,0.07469135802469133,53.70308641975307,0)" xlink:href="#O"/><use transform="matrix(0.07469135802469133,0,0,0.07469135802469133,61.1722222222222,0)" xlink:href="#P"/><use transform="matrix(0.07469135802469133,0,0,0.07469135802469133,76.11049382716047,0)" xlink:href="#Q"/><use transform="matrix(0.07469135802469133,0,0,0.07469135802469133,89.55493827160491,0)" xlink:href="#M"/></g><path fill="#fff" d="M212-179c-10-28-35-45-73-45-59 0-87 40-87 99 0 60 29 101 89 101 43 0 62-24 78-52l27 14C228-24 195 4 139 4 59 4 22-46 18-125c-6-104 99-153 187-111 19 9 31 26 39 46" id="R"/><path fill="#fff" d="M100-194c62-1 85 37 85 99 1 63-27 99-86 99S16-35 15-95c0-66 28-99 85-99zM99-20c44 1 53-31 53-75 0-43-8-75-51-75s-53 32-53 75 10 74 51 75" id="S"/><g id="b"><use transform="matrix(0.07469135802469135,0,0,0.07469135802469135,0,0)" xlink:href="#R"/><use transform="matrix(0.07469135802469135,0,0,0.07469135802469135,19.34506172839506,0)" xlink:href="#S"/><use transform="matrix(0.07469135802469135,0,0,0.07469135802469135,34.28333333333333,0)" xlink:href="#N"/><use transform="matrix(0.07469135802469135,0,0,0.07469135802469135,43.1716049382716,0)" xlink:href="#M"/></g><path fill="#fff" d="M210-169c-67 3-38 105-44 169h-31v-121c0-29-5-50-35-48C34-165 62-65 56 0H25l-1-190h30c1 10-1 24 2 32 10-44 99-50 107 0 11-21 27-35 58-36 85-2 47 119 55 194h-31v-121c0-29-5-49-35-48" id="T"/><path fill="#fff" d="M115-194c55 1 70 41 70 98S169 2 115 4C84 4 66-9 55-30l1 105H24l-1-265h31l2 30c10-21 28-34 59-34zm-8 174c40 0 45-34 45-75s-6-73-45-74c-42 0-51 32-51 76 0 43 10 73 51 73" id="U"/><path fill="#fff" d="M135-143c-3-34-86-38-87 0 15 53 115 12 119 90S17 21 10-45l28-5c4 36 97 45 98 0-10-56-113-15-118-90-4-57 82-63 122-42 12 7 21 19 24 35" id="V"/><g id="c"><use transform="matrix(0.07469135802469135,0,0,0.07469135802469135,0,0)" xlink:href="#R"/><use transform="matrix(0.07469135802469135,0,0,0.07469135802469135,19.34506172839506,0)" xlink:href="#S"/><use transform="matrix(0.07469135802469135,0,0,0.07469135802469135,34.28333333333333,0)" xlink:href="#T"/><use transform="matrix(0.07469135802469135,0,0,0.07469135802469135,56.61604938271604,0)" xlink:href="#U"/><use transform="matrix(0.07469135802469135,0,0,0.07469135802469135,71.55432098765431,0)" xlink:href="#S"/><use transform="matrix(0.07469135802469135,0,0,0.07469135802469135,86.49259259259257,0)" xlink:href="#K"/><use transform="matrix(0.07469135802469135,0,0,0.07469135802469135,101.43086419753082,0)" xlink:href="#M"/><use transform="matrix(0.07469135802469135,0,0,0.07469135802469135,116.3691358024691,0)" xlink:href="#K"/><use transform="matrix(0.07469135802469135,0,0,0.07469135802469135,131.30740740740737,0)" xlink:href="#L"/><use transform="matrix(0.07469135802469135,0,0,0.07469135802469135,138.7765432098765,0)" xlink:href="#V"/></g><path fill="#fff" d="M240 0l2-218c-23 76-54 145-80 218h-23L58-218 59 0H30v-248h44l77 211c21-75 51-140 76-211h43V0h-30" id="W"/><path fill="#fff" d="M85-194c31 0 48 13 60 33l-1-100h32l1 261h-30c-2-10 0-23-3-31C134-8 116 4 85 4 32 4 16-35 15-94c0-66 23-100 70-100zm9 24c-40 0-46 34-46 75 0 40 6 74 45 74 42 0 51-32 51-76 0-42-9-74-50-73" id="X"/><path fill="#fff" d="M84 4C-5 8 30-112 23-190h32v120c0 31 7 50 39 49 72-2 45-101 50-169h31l1 190h-30c-1-10 1-25-2-33-11 22-28 36-60 37" id="Y"/><path fill="#fff" d="M24 0v-261h32V0H24" id="Z"/><g id="d"><use transform="matrix(0.07469135802469135,0,0,0.07469135802469135,0,0)" xlink:href="#W"/><use transform="matrix(0.07469135802469135,0,0,0.07469135802469135,22.33271604938271,0)" xlink:href="#S"/><use transform="matrix(0.07469135802469135,0,0,0.07469135802469135,37.270987654320976,0)" xlink:href="#X"/><use transform="matrix(0.07469135802469135,0,0,0.07469135802469135,52.20925925925924,0)" xlink:href="#Y"/><use transform="matrix(0.07469135802469135,0,0,0.07469135802469135,67.1475308641975,0)" xlink:href="#Z"/><use transform="matrix(0.07469135802469135,0,0,0.07469135802469135,73.04814814814813,0)" xlink:href="#M"/><use transform="matrix(0.07469135802469135,0,0,0.07469135802469135,87.9864197530864,0)" xlink:href="#V"/></g><path fill="#fff" d="M185-189c-5-48-123-54-124 2 14 75 158 14 163 119 3 78-121 87-175 55-17-10-28-26-33-46l33-7c5 56 141 63 141-1 0-78-155-14-162-118-5-82 145-84 179-34 5 7 8 16 11 25" id="aa"/><path fill="#fff" d="M108 0H70L1-190h34L89-25l56-165h34" id="ab"/><path fill="#fff" d="M24-231v-30h32v30H24zM24 0v-190h32V0H24" id="ac"/><g id="e"><use transform="matrix(0.07469135802469133,0,0,0.07469135802469133,0,0)" xlink:href="#aa"/><use transform="matrix(0.07469135802469133,0,0,0.07469135802469133,17.92592592592592,0)" xlink:href="#M"/><use transform="matrix(0.07469135802469133,0,0,0.07469135802469133,32.86419753086419,0)" xlink:href="#N"/><use transform="matrix(0.07469135802469133,0,0,0.07469135802469133,41.75246913580246,0)" xlink:href="#ab"/><use transform="matrix(0.07469135802469133,0,0,0.07469135802469133,55.1969135802469,0)" xlink:href="#ac"/><use transform="matrix(0.07469135802469133,0,0,0.07469135802469133,61.097530864197516,0)" xlink:href="#Q"/><use transform="matrix(0.07469135802469133,0,0,0.07469135802469133,74.54197530864195,0)" xlink:href="#M"/><use transform="matrix(0.07469135802469133,0,0,0.07469135802469133,89.48024691358022,0)" xlink:href="#V"/></g><path fill="#fff" d="M186 0v-106H76V0H24v-248h52v99h110v-99h50V0h-50" id="ad"/><path fill="#fff" d="M25-224v-37h50v37H25zM25 0v-190h50V0H25" id="ae"/><path fill="#fff" d="M195-6C206 82 75 100 31 46c-4-6-6-13-8-21l49-6c3 16 16 24 34 25 40 0 42-37 40-79-11 22-30 35-61 35-53 0-70-43-70-97 0-56 18-96 73-97 30 0 46 14 59 34l2-30h47zm-90-29c32 0 41-27 41-63 0-35-9-62-40-62-32 0-39 29-40 63 0 36 9 62 39 62" id="af"/><path fill="#fff" d="M114-157C55-157 80-60 75 0H25v-261h50l-1 109c12-26 28-41 61-42 86-1 58 113 63 194h-50c-7-57 23-157-34-157" id="ag"/><path fill="#fff" d="M231 0h-52l-39-155L100 0H48L-1-190h46L77-45c9-52 24-97 36-145h53l37 145 32-145h46" id="ah"/><path fill="#fff" d="M133-34C117-15 103 5 69 4 32 3 11-16 11-54c-1-60 55-63 116-61 1-26-3-47-28-47-18 1-26 9-28 27l-52-2c7-38 36-58 82-57s74 22 75 68l1 82c-1 14 12 18 25 15v27c-30 8-71 5-69-32zm-48 3c29 0 43-24 42-57-32 0-66-3-65 30 0 17 8 27 23 27" id="ai"/><path fill="#fff" d="M123 10C108 53 80 86 19 72V37c35 8 53-11 59-39L3-190h52l48 148c12-52 28-100 44-148h51" id="aj"/><g id="f"><use transform="matrix(0.07469135802469135,0,0,0.07469135802469135,0,0)" xlink:href="#ad"/><use transform="matrix(0.07469135802469135,0,0,0.07469135802469135,19.34506172839506,0)" xlink:href="#ae"/><use transform="matrix(0.07469135802469135,0,0,0.07469135802469135,26.81419753086419,0)" xlink:href="#af"/><use transform="matrix(0.07469135802469135,0,0,0.07469135802469135,43.1716049382716,0)" xlink:href="#ag"/><use transform="matrix(0.07469135802469135,0,0,0.07469135802469135,59.529012345679014,0)" xlink:href="#ah"/><use transform="matrix(0.07469135802469135,0,0,0.07469135802469135,80.44259259259258,0)" xlink:href="#ai"/><use transform="matrix(0.07469135802469135,0,0,0.07469135802469135,95.38086419753085,0)" xlink:href="#aj"/></g><path fill="#fff" d="M24-248c93 1 206-16 204 79-1 75-69 88-152 82V0H24v-248zm52 121c47 0 100 7 100-41 0-47-54-39-100-39v80" id="ak"/><path fill="#fff" d="M135-150c-39-12-60 13-60 57V0H25l-1-190h47c2 13-1 29 3 40 6-28 27-53 61-41v41" id="al"/><path fill="#fff" d="M110-194c64 0 96 36 96 99 0 64-35 99-97 99-61 0-95-36-95-99 0-62 34-99 96-99zm-1 164c35 0 45-28 45-65 0-40-10-65-43-65-34 0-45 26-45 65 0 36 10 65 43 65" id="am"/><path fill="#fff" d="M115-3C79 11 28 4 28-45v-112H4v-33h27l15-45h31v45h36v33H77v99c-1 23 16 31 38 25v30" id="an"/><path fill="#fff" d="M190-63c-7 42-38 67-86 67-59 0-84-38-90-98-12-110 154-137 174-36l-49 2c-2-19-15-32-35-32-30 0-35 28-38 64-6 74 65 87 74 30" id="ao"/><path fill="#fff" d="M25 0v-261h50V0H25" id="ap"/><g id="g"><use transform="matrix(0.07469135802469135,0,0,0.07469135802469135,0,0)" xlink:href="#ak"/><use transform="matrix(0.07469135802469135,0,0,0.07469135802469135,17.925925925925924,0)" xlink:href="#al"/><use transform="matrix(0.07469135802469135,0,0,0.07469135802469135,28.38271604938271,0)" xlink:href="#am"/><use transform="matrix(0.07469135802469135,0,0,0.07469135802469135,44.740123456790116,0)" xlink:href="#an"/><use transform="matrix(0.07469135802469135,0,0,0.07469135802469135,53.62839506172838,0)" xlink:href="#am"/><use transform="matrix(0.07469135802469135,0,0,0.07469135802469135,69.98580246913579,0)" xlink:href="#ao"/><use transform="matrix(0.07469135802469135,0,0,0.07469135802469135,84.92407407407406,0)" xlink:href="#am"/><use transform="matrix(0.07469135802469135,0,0,0.07469135802469135,101.28148148148146,0)" xlink:href="#ap"/></g><path fill="#fff" d="M141 0L90-78 38 0H4l68-98-65-92h35l48 74 47-74h35l-64 92 68 98h-35" id="aq"/><path fill="#fff" d="M0 4l72-265h28L28 4H0" id="ar"/><path fill="#fff" d="M179-190L93 31C79 59 56 82 12 73V49c39 6 53-20 64-50L1-190h34L92-34l54-156h33" id="as"/><g id="h"><use transform="matrix(0.07469135802469135,0,0,0.07469135802469135,0,0)" xlink:href="#aq"/><use transform="matrix(0.07469135802469135,0,0,0.07469135802469135,13.444444444444443,0)" xlink:href="#ar"/><use transform="matrix(0.07469135802469135,0,0,0.07469135802469135,20.913580246913575,0)" xlink:href="#ac"/><use transform="matrix(0.07469135802469135,0,0,0.07469135802469135,26.81419753086419,0)" xlink:href="#X"/><use transform="matrix(0.07469135802469135,0,0,0.07469135802469135,41.75246913580246,0)" xlink:href="#M"/><use transform="matrix(0.07469135802469135,0,0,0.07469135802469135,56.69074074074072,0)" xlink:href="#K"/><use transform="matrix(0.07469135802469135,0,0,0.07469135802469135,71.62901234567899,0)" xlink:href="#L"/><use transform="matrix(0.07469135802469135,0,0,0.07469135802469135,79.09814814814814,0)" xlink:href="#ac"/><use transform="matrix(0.07469135802469135,0,0,0.07469135802469135,84.99876543209874,0)" xlink:href="#L"/><use transform="matrix(0.07469135802469135,0,0,0.07469135802469135,92.46790123456788,0)" xlink:href="#as"/></g><path fill="#fff" d="M106-169C34-169 62-67 57 0H25v-261h32l-1 103c12-21 28-36 61-36 89 0 53 116 60 194h-32v-121c2-32-8-49-39-48" id="at"/><g id="i"><use transform="matrix(0.07469135802469135,0,0,0.07469135802469135,0,0)" xlink:href="#aq"/><use transform="matrix(0.07469135802469135,0,0,0.07469135802469135,13.444444444444443,0)" xlink:href="#ar"/><use transform="matrix(0.07469135802469135,0,0,0.07469135802469135,20.913580246913575,0)" xlink:href="#V"/><use transform="matrix(0.07469135802469135,0,0,0.07469135802469135,34.35802469135802,0)" xlink:href="#Q"/><use transform="matrix(0.07469135802469135,0,0,0.07469135802469135,47.80246913580246,0)" xlink:href="#at"/><use transform="matrix(0.07469135802469135,0,0,0.07469135802469135,62.74074074074073,0)" xlink:href="#M"/><use transform="matrix(0.07469135802469135,0,0,0.07469135802469135,77.679012345679,0)" xlink:href="#T"/><use transform="matrix(0.07469135802469135,0,0,0.07469135802469135,100.01172839506171,0)" xlink:href="#P"/></g><path fill="#fff" d="M115-194c53 0 69 39 70 98 0 66-23 100-70 100C84 3 66-7 56-30L54 0H23l1-261h32v101c10-23 28-34 59-34zm-8 174c40 0 45-34 45-75 0-40-5-75-45-74-42 0-51 32-51 76 0 43 10 73 51 73" id="au"/><path fill="#fff" d="M143 0L79-87 56-68V0H24v-261h32v163l83-92h37l-77 82L181 0h-38" id="av"/><g id="j"><use transform="matrix(0.07469135802469135,0,0,0.07469135802469135,0,0)" xlink:href="#aq"/><use transform="matrix(0.07469135802469135,0,0,0.07469135802469135,13.444444444444443,0)" xlink:href="#ar"/><use transform="matrix(0.07469135802469135,0,0,0.07469135802469135,20.913580246913575,0)" xlink:href="#au"/><use transform="matrix(0.07469135802469135,0,0,0.07469135802469135,35.85185185185185,0)" xlink:href="#Y"/><use transform="matrix(0.07469135802469135,0,0,0.07469135802469135,50.79012345679011,0)" xlink:href="#Q"/><use transform="matrix(0.07469135802469135,0,0,0.07469135802469135,64.23456790123456,0)" xlink:href="#av"/><use transform="matrix(0.07469135802469135,0,0,0.07469135802469135,77.679012345679,0)" xlink:href="#M"/><use transform="matrix(0.07469135802469135,0,0,0.07469135802469135,92.61728395061726,0)" xlink:href="#L"/></g><path fill="#fff" d="M135-194c52 0 70 43 70 98 0 56-19 99-73 100-30 1-46-15-58-35L72 0H24l1-261h50v104c11-23 29-37 60-37zM114-30c31 0 40-27 40-66 0-37-7-63-39-63s-41 28-41 65c0 36 8 64 40 64" id="aw"/><path fill="#fff" d="M135-194c53 0 70 44 70 98 0 56-19 98-73 100-31 1-45-17-59-34 3 33 2 69 2 105H25l-1-265h48c2 10 0 23 3 31 11-24 29-35 60-35zM114-30c33 0 39-31 40-66 0-38-9-64-40-64-56 0-55 130 0 130" id="ax"/><path fill="#fff" d="M182-182c0 78-84 86-111 141h115V0H12c-6-101 99-100 120-180 1-22-12-31-33-32-23 0-32 14-35 34l-49-3c5-45 32-70 84-70 51 0 83 22 83 69" id="ay"/><g id="k"><use transform="matrix(0.07469135802469135,0,0,0.07469135802469135,0,0)" xlink:href="#ap"/><use transform="matrix(0.07469135802469135,0,0,0.07469135802469135,7.469135802469134,0)" xlink:href="#ae"/><use transform="matrix(0.07469135802469135,0,0,0.07469135802469135,14.938271604938269,0)" xlink:href="#aw"/><use transform="matrix(0.07469135802469135,0,0,0.07469135802469135,31.295679012345673,0)" xlink:href="#ax"/><use transform="matrix(0.07469135802469135,0,0,0.07469135802469135,47.65308641975308,0)" xlink:href="#ay"/><use transform="matrix(0.07469135802469135,0,0,0.07469135802469135,62.591358024691345,0)" xlink:href="#ax"/></g><path fill="#fff" d="M240-174c0 40-23 61-54 70L253 0h-59l-57-94H76V0H24v-248c93 4 217-23 216 74zM76-134c48-2 112 12 112-38 0-48-66-32-112-35v73" id="az"/><path fill="#fff" d="M67-125c0 53 21 87 73 88 37 1 54-22 65-47l45 17C233-25 199 4 140 4 58 4 20-42 15-125 8-235 124-281 211-232c18 10 29 29 36 50l-46 12c-8-25-30-41-62-41-52 0-71 34-72 86" id="aA"/><g id="l"><use transform="matrix(0.07469135802469135,0,0,0.07469135802469135,0,0)" xlink:href="#af"/><use transform="matrix(0.07469135802469135,0,0,0.07469135802469135,16.357407407407404,0)" xlink:href="#az"/><use transform="matrix(0.07469135802469135,0,0,0.07469135802469135,35.70246913580246,0)" xlink:href="#ak"/><use transform="matrix(0.07469135802469135,0,0,0.07469135802469135,53.62839506172838,0)" xlink:href="#aA"/></g><path fill="#fff" d="M30-248c87 1 191-15 191 75 0 78-77 80-158 76V0H30v-248zm33 125c57 0 124 11 124-50 0-59-68-47-124-48v98" id="aB"/><g id="m"><use transform="matrix(0.07469135802469135,0,0,0.07469135802469135,0,0)" xlink:href="#W"/><use transform="matrix(0.07469135802469135,0,0,0.07469135802469135,22.33271604938271,0)" xlink:href="#aB"/><use transform="matrix(0.07469135802469135,0,0,0.07469135802469135,40.258641975308635,0)" xlink:href="#R"/></g><g id="n"><use transform="matrix(0.07469135802469135,0,0,0.07469135802469135,0,0)" xlink:href="#aB"/><use transform="matrix(0.07469135802469135,0,0,0.07469135802469135,17.925925925925924,0)" xlink:href="#N"/><use transform="matrix(0.07469135802469135,0,0,0.07469135802469135,26.81419753086419,0)" xlink:href="#S"/><use transform="matrix(0.07469135802469135,0,0,0.07469135802469135,41.75246913580246,0)" xlink:href="#L"/><use transform="matrix(0.07469135802469135,0,0,0.07469135802469135,49.22160493827159,0)" xlink:href="#S"/><use transform="matrix(0.07469135802469135,0,0,0.07469135802469135,64.15987654320986,0)" xlink:href="#Q"/><use transform="matrix(0.07469135802469135,0,0,0.07469135802469135,77.6043209876543,0)" xlink:href="#S"/><use transform="matrix(0.07469135802469135,0,0,0.07469135802469135,92.54259259259258,0)" xlink:href="#Z"/></g><path fill="#fff" d="M63-220v92h138v28H63V0H30v-248h175v28H63" id="aC"/><path fill="#fff" d="M30 0v-248h33v221h125V0H30" id="aD"/><g id="o"><use transform="matrix(0.07469135802469135,0,0,0.07469135802469135,0,0)" xlink:href="#aC"/><use transform="matrix(0.07469135802469135,0,0,0.07469135802469135,16.357407407407404,0)" xlink:href="#J"/><use transform="matrix(0.07469135802469135,0,0,0.07469135802469135,23.82654320987654,0)" xlink:href="#aD"/></g><path fill="#fff" d="M160-131c35 5 61 23 61 61C221 17 115-2 30 0v-248c76 3 177-17 177 60 0 33-19 50-47 57zm-97-11c50-1 110 9 110-42 0-47-63-36-110-37v79zm0 115c55-2 124 14 124-45 0-56-70-42-124-44v89" id="aE"/><path fill="#fff" d="M177-190C167-65 218 103 67 71c-23-6-38-20-44-43l32-5c15 47 100 32 89-28v-30C133-14 115 1 83 1 29 1 15-40 15-95c0-56 16-97 71-98 29-1 48 16 59 35 1-10 0-23 2-32h30zM94-22c36 0 50-32 50-73 0-42-14-75-50-75-39 0-46 34-46 75s6 73 46 73" id="aF"/><g id="p"><use transform="matrix(0.07469135802469135,0,0,0.07469135802469135,0,0)" xlink:href="#aE"/><use transform="matrix(0.07469135802469135,0,0,0.07469135802469135,17.925925925925924,0)" xlink:href="#N"/><use transform="matrix(0.07469135802469135,0,0,0.07469135802469135,26.81419753086419,0)" xlink:href="#ac"/><use transform="matrix(0.07469135802469135,0,0,0.07469135802469135,32.71481481481481,0)" xlink:href="#X"/><use transform="matrix(0.07469135802469135,0,0,0.07469135802469135,47.65308641975308,0)" xlink:href="#aF"/><use transform="matrix(0.07469135802469135,0,0,0.07469135802469135,62.591358024691345,0)" xlink:href="#M"/></g><g id="q"><use transform="matrix(0.07469135802469135,0,0,0.07469135802469135,0,0)" xlink:href="#W"/><use transform="matrix(0.07469135802469135,0,0,0.07469135802469135,22.33271604938271,0)" xlink:href="#M"/><use transform="matrix(0.07469135802469135,0,0,0.07469135802469135,37.270987654320976,0)" xlink:href="#V"/><use transform="matrix(0.07469135802469135,0,0,0.07469135802469135,50.71543209876541,0)" xlink:href="#V"/><use transform="matrix(0.07469135802469135,0,0,0.07469135802469135,64.15987654320986,0)" xlink:href="#P"/><use transform="matrix(0.07469135802469135,0,0,0.07469135802469135,79.09814814814814,0)" xlink:href="#aF"/><use transform="matrix(0.07469135802469135,0,0,0.07469135802469135,94.03641975308639,0)" xlink:href="#M"/></g><path fill="#fff" d="M30-248c118-7 216 8 213 122C240-48 200 0 122 0H30v-248zM63-27c89 8 146-16 146-99s-60-101-146-95v194" id="aG"/><g id="r"><use transform="matrix(0.07469135802469135,0,0,0.07469135802469135,0,0)" xlink:href="#aG"/><use transform="matrix(0.07469135802469135,0,0,0.07469135802469135,19.34506172839506,0)" xlink:href="#ac"/><use transform="matrix(0.07469135802469135,0,0,0.07469135802469135,25.245679012345676,0)" xlink:href="#V"/><use transform="matrix(0.07469135802469135,0,0,0.07469135802469135,38.69012345679012,0)" xlink:href="#Q"/><use transform="matrix(0.07469135802469135,0,0,0.07469135802469135,52.13456790123456,0)" xlink:href="#S"/><use transform="matrix(0.07469135802469135,0,0,0.07469135802469135,67.07283950617283,0)" xlink:href="#ab"/><use transform="matrix(0.07469135802469135,0,0,0.07469135802469135,80.51728395061727,0)" xlink:href="#M"/><use transform="matrix(0.07469135802469135,0,0,0.07469135802469135,95.45555555555553,0)" xlink:href="#N"/><use transform="matrix(0.07469135802469135,0,0,0.07469135802469135,104.34382716049382,0)" xlink:href="#as"/></g><g id="s"><use transform="matrix(0.07469135802469135,0,0,0.07469135802469135,0,0)" xlink:href="#J"/><use transform="matrix(0.07469135802469135,0,0,0.07469135802469135,7.469135802469134,0)" xlink:href="#aB"/><use transform="matrix(0.07469135802469135,0,0,0.07469135802469135,25.395061728395056,0)" xlink:href="#aC"/><use transform="matrix(0.07469135802469135,0,0,0.07469135802469135,41.75246913580246,0)" xlink:href="#aa"/></g><g id="t"><use transform="matrix(0.07469135802469135,0,0,0.07469135802469135,0,0)" xlink:href="#R"/><use transform="matrix(0.07469135802469135,0,0,0.07469135802469135,19.34506172839506,0)" xlink:href="#Z"/><use transform="matrix(0.07469135802469135,0,0,0.07469135802469135,25.245679012345676,0)" xlink:href="#Y"/><use transform="matrix(0.07469135802469135,0,0,0.07469135802469135,40.18395061728394,0)" xlink:href="#V"/><use transform="matrix(0.07469135802469135,0,0,0.07469135802469135,53.62839506172838,0)" xlink:href="#L"/><use transform="matrix(0.07469135802469135,0,0,0.07469135802469135,61.09753086419751,0)" xlink:href="#M"/><use transform="matrix(0.07469135802469135,0,0,0.07469135802469135,76.03580246913579,0)" xlink:href="#N"/></g><g id="u"><use transform="matrix(0.07469135802469135,0,0,0.07469135802469135,0,0)" xlink:href="#R"/><use transform="matrix(0.07469135802469135,0,0,0.07469135802469135,19.34506172839506,0)" xlink:href="#S"/><use transform="matrix(0.07469135802469135,0,0,0.07469135802469135,34.28333333333333,0)" xlink:href="#V"/><use transform="matrix(0.07469135802469135,0,0,0.07469135802469135,47.72777777777778,0)" xlink:href="#T"/><use transform="matrix(0.07469135802469135,0,0,0.07469135802469135,70.06049382716049,0)" xlink:href="#S"/><use transform="matrix(0.07469135802469135,0,0,0.07469135802469135,84.99876543209875,0)" xlink:href="#V"/></g><path fill="#fff" d="M197 0v-115H63V0H30v-248h33v105h134v-105h34V0h-34" id="aH"/><path fill="#fff" d="M190 0L58-211 59 0H30v-248h39L202-35l-2-213h31V0h-41" id="aI"/><g id="v"><use transform="matrix(0.07469135802469135,0,0,0.07469135802469135,0,0)" xlink:href="#aH"/><use transform="matrix(0.07469135802469135,0,0,0.07469135802469135,19.34506172839506,0)" xlink:href="#aI"/><use transform="matrix(0.07469135802469135,0,0,0.07469135802469135,38.69012345679012,0)" xlink:href="#aa"/></g><g id="w"><use transform="matrix(0.07469135802469135,0,0,0.07469135802469135,0,0)" xlink:href="#aG"/><use transform="matrix(0.07469135802469135,0,0,0.07469135802469135,19.34506172839506,0)" xlink:href="#J"/><use transform="matrix(0.07469135802469135,0,0,0.07469135802469135,26.81419753086419,0)" xlink:href="#aG"/></g><path fill="#fff" d="M16-82v-28h88v28H16" id="aJ"/><use transform="matrix(0.07469135802469135,0,0,0.07469135802469135,0,0)" xlink:href="#aJ" id="x"/><path fill="#fff" d="M266 0h-40l-56-210L115 0H75L2-248h35L96-30l15-64 43-154h32l59 218 59-218h35" id="aK"/><path fill="#fff" d="M126-127c33 6 58 20 58 59 0 88-139 92-164 29-3-8-5-16-6-25l32-3c6 27 21 44 54 44 32 0 52-15 52-46 0-38-36-46-79-43v-28c39 1 72-4 72-42 0-27-17-43-46-43-28 0-47 15-49 41l-32-3c6-42 35-63 81-64 48-1 79 21 79 65 0 36-21 52-52 59" id="aL"/><g id="y"><use transform="matrix(0.07469135802469135,0,0,0.07469135802469135,0,0)" xlink:href="#aK"/><use transform="matrix(0.07469135802469135,0,0,0.07469135802469135,25.320370370370366,0)" xlink:href="#aL"/><use transform="matrix(0.07469135802469135,0,0,0.07469135802469135,40.258641975308635,0)" xlink:href="#R"/></g><path fill="#fff" d="M143 4C61 4 22-44 18-125c-5-107 100-154 193-111 17 8 29 25 37 43l-32 9c-13-25-37-40-76-40-61 0-88 39-88 99 0 61 29 100 91 101 35 0 62-11 79-27v-45h-74v-28h105v86C228-13 192 4 143 4" id="aM"/><g id="z"><use transform="matrix(0.07469135802469135,0,0,0.07469135802469135,0,0)" xlink:href="#aM"/><use transform="matrix(0.07469135802469135,0,0,0.07469135802469135,20.913580246913575,0)" xlink:href="#S"/><use transform="matrix(0.07469135802469135,0,0,0.07469135802469135,35.85185185185185,0)" xlink:href="#T"/><use transform="matrix(0.07469135802469135,0,0,0.07469135802469135,58.18456790123456,0)" xlink:href="#S"/><use transform="matrix(0.07469135802469135,0,0,0.07469135802469135,73.12283950617282,0)" xlink:href="#au"/><use transform="matrix(0.07469135802469135,0,0,0.07469135802469135,88.0611111111111,0)" xlink:href="#ac"/><use transform="matrix(0.07469135802469135,0,0,0.07469135802469135,93.9617283950617,0)" xlink:href="#Z"/><use transform="matrix(0.07469135802469135,0,0,0.07469135802469135,99.86234567901234,0)" xlink:href="#M"/></g><path fill="#fff" d="M140-251c81 0 123 46 123 126C263-53 228-8 163 1c7 30 30 48 69 40v23c-55 16-95-15-103-61C56-3 17-48 17-125c0-80 42-126 123-126zm0 227c63 0 89-41 89-101s-29-99-89-99c-61 0-89 39-89 99S79-25 140-24" id="aN"/><g id="A"><use transform="matrix(0.07469135802469135,0,0,0.07469135802469135,0,0)" xlink:href="#aM"/><use transform="matrix(0.07469135802469135,0,0,0.07469135802469135,20.913580246913575,0)" xlink:href="#N"/><use transform="matrix(0.07469135802469135,0,0,0.07469135802469135,29.801851851851843,0)" xlink:href="#P"/><use transform="matrix(0.07469135802469135,0,0,0.07469135802469135,44.740123456790116,0)" xlink:href="#U"/><use transform="matrix(0.07469135802469135,0,0,0.07469135802469135,59.678395061728374,0)" xlink:href="#at"/><use transform="matrix(0.07469135802469135,0,0,0.07469135802469135,74.61666666666665,0)" xlink:href="#aN"/><use transform="matrix(0.07469135802469135,0,0,0.07469135802469135,95.53024691358021,0)" xlink:href="#aD"/></g><g id="B"><use transform="matrix(0.07469135802469135,0,0,0.07469135802469135,0,0)" xlink:href="#aE"/><use transform="matrix(0.07469135802469135,0,0,0.07469135802469135,17.925925925925924,0)" xlink:href="#ac"/><use transform="matrix(0.07469135802469135,0,0,0.07469135802469135,23.82654320987654,0)" xlink:href="#aF"/><use transform="matrix(0.07469135802469135,0,0,0.07469135802469135,38.764814814814805,0)" xlink:href="#aG"/><use transform="matrix(0.07469135802469135,0,0,0.07469135802469135,58.10987654320988,0)" xlink:href="#ac"/><use transform="matrix(0.07469135802469135,0,0,0.07469135802469135,64.01049382716049,0)" xlink:href="#U"/><use transform="matrix(0.07469135802469135,0,0,0.07469135802469135,78.94876543209875,0)" xlink:href="#U"/><use transform="matrix(0.07469135802469135,0,0,0.07469135802469135,93.88703703703702,0)" xlink:href="#M"/><use transform="matrix(0.07469135802469135,0,0,0.07469135802469135,108.8253086419753,0)" xlink:href="#N"/></g><path fill="#fff" d="M24 0v-248h195v40H76v63h132v40H76v65h150V0H24" id="aO"/><path fill="#fff" d="M169-182c-1-43-94-46-97-3 18 66 151 10 154 114 3 95-165 93-204 36-6-8-10-19-12-30l50-8c3 46 112 56 116 5-17-69-150-10-154-114-4-87 153-88 188-35 5 8 8 18 10 28" id="aP"/><path fill="#fff" d="M136-208V0H84v-208H4v-40h212v40h-80" id="aQ"/><g id="C"><use transform="matrix(0.11172839506172827,0,0,0.11172839506172827,0,0)" xlink:href="#az"/><use transform="matrix(0.11172839506172827,0,0,0.11172839506172827,28.937654320987622,0)" xlink:href="#aO"/><use transform="matrix(0.11172839506172827,0,0,0.11172839506172827,55.75246913580241,0)" xlink:href="#aP"/><use transform="matrix(0.11172839506172827,0,0,0.11172839506172827,82.5672839506172,0)" xlink:href="#aQ"/></g><path fill="#fff" d="M199 0l-22-63H83L61 0H9l90-248h61L250 0h-51zm-33-102l-36-108c-10 38-24 72-36 108h72" id="aR"/><path fill="#fff" d="M24 0v-248h52V0H24" id="aS"/><g id="D"><use transform="matrix(0.11172839506172827,0,0,0.11172839506172827,0,0)" xlink:href="#aR"/><use transform="matrix(0.11172839506172827,0,0,0.11172839506172827,28.937654320987622,0)" xlink:href="#ak"/><use transform="matrix(0.11172839506172827,0,0,0.11172839506172827,55.75246913580241,0)" xlink:href="#aS"/></g><path fill="#fff" d="M24 0v-248h52v208h133V0H24" id="aT"/><path fill="#fff" d="M4 7l51-268h42L46 7H4" id="aU"/><path fill="#fff" d="M135-194c87-1 58 113 63 194h-50c-7-57 23-157-34-157-59 0-34 97-39 157H25l-1-190h47c2 12-1 28 3 38 12-26 28-41 61-42" id="aV"/><path fill="#fff" d="M137-138c1-29-70-34-71-4 15 46 118 7 119 86 1 83-164 76-172 9l43-7c4 19 20 25 44 25 33 8 57-30 24-41C81-84 22-81 20-136c-2-80 154-74 161-7" id="aW"/><path fill="#fff" d="M185-48c-13 30-37 53-82 52C43 2 14-33 14-96s30-98 90-98c62 0 83 45 84 108H66c0 31 8 55 39 56 18 0 30-7 34-22zm-45-69c5-46-57-63-70-21-2 6-4 13-4 21h74" id="aX"/><g id="E"><use transform="matrix(0.11172839506172827,0,0,0.11172839506172827,0,0)" xlink:href="#aA"/><use transform="matrix(0.11172839506172827,0,0,0.11172839506172827,28.937654320987622,0)" xlink:href="#aT"/><use transform="matrix(0.11172839506172827,0,0,0.11172839506172827,53.40617283950611,0)" xlink:href="#aS"/><use transform="matrix(0.11172839506172827,0,0,0.11172839506172827,64.57901234567893,0)" xlink:href="#aU"/><use transform="matrix(0.11172839506172827,0,0,0.11172839506172827,75.75185185185177,0)" xlink:href="#aA"/><use transform="matrix(0.11172839506172827,0,0,0.11172839506172827,104.68950617283939,0)" xlink:href="#am"/><use transform="matrix(0.11172839506172827,0,0,0.11172839506172827,129.15802469135787,0)" xlink:href="#aV"/><use transform="matrix(0.11172839506172827,0,0,0.11172839506172827,153.62654320987636,0)" xlink:href="#aW"/><use transform="matrix(0.11172839506172827,0,0,0.11172839506172827,175.972222222222,0)" xlink:href="#am"/><use transform="matrix(0.11172839506172827,0,0,0.11172839506172827,200.4407407407405,0)" xlink:href="#ap"/><use transform="matrix(0.11172839506172827,0,0,0.11172839506172827,211.61358024691333,0)" xlink:href="#aX"/></g><path fill="#fff" d="M230 0l2-204L168 0h-37L68-204 70 0H24v-248h70l56 185 57-185h69V0h-46" id="aY"/><g id="F"><use transform="matrix(0.11172839506172827,0,0,0.11172839506172827,0,0)" xlink:href="#aY"/><use transform="matrix(0.11172839506172827,0,0,0.11172839506172827,33.40679012345675,0)" xlink:href="#am"/><use transform="matrix(0.11172839506172827,0,0,0.11172839506172827,57.875308641975245,0)" xlink:href="#an"/><use transform="matrix(0.11172839506172827,0,0,0.11172839506172827,71.1709876543209,0)" xlink:href="#am"/><use transform="matrix(0.11172839506172827,0,0,0.11172839506172827,95.63950617283939,0)" xlink:href="#al"/></g><path fill="#fff" d="M24-248c120-7 223 5 221 122C244-46 201 0 124 0H24v-248zM76-40c74 7 117-18 117-86 0-67-45-88-117-82v168" id="aZ"/><path fill="#fff" d="M195 0l-88-114-31 24V0H24v-248h52v113l112-113h60L142-143 257 0h-62" id="ba"/><g id="G"><use transform="matrix(0.11172839506172827,0,0,0.11172839506172827,0,0)" xlink:href="#aP"/><use transform="matrix(0.11172839506172827,0,0,0.11172839506172827,26.814814814814785,0)" xlink:href="#aZ"/><use transform="matrix(0.11172839506172827,0,0,0.11172839506172827,55.75246913580241,0)" xlink:href="#ba"/></g><path fill="#fff" d="M220-157c-53 9-28 100-34 157h-49v-107c1-27-5-49-29-50C55-147 81-57 75 0H25l-1-190h47c2 12-1 28 3 38 10-53 101-56 108 0 13-22 24-43 59-42 82 1 51 116 57 194h-49v-107c-1-25-5-48-29-50" id="bb"/><g id="H"><use transform="matrix(0.11172839506172827,0,0,0.11172839506172827,0,0)" xlink:href="#aP"/><use transform="matrix(0.11172839506172827,0,0,0.11172839506172827,26.814814814814785,0)" xlink:href="#bb"/><use transform="matrix(0.11172839506172827,0,0,0.11172839506172827,62.56790123456783,0)" xlink:href="#ai"/><use transform="matrix(0.11172839506172827,0,0,0.11172839506172827,84.91358024691348,0)" xlink:href="#al"/><use transform="matrix(0.11172839506172827,0,0,0.11172839506172827,100.55555555555544,0)" xlink:href="#an"/></g><g id="I"><use transform="matrix(0.11172839506172827,0,0,0.11172839506172827,0,0)" xlink:href="#aA"/><use transform="matrix(0.11172839506172827,0,0,0.11172839506172827,28.937654320987622,0)" xlink:href="#am"/><use transform="matrix(0.11172839506172827,0,0,0.11172839506172827,53.40617283950611,0)" xlink:href="#aV"/><use transform="matrix(0.11172839506172827,0,0,0.11172839506172827,77.8746913580246,0)" xlink:href="#an"/><use transform="matrix(0.11172839506172827,0,0,0.11172839506172827,91.17037037037026,0)" xlink:href="#al"/><use transform="matrix(0.11172839506172827,0,0,0.11172839506172827,106.81234567901222,0)" xlink:href="#ai"/><use transform="matrix(0.11172839506172827,0,0,0.11172839506172827,129.15802469135787,0)" xlink:href="#ao"/><use transform="matrix(0.11172839506172827,0,0,0.11172839506172827,151.50370370370354,0)" xlink:href="#an"/><use transform="matrix(0.11172839506172827,0,0,0.11172839506172827,164.7993827160492,0)" xlink:href="#aW"/></g></defs></g></svg>