<svg xmlns="http://www.w3.org/2000/svg" width="1063" height="302" fill="none"><path fill="#1792FF" d="m130.819 112.028-30.755 30.753c-4.417 4.417-4.417 11.578 0 15.995l30.755 30.753c4.417 4.417 11.579 4.417 15.996 0l30.756-30.753c4.417-4.417 4.417-11.578 0-15.995l-30.756-30.753c-4.417-4.417-11.579-4.417-15.996 0"/><path fill="url(#a)" d="M138.809 270.699a59.63 59.63 0 0 1-42.498-17.586l-6.538-6.538 27.885-27.882 6.538 6.537a20.61 20.61 0 0 0 29.144 0l59.872-59.868a20.623 20.623 0 0 0 0-29.125l-29.895-29.86 27.885-27.883 29.944 29.942a60.094 60.094 0 0 1 0 84.891l-59.889 59.868a59.6 59.6 0 0 1-42.448 17.504"/><path fill="url(#b)" d="m66.367 223.187-29.88-29.942a60.01 60.01 0 0 1 0-84.891L96.36 48.486A60.02 60.02 0 0 1 138.81 30.9a60.03 60.03 0 0 1 42.448 17.586l6.538 6.538-27.885 27.883-6.538-6.538a20.61 20.61 0 0 0-29.143 0l-59.873 59.868a20.6 20.6 0 0 0-6.033 14.563 20.6 20.6 0 0 0 6.033 14.562l29.945 29.942z"/><path fill="#1D1A27" d="M323.789 204.42a14 14 0 0 1-2.472-3.724c-.555-1.241-.08-2.609 1.442-4.137l13.804-13.654a3.77 3.77 0 0 1 3.598-1.145 9.8 9.8 0 0 1 3.614 2.18q3.09 3.103 6.894 6.365a60 60 0 0 0 8.241 5.808 44.7 44.7 0 0 0 9.589 4.138 37.7 37.7 0 0 0 10.92 1.591 32.8 32.8 0 0 0 10.92-1.591 25.9 25.9 0 0 0 8.146-4.456 19 19 0 0 0 5.151-6.365 17.2 17.2 0 0 0 1.744-7.543 12.33 12.33 0 0 0-2.98-8.386 27 27 0 0 0-7.322-5.793 50.5 50.5 0 0 0-9.367-3.93q-5.057-1.593-9.176-2.578-24.931-7.448-38.038-18.316a35.15 35.15 0 0 1-9.871-12.683 35.3 35.3 0 0 1-3.204-15.77 37.7 37.7 0 0 1 4.009-17.377 40.3 40.3 0 0 1 11.332-13.542 53.3 53.3 0 0 1 17.625-8.8 78.3 78.3 0 0 1 22.664-3.183 56.45 56.45 0 0 1 26.071 6.366 86 86 0 0 1 21.729 15.722c2.488 2.626 2.409 5.315-.206 8.068l-11.316 12.157a3.7 3.7 0 0 1-3.915 1.146 15 15 0 0 1-3.915-2.387c-1.584-1.368-3.534-2.896-5.658-4.551a60 60 0 0 0-7.005-4.647 48 48 0 0 0-8.035-3.628 27.2 27.2 0 0 0-8.765-1.448 55.6 55.6 0 0 0-8.13.62 23.9 23.9 0 0 0-7.624 2.388 15.6 15.6 0 0 0-5.674 4.965 14.5 14.5 0 0 0-2.266 8.577c-.059 2.452.7 4.855 2.155 6.827a18.4 18.4 0 0 0 6.197 5.076 62 62 0 0 0 9.51 4.042c3.629 1.241 7.655 2.482 12.045 3.723a202 202 0 0 1 19.78 6.923 65.4 65.4 0 0 1 16.229 9.373 43.5 43.5 0 0 1 11.094 13.239 38.44 38.44 0 0 1 4.121 18.412 40.46 40.46 0 0 1-4.755 19.557 47.5 47.5 0 0 1-12.679 14.99 57.9 57.9 0 0 1-18.337 9.548 71.54 71.54 0 0 1-52.445-3.724 81.5 81.5 0 0 1-25.469-18.443m126.119-27.1a52.8 52.8 0 0 1 3.986-20.398 52.65 52.65 0 0 1 11.546-17.253 54.2 54.2 0 0 1 16.99-11.393 53.26 53.26 0 0 1 30.994-3.256 53.4 53.4 0 0 1 27.536 14.649 54.4 54.4 0 0 1 11.427 16.964 51.3 51.3 0 0 1 4.232 20.687 50.7 50.7 0 0 1-4.232 20.592 53.6 53.6 0 0 1-11.427 16.756 53.9 53.9 0 0 1-16.879 11.267 54.44 54.44 0 0 1-41.636 0 54.8 54.8 0 0 1-17.005-11.267 51.65 51.65 0 0 1-11.578-17.08 51.8 51.8 0 0 1-3.986-20.268zm27.402.207a27.6 27.6 0 0 0 7.418 19.096 24.8 24.8 0 0 0 8.241 5.792 26.72 26.72 0 0 0 20.604 0 24.8 24.8 0 0 0 8.241-5.792 29 29 0 0 0 5.563-8.594 27.52 27.52 0 0 0 0-20.893 29.2 29.2 0 0 0-5.563-8.578 26.4 26.4 0 0 0-8.241-5.903 25.65 25.65 0 0 0-20.604 0 26.4 26.4 0 0 0-8.241 5.903 27.5 27.5 0 0 0-7.418 19.096zm109.897-51.32a8.33 8.33 0 0 1 4.644 1.05 6.47 6.47 0 0 1 2.361 2.896 17.7 17.7 0 0 1 1.237 4.233 107 107 0 0 0 1.03 5.076c3.685-4 8.007-7.356 12.79-9.929a36.1 36.1 0 0 1 18.131-4.552 44 44 0 0 1 17.101 3.183 36.8 36.8 0 0 1 12.569 8.482 35.8 35.8 0 0 1 7.829 12.921 48.8 48.8 0 0 1 2.631 16.375v56.889a4.95 4.95 0 0 1-1.236 3.931 5.6 5.6 0 0 1-3.709 1.034h-18.829c-2.203 0-3.534-.302-4.025-.923a6.9 6.9 0 0 1-.713-3.835V170.7a17.84 17.84 0 0 0-5.357-13.558 18.76 18.76 0 0 0-13.393-5.061 18.5 18.5 0 0 0-6.91 1.449 28 28 0 0 0-6.688 3.819 23.1 23.1 0 0 0-5.262 5.697 18.5 18.5 0 0 0-2.79 7.033v53.166a4.87 4.87 0 0 1-1.014 3.628 6.5 6.5 0 0 1-4.136.923h-18.544a5.45 5.45 0 0 1-4.073-.97 5.25 5.25 0 0 1-.935-3.517v-90.88q0-6.238 6.181-6.222zm122.726 5.808c.143.684.492 2.037 1.031 4.026s.903 3.342 1.03 4.042a56 56 0 0 1 4.437-5.172 33.5 33.5 0 0 1 5.88-4.869 36.5 36.5 0 0 1 7.101-3.629 23.6 23.6 0 0 1 8.352-1.448h1.95c.66.008 1.318.083 1.965.223 2.26.225 4.479.761 6.593 1.592a55 55 0 0 1 7.005 3.182 31.3 31.3 0 0 1 5.563 3.724 5.3 5.3 0 0 1 2.267 3.628 5.8 5.8 0 0 1-1.03 2.896l-8.242 13.447a5.25 5.25 0 0 1-1.78 2.026 5.2 5.2 0 0 1-2.547.87 6.7 6.7 0 0 1-2.472-.732c-1.11-.477-2.267-1.066-3.503-1.75a23 23 0 0 0-5.056-2.897 13.9 13.9 0 0 0-5.04-.827 18.1 18.1 0 0 0-7.845 1.571 18.2 18.2 0 0 0-6.419 4.794 21.3 21.3 0 0 0-3.819 6.509 20.8 20.8 0 0 0-1.347 7.145v52.338q0 5.172-5.563 5.172h-17.022q-5.342 0-5.357-5.172v-90.689c-.06-.75.051-1.505.325-2.206.275-.7.707-1.328 1.26-1.836a5.8 5.8 0 0 1 3.708-1.353h13.187a4.1 4.1 0 0 1 3.613 1.592 13.7 13.7 0 0 1 1.775 3.803"/><rect width="272" height="118" x="787" y="16" fill="#1D1A27" rx="59"/><path fill="#fff" d="M834.987 100V53.92h14.912q.543 0 2.24.032 1.695.032 3.264.224 5.567.672 9.44 3.872t5.888 8.128 2.016 10.784-2.016 10.784-5.888 8.128-9.44 3.872a32 32 0 0 1-3.264.224q-1.697.032-2.24.032zm8.832-8.192h6.08q.864 0 2.336-.032a19 19 0 0 0 2.656-.288q3.008-.608 4.896-2.816 1.92-2.208 2.816-5.312.928-3.105.928-6.4 0-3.456-.96-6.56-.928-3.105-2.848-5.248-1.92-2.145-4.832-2.72-1.185-.256-2.656-.288t-2.336-.032h-6.08zm56.189 9.152q-6.911 0-11.936-3.008-4.992-3.007-7.712-8.416-2.688-5.407-2.688-12.576 0-7.168 2.688-12.576 2.72-5.407 7.712-8.416 5.024-3.008 11.936-3.008t11.904 3.008q5.024 3.007 7.712 8.416 2.72 5.408 2.72 12.576t-2.72 12.576q-2.687 5.407-7.712 8.416-4.992 3.008-11.904 3.008m0-8.192q4.384.064 7.296-1.888t4.352-5.536q1.473-3.585 1.472-8.384 0-4.8-1.472-8.32-1.44-3.52-4.352-5.472t-7.296-2.016-7.296 1.888-4.384 5.536q-1.44 3.584-1.44 8.384t1.44 8.32q1.473 3.52 4.384 5.472 2.913 1.951 7.296 2.016m48.308 8.192q-6.911 0-11.936-3.008-4.992-3.007-7.712-8.416-2.688-5.407-2.688-12.576 0-7.168 2.688-12.576 2.72-5.407 7.712-8.416 5.024-3.008 11.936-3.008 7.936 0 13.312 3.936 5.409 3.936 7.616 10.656l-8.768 2.432q-1.28-4.192-4.32-6.496-3.04-2.336-7.84-2.336-4.383 0-7.328 1.952-2.911 1.952-4.384 5.504-1.472 3.552-1.472 8.352t1.472 8.352 4.384 5.504q2.945 1.952 7.328 1.952 4.8 0 7.84-2.336t4.32-6.496l8.768 2.432q-2.207 6.72-7.616 10.656-5.376 3.936-13.312 3.936m47.128 0q-5.12 0-9.248-1.792-4.097-1.824-6.752-5.184-2.625-3.392-3.328-8.064l9.088-1.344q.96 3.968 3.968 6.112t6.848 2.144a13 13 0 0 0 4.16-.672q2.01-.672 3.3-1.984c.87-.875 1.31-1.952 1.31-3.232 0-.47-.08-.917-.23-1.344a3.3 3.3 0 0 0-.67-1.248c-.32-.384-.78-.747-1.37-1.088-.58-.341-1.32-.65-2.21-.928l-11.97-3.52a35 35 0 0 1-3.136-1.088q-1.76-.704-3.424-2.016-1.665-1.312-2.784-3.456-1.088-2.176-1.088-5.472 0-4.64 2.336-7.712t6.24-4.576 8.64-1.472q4.766.065 8.516 1.632 3.735 1.567 6.27 4.576c1.68 1.984 2.9 4.416 3.65 7.296l-9.41 1.6q-.51-2.24-1.89-3.776a9.1 9.1 0 0 0-3.296-2.336 11 11 0 0 0-3.968-.864 10.6 10.6 0 0 0-3.872.576q-1.792.608-2.944 1.792a3.96 3.96 0 0 0-1.12 2.816q0 1.504.928 2.464.927.928 2.336 1.504 1.407.576 2.88.96l7.996 2.176c1.2.32 2.52.747 3.97 1.28a16.8 16.8 0 0 1 4.16 2.176c1.35.917 2.44 2.133 3.3 3.648.87 1.515 1.31 3.435 1.31 5.76 0 2.475-.52 4.64-1.57 6.496a13.5 13.5 0 0 1-4.16 4.576c-1.75 1.195-3.73 2.09-5.95 2.688a26 26 0 0 1-6.816.896"/><rect width="272" height="118" x="787" y="16" stroke="#fff" stroke-width="8" rx="59"/><defs><linearGradient id="a" x1="254.612" x2="189.207" y1="171.237" y2="103.117" gradientUnits="userSpaceOnUse"><stop offset=".579" stop-color="#1792FF"/><stop offset="1" stop-color="#1792FF" stop-opacity="0"/></linearGradient><linearGradient id="b" x1="5.275" x2="69.277" y1="157.612" y2="224.409" gradientUnits="userSpaceOnUse"><stop offset=".508" stop-color="#1792FF"/><stop offset="1" stop-color="#1792FF" stop-opacity="0"/></linearGradient></defs></svg>