<svg viewBox="0 0 100 100" xmlns="http://www.w3.org/2000/svg"><path fill="#FFF" d="M50 10.001c-22.09 0-40 17.91-40 40 0 19.22 13.57 36.16 31.667 39.998V77.03c-6.55-2.03-12.1-6.34-15.67-12.04 4.2 2.83 9.61 4.89 15.66 5.91v-3.05c0-1.91.39-3.73 1.07-5.39 -9.326-2.19-16.07-8.44-16.07-15.84 0-3.26 1.32-6.3 3.59-8.86 -.57-3.8-.17-7.63 1.11-11.14 3.01 1.09 5.78 2.849 8.119 5.131 3.15-1.14 6.71-1.8 10.5-1.8 3.78 0 7.34.657 10.5 1.79 2.33-2.282 5.1-4.04 8.11-5.131 1.27 3.51 1.68 7.34 1.11 11.14 2.26 2.56 3.59 5.59 3.59 8.86 0 7.39-6.744 13.64-16.07 15.83 .68 1.66 1.07 3.47 1.07 5.38V89.94c18.09-3.84 31.667-20.762 31.667-40 0-22.09-17.91-40-40-40Z"/></svg>