<?xml version="1.0" standalone="no"?>
<!DOCTYPE svg PUBLIC "-//W3C//DTD SVG 20010904//EN"
 "http://www.w3.org/TR/2001/REC-SVG-20010904/DTD/svg10.dtd">
<svg version="1.0" xmlns="http://www.w3.org/2000/svg"
 width="264.000000pt" height="264.000000pt" viewBox="0 0 264.000000 264.000000"
 preserveAspectRatio="xMidYMid meet">
<metadata>
Created by potrace 1.14, written by Peter Selinger 2001-2017
</metadata>
<g transform="translate(0.000000,264.000000) scale(0.100000,-0.100000)"
fill="#000000" stroke="none">
<path d="M1075 2575 c-140 -29 -185 -44 -320 -110 -120 -58 -237 -140 -331
-231 -59 -58 -190 -222 -202 -253 -3 -9 -18 -36 -32 -61 -39 -68 -103 -236
-116 -307 -28 -149 -32 -191 -29 -318 1 -77 6 -153 9 -170 4 -16 11 -55 17
-85 72 -360 339 -697 684 -865 195 -95 325 -126 545 -130 161 -3 283 14 425
61 448 148 782 542 859 1015 16 98 14 337 -3 419 -6 30 -14 67 -16 81 -11 59
-61 190 -108 283 -165 323 -468 566 -819 655 -112 29 -141 32 -303 35 -125 3
-169 0 -260 -19z m350 -389 c72 -19 142 -58 203 -112 l54 -47 -103 -103 -103
-104 -36 35 c-63 61 -134 72 -198 31 -40 -26 -468 -454 -496 -496 -18 -28 -21
-86 -5 -127 5 -15 64 -82 130 -149 l121 -122 -103 -103 -103 -102 -135 139
c-78 80 -146 159 -158 185 -74 148 -67 306 19 458 30 52 426 459 514 527 112
87 274 124 399 90z m717 -648 c54 -98 70 -221 42 -329 -28 -110 -63 -154 -342
-431 -293 -291 -315 -307 -451 -330 -135 -23 -260 15 -376 116 l-57 49 103
103 102 103 45 -39 c48 -43 91 -56 150 -45 32 6 72 42 289 258 216 217 252
257 258 290 15 79 3 101 -132 238 l-126 128 103 101 103 101 132 -135 c73 -74
144 -154 157 -178z m-657 -39 c142 -140 158 -165 132 -216 -24 -46 -262 -273
-287 -273 -11 0 -33 6 -48 14 -42 22 -260 248 -267 278 -4 16 -1 37 8 54 17
32 230 245 262 262 46 26 64 15 200 -119z"/>
</g>
</svg>
