<svg xmlns="http://www.w3.org/2000/svg" width="1500" height="852" fill="none"><g clip-path="url(#a)"><g style="mix-blend-mode:hard-light"><rect width="1500" height="180" y="24" fill="#000" fill-opacity=".15" rx="16" style="mix-blend-mode:soft-light"/></g><g style="mix-blend-mode:hard-light"><rect width="184" height="43" x="18" y="45" fill="#0E0D0D" rx="16"/><path fill="#fff" d="M44.238 69.04H38.09L36.848 73H34.92l5.055-15.535h2.504L47.532 73H45.48zm-5.64-1.625h5.133l-2.55-8.303zm22.182-5.178q0 1.816-.779 2.91-.766 1.095-2.12 1.591-1.355.497-3.114.497H52.78V73h-1.963V57.465h3.971q2.776 0 4.378 1.162 1.613 1.162 1.613 3.61m-2.099.023q0-1.197-.473-1.907a2.6 2.6 0 0 0-1.309-1.016q-.824-.316-1.873-.316H52.78v6.634h2.166q1.083 0 1.93-.293a2.5 2.5 0 0 0 1.32-1.027q.484-.744.484-2.075m14.5-4.795v1.568h-3.45v12.399h3.452V73h-8.89v-1.568h3.452v-12.4h-3.452v-1.567zM96.55 73.26q-2.764 0-4.411-1.997-1.636-2.01-1.636-6.036 0-2.01.53-3.51.542-1.5 1.467-2.504a6.1 6.1 0 0 1 2.087-1.5 6.1 6.1 0 0 1 2.414-.497q1.524 0 2.528.44 1.003.429 1.918 1.264l-1.185 1.23q-1.387-1.298-3.25-1.298-1.128 0-2.143.598-1.005.598-1.636 1.986-.632 1.388-.632 3.79 0 3.386 1.05 4.886t3.08 1.5a6.1 6.1 0 0 0 2.956-.744v-4.739H96.63l-.237-1.624h5.235v7.4q-1.049.576-2.245.97-1.185.385-2.832.385m17.456-2.855q0 .721.237 1.05.237.326.733.473l-.463 1.332a3.1 3.1 0 0 1-1.342-.486q-.576-.395-.835-1.184-.643.823-1.613 1.252a5.2 5.2 0 0 1-2.11.418q-1.782 0-2.809-1.005-1.027-1.003-1.027-2.662 0-1.839 1.433-2.82 1.432-.982 4.14-.982h1.749v-.993q0-1.286-.756-1.817-.744-.54-2.076-.541-.587 0-1.376.147-.79.135-1.715.462l-.496-1.433q1.082-.405 2.042-.575.97-.17 1.839-.17 2.21 0 3.328 1.039t1.117 2.798zm-4.908 1.41q.88 0 1.67-.44a3.9 3.9 0 0 0 1.331-1.24v-3.058h-1.715q-1.963 0-2.775.677-.801.677-.801 1.816 0 2.245 2.29 2.245m19.588.587q-.61.405-1.478.632a6.8 6.8 0 0 1-1.703.225q-1.918 0-2.956-1.004-1.038-1.003-1.038-2.583v-7.085h-2.731V61.12h2.731v-2.696l1.895-.226v2.922h4.107l-.226 1.467h-3.881v7.062q0 .993.519 1.512.53.519 1.749.519.665 0 1.23-.158.564-.157 1.049-.406zm5.813-4.67q.078 2.064 1.083 3.012a3.4 3.4 0 0 0 2.392.936 4.7 4.7 0 0 0 1.647-.27q.733-.271 1.523-.802l.891 1.252a6.4 6.4 0 0 1-1.895 1.027 6.6 6.6 0 0 1-2.189.373q-1.737 0-2.956-.779-1.207-.779-1.85-2.166-.632-1.4-.632-3.238 0-1.805.632-3.204.643-1.4 1.805-2.2 1.173-.801 2.753-.801 2.245 0 3.531 1.557 1.297 1.557 1.297 4.264 0 .304-.022.576-.011.27-.023.462zm3.226-5.303q-1.32 0-2.211.936-.891.935-1.004 2.9h6.194q-.034-1.908-.835-2.866-.801-.97-2.144-.97M155.566 73h-2.686l-1.534-8.721-1.67 8.721h-2.617l-2.166-11.88h1.94l1.512 10.707 1.895-9.195h2.246l1.793 9.195 1.512-10.707h1.85zm13.461-2.595q0 .721.237 1.05.237.326.734.473l-.463 1.332a3.1 3.1 0 0 1-1.342-.486q-.576-.395-.835-1.184-.644.823-1.614 1.252a5.2 5.2 0 0 1-2.109.418q-1.783 0-2.81-1.005-1.026-1.003-1.026-2.662 0-1.839 1.433-2.82 1.433-.982 4.14-.982h1.749v-.993q0-1.286-.756-1.817-.745-.54-2.076-.541-.587 0-1.376.147-.79.135-1.715.462l-.497-1.433q1.083-.405 2.042-.575.97-.17 1.839-.17 2.212 0 3.328 1.039 1.117 1.038 1.117 2.798zm-4.907 1.41q.88 0 1.669-.44.801-.45 1.332-1.24v-3.058h-1.715q-1.963 0-2.776.677-.801.677-.801 1.816 0 2.245 2.291 2.245m20.039-10.695-4.174 11.959a10.4 10.4 0 0 1-1.061 2.211 5.3 5.3 0 0 1-1.658 1.659q-1.015.666-2.584.823l-.293-1.512q1.23-.203 1.94-.62a3.2 3.2 0 0 0 1.117-1.072q.417-.642.733-1.568h-.631l-4.152-11.88h2.031l3.407 10.436 3.362-10.436z"/></g></g><rect width="1497" height="177" x="1.5" y="25.5" stroke="#D1D1D1" stroke-opacity=".13" stroke-width="3" rx="14.5"/><g clip-path="url(#b)"><g style="mix-blend-mode:hard-light"><rect width="345" height="180" y="336" fill="#000" fill-opacity=".15" rx="16" style="mix-blend-mode:soft-light"/></g><g style="mix-blend-mode:hard-light"><rect width="170" height="43" x="18" y="357" fill="#0E0D0D" rx="16"/><path fill="#fff" d="M46.305 373.729q0 1.185-.53 2.065a4.35 4.35 0 0 1-1.434 1.433 6.4 6.4 0 0 1-2.03.789L47.07 385h-1.804l-4.49-6.871h-2.415V385h-1.444v-15.502h3.712q2.786 0 4.23 1.084 1.444 1.083 1.444 3.147m-1.591 0q0-1.602-.925-2.29-.915-.7-2.866-.7H38.36v6.149h2.516q1.815 0 2.82-.711 1.016-.721 1.016-2.448m15.808.44q0 1.817-.767 2.888-.767 1.072-2.11 1.546-1.343.462-3.068.463H52.5V385h-1.444v-15.502h3.677q2.664 0 4.22 1.14 1.568 1.128 1.568 3.531m-1.58.034q0-1.32-.53-2.076a2.8 2.8 0 0 0-1.41-1.072q-.88-.327-1.963-.327H52.5v7.085h2.38q1.162 0 2.076-.293a2.75 2.75 0 0 0 1.444-1.083q.542-.79.542-2.234m10.98-4.919q1.479 0 2.46.372a6.8 6.8 0 0 1 1.884 1.083l-.88 1.005q-.756-.643-1.59-.892a5.7 5.7 0 0 0-1.716-.259q-1.354 0-2.527.62-1.161.621-1.873 2.076-.71 1.445-.71 3.96 0 2.449.677 3.904.675 1.456 1.816 2.098 1.15.643 2.55.643 1.342 0 2.2-.383a6.2 6.2 0 0 0 1.478-.892l.812 1.038q-.654.633-1.76 1.106-1.095.463-2.708.463a6.26 6.26 0 0 1-3.317-.914q-1.488-.926-2.369-2.697-.88-1.782-.88-4.366 0-2.618.891-4.388.903-1.772 2.37-2.674a6 6 0 0 1 3.192-.903m31.324 11.497q0 1.952-1.421 3.204-1.422 1.24-4.05 1.241a8.5 8.5 0 0 1-2.9-.485 6.6 6.6 0 0 1-2.324-1.422l.947-1.083q.79.756 1.84 1.218 1.049.452 2.515.452.993 0 1.884-.339a3.35 3.35 0 0 0 1.456-1.038q.564-.699.564-1.782 0-.813-.305-1.377-.305-.575-1.083-1.015-.778-.452-2.189-.858a17.5 17.5 0 0 1-2.572-.947q-1.128-.542-1.771-1.354-.643-.823-.643-2.076 0-1.083.587-1.952.597-.869 1.67-1.376 1.07-.508 2.515-.508 1.545 0 2.674.44 1.14.44 2.098 1.264l-.97 1.06a5.3 5.3 0 0 0-1.828-1.105 6 6 0 0 0-1.974-.339q-.891 0-1.647.282-.756.271-1.219.824-.462.552-.462 1.41 0 .722.383 1.252.384.52 1.287.959.913.429 2.46.88 1.127.317 2.154.813a4.27 4.27 0 0 1 1.67 1.376q.654.88.654 2.381m5.35-1.14q.034 1.49.53 2.448.508.948 1.332 1.399a3.7 3.7 0 0 0 1.794.451q.936 0 1.658-.27.733-.271 1.534-.824l.734 1.049a6.4 6.4 0 0 1-1.862.982 6.2 6.2 0 0 1-2.008.35q-1.636 0-2.809-.768-1.162-.767-1.783-2.143-.62-1.388-.62-3.227 0-1.804.631-3.193.633-1.388 1.749-2.166 1.128-.79 2.618-.79 2.155 0 3.373 1.546 1.218 1.534 1.218 4.186 0 .304-.011.553-.011.237-.022.417zm3.531-5.393q-1.433 0-2.414 1.016-.97 1.015-1.094 3.113h6.735q-.045-2.087-.936-3.102-.891-1.027-2.291-1.027M119.449 385v-1.173h1.929v-9.489h-1.929v-1.184h3.001l.259 2.843q.7-1.445 1.67-2.256.981-.825 2.64-.824.462 0 .824.068.372.067.778.169l-.158 3.723h-1.354v-2.313l.023-.293a3 3 0 0 0-.282-.012q-1.433 0-2.437.982-1.005.97-1.636 3.08v5.506h2.437V385zm23.13-11.846L138.168 385h-1.613l-4.355-11.846h1.455l3.768 10.424 3.69-10.424zm5.283 6.487q.033 1.49.53 2.448.507.948 1.331 1.399a3.7 3.7 0 0 0 1.794.451q.936 0 1.658-.27a7 7 0 0 0 1.535-.824l.733 1.049a6.4 6.4 0 0 1-1.861.982 6.2 6.2 0 0 1-2.009.35q-1.636 0-2.809-.768-1.162-.767-1.782-2.143-.621-1.388-.621-3.227 0-1.804.632-3.193.632-1.388 1.749-2.166 1.128-.79 2.617-.79 2.155 0 3.373 1.546 1.22 1.534 1.219 4.186 0 .304-.011.553-.012.237-.023.417zm3.531-5.393q-1.433 0-2.414 1.016-.97 1.015-1.095 3.113h6.736q-.046-2.087-.937-3.102-.89-1.027-2.29-1.027M160.714 385v-1.173h1.929v-9.489h-1.929v-1.184h3.001l.26 2.843q.7-1.445 1.669-2.256.983-.825 2.64-.824.463 0 .824.068.372.067.779.169l-.158 3.723h-1.354v-2.313l.022-.293a3 3 0 0 0-.282-.012q-1.432 0-2.437.982-1.003.97-1.636 3.08v5.506h2.437V385z"/></g></g><rect width="342" height="177" x="1.5" y="337.5" stroke="#D1D1D1" stroke-opacity=".13" stroke-width="3" rx="14.5"/><g clip-path="url(#c)"><g style="mix-blend-mode:hard-light"><rect width="345" height="180" x="385" y="336" fill="#000" fill-opacity=".15" rx="16" style="mix-blend-mode:soft-light"/></g><g style="mix-blend-mode:hard-light"><rect width="239" height="43" x="403" y="357" fill="#0E0D0D" rx="16"/><path fill="#fff" d="m428.664 385-5.867-13.978a10 10 0 0 0 .011.755l.057 1.377q.045.812.067 1.726.034.903.034 1.771V385h-1.421v-15.502h2.064l6.025 14.069q.023-.203-.023-1.049-.044-.846-.101-2.087a73 73 0 0 1-.045-2.629v-8.304h1.421V385zm8.024-5.359q.033 1.49.53 2.448.507.948 1.331 1.399a3.7 3.7 0 0 0 1.794.451q.936 0 1.658-.27a7 7 0 0 0 1.535-.824l.733 1.049a6.4 6.4 0 0 1-1.861.982 6.2 6.2 0 0 1-2.009.35q-1.635 0-2.809-.768-1.162-.767-1.782-2.143-.621-1.388-.621-3.227 0-1.804.632-3.193.632-1.388 1.749-2.166 1.128-.79 2.617-.79 2.155 0 3.373 1.546 1.22 1.534 1.219 4.186 0 .304-.011.553-.011.237-.023.417zm3.531-5.393q-1.433 0-2.414 1.016-.97 1.015-1.095 3.113h6.736q-.046-2.087-.937-3.102-.89-1.027-2.29-1.027m18.245 10.188q-.587.384-1.421.587a6.6 6.6 0 0 1-1.546.203q-1.782 0-2.798-.948-1.004-.947-1.004-2.381v-7.57h-2.798v-1.173h2.798v-2.73l1.399-.17v2.9h4.174l-.191 1.173h-3.983v7.537q0 1.026.553 1.59.564.553 1.884.553.677 0 1.252-.158a5.4 5.4 0 0 0 1.072-.417zm13.112.564h-2.312l-1.693-8.913-1.839 8.913h-2.245l-2.29-11.846h1.546l1.737 10.989 2.087-9.477h2.02l1.985 9.477 1.726-10.989h1.467zm9.694-12.061q2.437 0 3.644 1.67 1.218 1.659 1.219 4.468 0 1.76-.553 3.148-.554 1.387-1.647 2.2-1.083.801-2.697.801-1.624 0-2.719-.768-1.083-.779-1.636-2.154-.541-1.389-.541-3.205 0-1.815.553-3.204.552-1.388 1.647-2.166 1.106-.79 2.73-.79m0 1.23q-1.67 0-2.538 1.207-.858 1.207-.858 3.723 0 4.886 3.362 4.886t3.362-4.908q0-2.493-.846-3.701-.834-1.207-2.482-1.207M490.806 385v-1.173h1.929v-9.489h-1.929v-1.184h3.001l.259 2.843q.7-1.445 1.67-2.256.981-.825 2.64-.824.462 0 .824.068.372.067.778.169l-.158 3.723h-1.354v-2.313l.023-.293a3 3 0 0 0-.282-.012q-1.433 0-2.437.982-1.005.97-1.636 3.08v5.506h2.437V385zm15.199-16.833V385h-1.399v-16.641zm7.976 4.987-5.765 5.359 6.465 6.487h-2.02l-6.419-6.465 5.652-5.381zm27.838 4.118q0 2.313-.621 4.118-.62 1.794-1.861 2.82-1.23 1.016-3.08 1.016-1.84 0-3.08-.993-1.241-1.004-1.862-2.787-.62-1.782-.62-4.14 0-2.325.62-4.13.62-1.816 1.862-2.854 1.24-1.038 3.08-1.038 1.85 0 3.08 1.015 1.241 1.005 1.861 2.81.621 1.794.621 4.163m-1.534 0q0-3.171-.937-4.908-.937-1.749-3.091-1.749t-3.091 1.76-.937 4.931q0 3.159.97 4.873.97 1.716 3.058 1.715 2.144 0 3.08-1.715.948-1.725.948-4.907m14.917-4.118L550.79 385h-1.613l-4.355-11.846h1.456l3.768 10.424 3.689-10.424zm5.282 6.487q.034 1.49.53 2.448.509.948 1.332 1.399a3.7 3.7 0 0 0 1.793.451q.937 0 1.659-.27.733-.271 1.534-.824l.734 1.049a6.4 6.4 0 0 1-1.862.982 6.2 6.2 0 0 1-2.008.35q-1.636 0-2.809-.768-1.162-.767-1.783-2.143-.62-1.388-.62-3.227 0-1.804.631-3.193.632-1.388 1.749-2.166 1.129-.79 2.617-.79 2.156 0 3.374 1.546 1.218 1.534 1.218 4.186 0 .304-.011.553-.011.237-.023.417zm3.531-5.393q-1.433 0-2.414 1.016-.97 1.015-1.094 3.113h6.735q-.045-2.087-.936-3.102-.892-1.027-2.291-1.027M573.337 385v-1.173h1.929v-9.489h-1.929v-1.184h3.001l.259 2.843q.7-1.445 1.67-2.256.981-.825 2.64-.824.462 0 .823.068.373.067.779.169l-.158 3.723h-1.354v-2.313l.023-.293a3 3 0 0 0-.282-.012q-1.434 0-2.437.982-1.005.97-1.636 3.08v5.506h2.437V385zm17.782-16.641v13.956q0 .925.587 1.309.598.383 1.501.383.564 0 1.06-.113.508-.112 1.027-.316l.406 1.084q-.44.213-1.117.383a6 6 0 0 1-1.512.181q-1.399 0-2.38-.756-.97-.768-.97-2.155v-12.738h-3.678v-1.218zm17.659 14.306q0 .721.248 1.06.249.327.768.485l-.384 1.027a2.65 2.65 0 0 1-1.207-.496q-.53-.395-.745-1.208-1.264 1.693-3.655 1.693-1.76 0-2.764-.993-1.005-.993-1.004-2.651 0-1.805 1.399-2.765 1.41-.959 4.095-.959h1.794v-1.15q0-1.387-.801-1.941-.79-.564-2.166-.564-.598 0-1.354.135a11 11 0 0 0-1.681.463l-.406-1.151a12 12 0 0 1 1.94-.553 9.7 9.7 0 0 1 1.704-.158q2.087 0 3.147 1.027 1.072 1.016 1.072 2.697zm-4.704 1.444q.97 0 1.816-.474a4.3 4.3 0 0 0 1.433-1.32v-3.385h-1.963q-2.11 0-2.945.745-.835.733-.835 1.952 0 2.482 2.494 2.482m19.87-10.955-4.231 11.948a12.4 12.4 0 0 1-.948 2.075 5.3 5.3 0 0 1-1.5 1.659q-.937.688-2.437.869l-.248-1.219q1.24-.225 1.94-.677a3.24 3.24 0 0 0 1.106-1.151q.405-.7.722-1.658h-.463l-4.253-11.846h1.512l3.734 10.65 3.61-10.65z"/></g></g><rect width="342" height="177" x="386.5" y="337.5" stroke="#D1D1D1" stroke-opacity=".13" stroke-width="3" rx="14.5"/><g clip-path="url(#d)"><g style="mix-blend-mode:hard-light"><rect width="345" height="180" x="770" y="336" fill="#000" fill-opacity=".15" rx="16" style="mix-blend-mode:soft-light"/></g><g style="mix-blend-mode:hard-light"><rect width="156" height="43" x="781" y="358" fill="#0E0D0D" rx="16"/><path fill="#fff" d="M808.234 370.498v1.23h-3.52v13.042h3.52V386h-8.506v-1.23h3.52v-13.042h-3.52v-1.23zm10.281 14.441q.947 0 1.748-.293a6 6 0 0 0 1.467-.756l.733.948a5.8 5.8 0 0 1-1.861 1.027q-1.083.36-2.031.361-2.583 0-3.983-1.659-1.398-1.658-1.398-4.445 0-1.76.62-3.159.631-1.4 1.828-2.211 1.207-.813 2.944-.813 2.178 0 3.848 1.343l-.745 1.004q-1.613-1.105-3.17-1.105-1.637 0-2.708 1.241-1.06 1.24-1.061 3.7 0 2.482 1.061 3.655 1.071 1.162 2.708 1.162m9.693-4.298q.035 1.49.531 2.448.507.948 1.331 1.399a3.7 3.7 0 0 0 1.794.451q.936 0 1.658-.27.733-.271 1.534-.824l.734 1.049a6.4 6.4 0 0 1-1.862.982 6.2 6.2 0 0 1-2.008.35q-1.636 0-2.809-.768-1.162-.767-1.783-2.143-.62-1.388-.62-3.227 0-1.804.632-3.193.632-1.388 1.748-2.166 1.128-.79 2.618-.79 2.155 0 3.373 1.546 1.218 1.534 1.218 4.186 0 .304-.011.553-.011.237-.022.417zm3.532-5.393q-1.433 0-2.415 1.016-.97 1.015-1.094 3.113h6.735q-.045-2.087-.936-3.102-.891-1.027-2.29-1.027m11.487-3.463v5.832h6.273v1.253h-6.273V386h-1.422v-15.502h8.812l-.192 1.287zm15.786-2.99q.542 0 .857.327.316.327.316.79 0 .496-.316.835-.315.327-.857.327-.508 0-.824-.327a1.18 1.18 0 0 1-.316-.835 1.1 1.1 0 0 1 1.14-1.117m1.32 5.359v10.628h3.441V386h-8.586v-1.218h3.746v-9.41h-3.633v-1.218zM868.571 386v-1.173h1.929v-9.489h-1.929v-1.184h3.001l.26 2.843q.7-1.445 1.669-2.256.982-.825 2.64-.824.463 0 .824.068.373.067.778.169l-.157 3.723h-1.354v-2.313l.022-.293a3 3 0 0 0-.282-.012q-1.432 0-2.437.982-1.003.97-1.636 3.08v5.506h2.437V386zm14.658-5.359q.033 1.49.53 2.448.508.948 1.331 1.399a3.7 3.7 0 0 0 1.794.451q.937 0 1.659-.27.733-.271 1.534-.824l.733 1.049a6.4 6.4 0 0 1-1.861.982 6.2 6.2 0 0 1-2.008.35q-1.636 0-2.81-.768-1.161-.767-1.782-2.143-.621-1.388-.621-3.227 0-1.804.632-3.193.632-1.388 1.749-2.166 1.129-.79 2.617-.79 2.155 0 3.374 1.546 1.218 1.534 1.218 4.186 0 .304-.011.553-.012.237-.023.417zm3.531-5.393q-1.433 0-2.414 1.016-.97 1.015-1.095 3.113h6.736q-.045-2.087-.937-3.102-.89-1.027-2.29-1.027m19.058 2.922q0 1.963-.418 3.34-.417 1.365-1.128 2.256a5.2 5.2 0 0 1-1.591 1.365 6.5 6.5 0 0 1-1.861.677 9.5 9.5 0 0 1-1.862.192h-3.362v-15.502h3.125q1.32 0 2.584.305a5.6 5.6 0 0 1 2.279 1.117q1.026.812 1.625 2.324.609 1.5.609 3.926m-1.568 0q0-2.166-.485-3.441-.474-1.286-1.241-1.918a4 4 0 0 0-1.659-.835 7.6 7.6 0 0 0-1.704-.203h-2.132v12.986h2.166q.858 0 1.738-.271.89-.27 1.636-.981.756-.711 1.218-1.997.463-1.297.463-3.34m14.962 3.441q0 1.242-.496 2.087a3.85 3.85 0 0 1-1.32 1.354 5.8 5.8 0 0 1-1.817.734 9.5 9.5 0 0 1-2.008.214h-3.87v-15.502h3.486q.971 0 1.918.181.948.18 1.715.62.779.44 1.241 1.196.474.756.474 1.896 0 1.015-.417 1.715a3.3 3.3 0 0 1-1.083 1.117q-.655.405-1.388.564a6.2 6.2 0 0 1 1.681.541q.823.384 1.354 1.174.53.779.53 2.109m-2.166-7.198q0-1.443-.891-2.042-.892-.609-2.358-.609h-2.663v5.449h2.877q1.433 0 2.234-.665.801-.666.801-2.133m.62 7.334q0-1.287-.496-1.963a2.5 2.5 0 0 0-1.309-.948 5.6 5.6 0 0 0-1.737-.26h-2.99v6.127h2.922q.576 0 1.207-.113a3.8 3.8 0 0 0 1.174-.44 2.4 2.4 0 0 0 .891-.892q.338-.587.338-1.511"/></g></g><rect width="342" height="177" x="771.5" y="337.5" stroke="#D1D1D1" stroke-opacity=".13" stroke-width="3" rx="14.5"/><g clip-path="url(#e)"><g style="mix-blend-mode:hard-light"><rect width="345" height="180" x="1155" y="336" fill="#000" fill-opacity=".15" rx="16" style="mix-blend-mode:soft-light"/></g><g style="mix-blend-mode:hard-light"><rect width="142" height="43" x="1173" y="357" fill="#0E0D0D" rx="16"/><path fill="#fff" d="M1197.17 369.284q1.47 0 2.46.372c.65.241 1.28.602 1.88 1.083l-.88 1.005a4.3 4.3 0 0 0-1.59-.892 5.7 5.7 0 0 0-1.71-.259c-.91 0-1.75.207-2.53.62s-1.4 1.106-1.87 2.076q-.72 1.445-.72 3.96c0 1.632.23 2.934.68 3.904s1.06 1.67 1.82 2.098c.77.429 1.61.643 2.55.643.89 0 1.63-.128 2.2-.383a6.3 6.3 0 0 0 1.48-.892l.81 1.038c-.44.422-1.03.79-1.76 1.106-.73.308-1.63.463-2.71.463-1.21 0-2.32-.305-3.32-.914q-1.485-.926-2.37-2.697c-.58-1.188-.88-2.643-.88-4.366q0-2.618.9-4.388c.6-1.181 1.39-2.073 2.36-2.674a6.03 6.03 0 0 1 3.2-.903m12.48 3.655c1.62 0 2.84.557 3.64 1.67.81 1.106 1.22 2.595 1.22 4.468 0 1.173-.18 2.222-.55 3.148q-.555 1.387-1.65 2.2-1.08.801-2.7.801c-1.08 0-1.99-.256-2.72-.768-.72-.519-1.26-1.237-1.63-2.154q-.54-1.389-.54-3.205c0-1.21.18-2.278.55-3.204q.555-1.388 1.65-2.166 1.095-.79 2.73-.79m0 1.23c-1.12 0-1.96.403-2.54 1.207-.57.805-.86 2.046-.86 3.723q0 4.886 3.36 4.886c2.25 0 3.37-1.636 3.37-4.908 0-1.662-.29-2.896-.85-3.701-.56-.804-1.38-1.207-2.48-1.207m13.23 9.782q1.515 0 2.37-.576.87-.586.87-1.534c0-.391-.06-.73-.19-1.015-.12-.294-.39-.553-.8-.779q-.615-.35-1.89-.654a16 16 0 0 1-2.21-.7c-.61-.255-1.09-.59-1.43-1.004q-.51-.62-.51-1.647c0-.654.19-1.211.56-1.67q.555-.7 1.53-1.06c.65-.248 1.39-.373 2.21-.373.93 0 1.73.125 2.42.373s1.27.549 1.73.902l-.65 1.038a6.5 6.5 0 0 0-1.46-.767c-.53-.203-1.21-.304-2.03-.304-1.04 0-1.78.165-2.2.496q-.63.496-.63 1.252c0 .391.1.715.31.97q.315.374 1.02.666.72.282 1.92.609c.77.203 1.45.448 2.03.734q.87.429 1.35 1.117c.33.458.49 1.053.49 1.782 0 .835-.24 1.504-.71 2.008-.47.497-1.07.858-1.81 1.083-.73.219-1.5.328-2.3.328-1.04 0-1.93-.155-2.65-.463-.71-.308-1.31-.669-1.78-1.083l.87-1.027c.46.391 1 .707 1.61.948.61.233 1.26.35 1.96.35m17.47-11.012c.32 0 .66.076 1 .226.35.143.64.444.88.903.25.458.37 1.158.37 2.098V385h-1.38v-8.563q0-1.264-.15-1.828c-.09-.376-.37-.564-.85-.564-.41 0-.81.128-1.21.384-.39.248-.77.658-1.12 1.229V385h-1.56v-8.563c0-.842-.04-1.452-.14-1.828-.09-.376-.38-.564-.86-.564a2.2 2.2 0 0 0-1.22.384c-.38.248-.75.658-1.1 1.229V385h-1.36v-11.846h1.15l.08 1.433c.31-.444.67-.828 1.07-1.151.42-.331.93-.497 1.54-.497.45 0 .89.11 1.31.328.43.21.74.639.94 1.286.31-.482.67-.869 1.07-1.162.39-.301.91-.452 1.54-.452m17.14-3.441L1254.96 385h-2.19l-1.97-11.88-1.95 11.88h-2.26l-2.32-15.502h1.51l2 13.652 2.03-11.846h2.16l1.94 11.846 2.18-13.652zm10.89 13.167c0 .481.08.834.25 1.06.16.218.42.38.77.485l-.39 1.027a2.7 2.7 0 0 1-1.21-.496c-.35-.264-.6-.666-.74-1.208q-1.26 1.693-3.66 1.693-1.755 0-2.76-.993c-.67-.662-1-1.546-1-2.651 0-1.204.46-2.125 1.4-2.765.94-.639 2.3-.959 4.09-.959h1.79v-1.15c0-.925-.26-1.572-.8-1.941q-.78-.564-2.16-.564c-.4 0-.85.045-1.36.135q-.75.136-1.68.463l-.4-1.151c.71-.263 1.36-.447 1.94-.553a9.6 9.6 0 0 1 1.7-.158q2.085 0 3.15 1.027c.71.677 1.07 1.576 1.07 2.697zm-4.7 1.444c.64 0 1.25-.158 1.81-.474a4.2 4.2 0 0 0 1.43-1.32v-3.385h-1.96c-1.4 0-2.39.248-2.94.745q-.84.733-.84 1.952c0 1.654.83 2.482 2.5 2.482m14.22-.158q1.515 0 2.37-.576.87-.586.87-1.534c0-.391-.06-.73-.19-1.015-.12-.294-.39-.553-.8-.779-.41-.233-1.03-.451-1.88-.654q-1.275-.316-2.22-.7c-.61-.255-1.09-.59-1.43-1.004q-.51-.62-.51-1.647c0-.654.19-1.211.56-1.67q.555-.7 1.53-1.06c.66-.248 1.39-.373 2.21-.373.93 0 1.73.125 2.42.373s1.27.549 1.73.902l-.65 1.038a6.5 6.5 0 0 0-1.46-.767c-.53-.203-1.21-.304-2.03-.304-1.04 0-1.78.165-2.2.496q-.63.496-.63 1.252c0 .391.1.715.31.97q.315.374 1.02.666.72.282 1.92.609c.78.203 1.45.448 2.03.734s1.03.658 1.36 1.117q.48.688.48 1.782c0 .835-.24 1.504-.71 2.008-.47.497-1.07.858-1.81 1.083-.73.219-1.5.328-2.3.328-1.04 0-1.93-.155-2.65-.463-.71-.308-1.31-.669-1.78-1.083l.87-1.027c.46.391 1 .707 1.61.948.61.233 1.26.35 1.96.35m17.47-11.012c.32 0 .66.076 1.01.226.34.143.63.444.88.903q.36.688.36 2.098V385h-1.38v-8.563q0-1.264-.15-1.828c-.09-.376-.37-.564-.85-.564-.41 0-.81.128-1.21.384-.39.248-.76.658-1.12 1.229V385h-1.56v-8.563c0-.842-.04-1.452-.14-1.828-.09-.376-.38-.564-.86-.564a2.2 2.2 0 0 0-1.22.384c-.38.248-.75.658-1.1 1.229V385h-1.36v-11.846h1.15l.08 1.433c.31-.444.67-.828 1.07-1.151.42-.331.93-.497 1.54-.497.45 0 .89.11 1.31.328.43.21.74.639.95 1.286.3-.482.66-.869 1.06-1.162.39-.301.91-.452 1.54-.452"/></g></g><rect width="342" height="177" x="1156.5" y="337.5" stroke="#D1D1D1" stroke-opacity=".13" stroke-width="3" rx="14.5"/><g clip-path="url(#f)"><g style="mix-blend-mode:hard-light"><rect width="1500" height="180" y="648" fill="#000" fill-opacity=".15" rx="16" style="mix-blend-mode:soft-light"/></g><g style="mix-blend-mode:hard-light"><rect width="239" height="43" x="18" y="669" fill="#0E0D0D" rx="16"/><path fill="#fff" d="M46.338 692.781q0 1.952-1.422 3.204-1.422 1.24-4.05 1.241a8.5 8.5 0 0 1-2.9-.485 6.6 6.6 0 0 1-2.324-1.422l.948-1.083q.79.756 1.839 1.218 1.05.452 2.516.452.993 0 1.884-.339a3.35 3.35 0 0 0 1.455-1.038q.564-.699.564-1.782 0-.813-.304-1.377-.305-.575-1.083-1.015-.78-.452-2.189-.858a17.5 17.5 0 0 1-2.572-.947q-1.129-.542-1.772-1.354-.643-.823-.643-2.076 0-1.083.587-1.952.598-.869 1.67-1.376 1.071-.508 2.516-.508 1.545 0 2.673.44 1.14.44 2.099 1.264l-.97 1.06a5.3 5.3 0 0 0-1.828-1.105 6 6 0 0 0-1.974-.339q-.892 0-1.648.282-.755.271-1.218.824t-.463 1.41q0 .722.384 1.252.383.52 1.286.959.915.429 2.46.88 1.128.316 2.154.813a4.27 4.27 0 0 1 1.67 1.376q.655.88.655 2.381m8.667-7.842q2.436 0 3.644 1.67 1.218 1.659 1.218 4.468 0 1.76-.553 3.148-.552 1.387-1.647 2.2-1.083.801-2.696.801-1.625 0-2.72-.768-1.082-.779-1.635-2.154-.542-1.389-.542-3.205 0-1.815.553-3.204.553-1.388 1.647-2.166 1.106-.79 2.73-.79m0 1.23q-1.67 0-2.539 1.207-.858 1.207-.857 3.723 0 4.886 3.362 4.886t3.362-4.908q0-2.493-.846-3.701-.835-1.207-2.482-1.207M64.427 697v-11.846h1.174l.113 1.726q.7-.925 1.838-1.433 1.151-.507 2.144-.508 1.816 0 2.584.926.778.924.778 2.561V697H71.66v-7.074q0-1.353-.147-2.2-.146-.846-.631-1.23-.486-.394-1.523-.394-.79 0-1.49.349a4.9 4.9 0 0 0-1.218.846q-.519.497-.824.971V697zm13.868 0v-1.173h1.93v-9.489h-1.93v-1.184h3.001l.26 2.843q.7-1.445 1.67-2.256.981-.824 2.64-.824.462 0 .823.068.372.067.779.169l-.158 3.723h-1.354v-2.313l.022-.293a3 3 0 0 0-.282-.012q-1.432 0-2.436.982-1.005.97-1.636 3.08v5.506h2.437V697zm36.886-4.389q0 1.242-.496 2.087a3.85 3.85 0 0 1-1.32 1.354 5.8 5.8 0 0 1-1.817.734 9.5 9.5 0 0 1-2.008.214h-3.87v-15.502h3.486q.971 0 1.918.181.948.18 1.715.62.779.44 1.241 1.196.474.756.474 1.896 0 1.015-.417 1.715a3.3 3.3 0 0 1-1.083 1.117q-.655.405-1.388.564a6.2 6.2 0 0 1 1.681.541q.823.384 1.354 1.174.53.779.53 2.109m-2.166-7.198q0-1.443-.891-2.042-.892-.609-2.358-.609h-2.663v5.449h2.877q1.433 0 2.234-.665.801-.666.801-2.133m.62 7.334q0-1.287-.496-1.963a2.5 2.5 0 0 0-1.309-.948 5.6 5.6 0 0 0-1.737-.26h-2.99v6.127h2.922q.576 0 1.207-.113a3.8 3.8 0 0 0 1.174-.44 2.4 2.4 0 0 0 .891-.892q.338-.587.338-1.511m9.954-12.388v13.956q0 .925.586 1.309.598.383 1.501.383.564 0 1.06-.113.508-.112 1.027-.316l.406 1.084q-.44.213-1.117.383a6 6 0 0 1-1.512.181q-1.399 0-2.38-.756-.97-.768-.97-2.155v-12.738h-3.678v-1.218zm13.946 4.58q2.438 0 3.645 1.67 1.218 1.659 1.218 4.468 0 1.76-.553 3.148-.552 1.387-1.647 2.2-1.083.801-2.696.801-1.625 0-2.719-.768-1.083-.779-1.636-2.154-.542-1.389-.542-3.205 0-1.815.553-3.204.554-1.388 1.647-2.166 1.106-.79 2.73-.79m0 1.23q-1.67 0-2.538 1.207-.857 1.207-.857 3.723 0 4.886 3.362 4.886t3.362-4.908q0-2.493-.846-3.701-.835-1.207-2.483-1.207m14.5 9.77a5 5 0 0 0 1.749-.293 6 6 0 0 0 1.467-.756l.733.948a5.8 5.8 0 0 1-1.862 1.027q-1.083.36-2.03.361-2.584 0-3.983-1.659-1.4-1.658-1.399-4.445 0-1.76.621-3.159.631-1.4 1.827-2.211 1.208-.813 2.945-.813 2.178 0 3.847 1.343l-.744 1.004q-1.614-1.105-3.171-1.105-1.636 0-2.707 1.241-1.06 1.24-1.061 3.7 0 2.482 1.061 3.655 1.071 1.162 2.707 1.162m10.235-15.772V697h-1.399v-16.641zm7.977 4.987-5.765 5.359 6.464 6.487h-2.019l-6.42-6.465 5.653-5.381zm9.299 10.785q.947 0 1.748-.293a6 6 0 0 0 1.467-.756l.733.948a5.8 5.8 0 0 1-1.861 1.027q-1.083.36-2.031.361-2.583 0-3.983-1.659-1.399-1.658-1.399-4.445 0-1.76.621-3.159.631-1.4 1.828-2.211 1.207-.813 2.944-.813 2.178 0 3.847 1.343l-.744 1.004q-1.614-1.105-3.17-1.105-1.637 0-2.708 1.241-1.06 1.24-1.061 3.7 0 2.482 1.061 3.655 1.071 1.162 2.708 1.162m10.077-15.715v6.679a4.4 4.4 0 0 1 1.749-1.467q1.06-.497 2.121-.497 1.782 0 2.572.926.79.924.79 2.561V697h-1.399v-8.823q0-2.075-2.324-2.075-.768 0-1.456.338a5 5 0 0 0-1.218.835 5 5 0 0 0-.835.959V697h-1.399v-16.607zm20.4 14.441q0 .721.248 1.06.248.327.767.485l-.383 1.027a2.65 2.65 0 0 1-1.207-.496q-.53-.395-.745-1.208-1.264 1.693-3.655 1.693-1.76 0-2.764-.993-1.005-.993-1.005-2.651 0-1.805 1.399-2.765 1.411-.959 4.096-.959h1.794v-1.15q0-1.387-.801-1.941-.79-.564-2.166-.564-.598 0-1.354.135-.757.136-1.681.463l-.407-1.151a12 12 0 0 1 1.941-.553 9.7 9.7 0 0 1 1.704-.158q2.087 0 3.147 1.027 1.072 1.016 1.072 2.697zm-4.705 1.444q.97 0 1.817-.474a4.3 4.3 0 0 0 1.433-1.32v-3.385h-1.963q-2.11 0-2.945.745-.835.733-.835 1.952 0 2.481 2.493 2.482m14.726-16.314q.542 0 .857.327.316.327.316.79 0 .496-.316.835-.315.327-.857.327-.508 0-.824-.327a1.18 1.18 0 0 1-.316-.835 1.1 1.1 0 0 1 1.14-1.117m1.32 5.359v10.628h3.441V697h-8.586v-1.218h3.746v-9.41h-3.633v-1.218zM229.489 697v-11.846h1.174l.112 1.726q.7-.925 1.839-1.433 1.151-.507 2.144-.508 1.816 0 2.584.926.778.924.778 2.561V697h-1.399v-7.074q0-1.353-.147-2.2-.146-.846-.631-1.23-.486-.394-1.523-.394a3.3 3.3 0 0 0-1.49.349 4.9 4.9 0 0 0-1.218.846 5.4 5.4 0 0 0-.824.971V697z"/></g></g><rect width="1497" height="177" x="1.5" y="649.5" stroke="#D1D1D1" stroke-opacity=".13" stroke-width="3" rx="14.5"/><path stroke="#2BC0F6" stroke-dasharray="6 6" stroke-width="4" d="M77 648V516m395 132V516m393 132V516m379 132V516M77 336V204m395 132V204m393 132V204m379 132V204" style="mix-blend-mode:hard-light"/><path fill="#2BC0F6" d="M94.754 251.548q-1.154 0-1.953-.777-.777-.798-.777-1.953t.777-1.932q.778-.777 1.953-.777t1.953.777q.777.777.777 1.953 0 1.155-.777 1.932t-1.953.777M111.403 256l3.99-5.838-3.549-5.25h2.709l2.268 3.906 2.268-3.906h2.583l-3.465 5.145 3.99 5.943h-2.751l-2.73-4.536-2.709 4.536zm12.613 1.386 8.904-18.438 1.848.861-8.883 18.417zm17.569-2.898q1.113 0 1.743-.399.651-.399.651-1.092 0-.483-.189-.777-.189-.315-.756-.567-.567-.273-1.701-.567-1.827-.462-2.751-1.176-.903-.735-.903-2.1 0-1.449 1.197-2.31 1.197-.882 3.234-.882 2.457 0 4.221 1.281l-1.008 1.491q-1.491-.987-3.15-.987-2.1 0-2.1 1.218 0 .42.231.693.252.273.84.525.588.231 1.743.546 1.806.504 2.688 1.239.903.735.903 2.205 0 1.701-1.407 2.583-1.407.861-3.486.861-2.751 0-4.557-1.554l1.239-1.428q.693.546 1.533.882.861.315 1.785.315m10.512-3.276q.105 1.617.924 2.436.84.798 2.1.798.777 0 1.47-.231a6.7 6.7 0 0 0 1.449-.735l1.008 1.428a5.6 5.6 0 0 1-1.827 1.008q-1.05.357-2.205.357-2.541 0-3.948-1.575-1.407-1.596-1.407-4.242 0-1.659.609-2.982.609-1.344 1.764-2.1t2.688-.756q2.205 0 3.486 1.491 1.302 1.47 1.302 4.053 0 .63-.063 1.05zm2.646-4.851q-1.134 0-1.848.819t-.819 2.436h5.145q-.042-1.575-.672-2.415t-1.806-.84m15.847-1.722q.861 0 1.68.273l-.399 4.095h-1.68v-2.268q-1.155.021-2.016.924-.84.903-1.344 2.541v4.116h2.226V256h-6.216v-1.68h1.638v-7.728h-1.638v-1.68h3.423l.42 2.562q.651-1.428 1.575-2.121.945-.714 2.331-.714M181.124 256h-2.73l-3.927-11.088h2.541l2.793 9.135 2.835-9.135h2.415zm11.227-16.527q.672 0 1.092.441.441.42.441 1.05t-.441 1.05q-.42.42-1.092.42-.693 0-1.113-.42t-.42-1.05q0-.651.42-1.071.441-.42 1.113-.42m1.617 14.805h3.024V256h-8.673v-1.722h3.297v-7.644h-3.192v-1.722h5.544zm11.899.063q1.323 0 2.73-.945l1.071 1.512a5.7 5.7 0 0 1-1.764 1.008 6.4 6.4 0 0 1-2.121.357q-2.541 0-3.969-1.554-1.428-1.575-1.428-4.2 0-1.701.651-3.024a4.95 4.95 0 0 1 1.869-2.1q1.239-.777 2.919-.777 2.205 0 3.843 1.344l-1.092 1.47q-1.344-.924-2.709-.924-1.386 0-2.184 1.008-.798.987-.798 3.003 0 1.974.798 2.898t2.184.924m9.189-3.129q.105 1.617.924 2.436.84.798 2.1.798.777 0 1.47-.231a6.7 6.7 0 0 0 1.449-.735l1.008 1.428a5.6 5.6 0 0 1-1.827 1.008q-1.05.357-2.205.357-2.541 0-3.948-1.575-1.407-1.596-1.407-4.242 0-1.659.609-2.982.609-1.344 1.764-2.1t2.688-.756q2.205 0 3.486 1.491 1.302 1.47 1.302 4.053 0 .63-.063 1.05zm2.646-4.851q-1.134 0-1.848.819t-.819 2.436h5.145q-.042-1.575-.672-2.415t-1.806-.84"/><path fill="#000" fill-opacity=".2" d="M94.754 251.548q-1.154 0-1.953-.777-.777-.798-.777-1.953t.777-1.932q.778-.777 1.953-.777t1.953.777q.777.777.777 1.953 0 1.155-.777 1.932t-1.953.777M111.403 256l3.99-5.838-3.549-5.25h2.709l2.268 3.906 2.268-3.906h2.583l-3.465 5.145 3.99 5.943h-2.751l-2.73-4.536-2.709 4.536zm12.613 1.386 8.904-18.438 1.848.861-8.883 18.417zm17.569-2.898q1.113 0 1.743-.399.651-.399.651-1.092 0-.483-.189-.777-.189-.315-.756-.567-.567-.273-1.701-.567-1.827-.462-2.751-1.176-.903-.735-.903-2.1 0-1.449 1.197-2.31 1.197-.882 3.234-.882 2.457 0 4.221 1.281l-1.008 1.491q-1.491-.987-3.15-.987-2.1 0-2.1 1.218 0 .42.231.693.252.273.84.525.588.231 1.743.546 1.806.504 2.688 1.239.903.735.903 2.205 0 1.701-1.407 2.583-1.407.861-3.486.861-2.751 0-4.557-1.554l1.239-1.428q.693.546 1.533.882.861.315 1.785.315m10.512-3.276q.105 1.617.924 2.436.84.798 2.1.798.777 0 1.47-.231a6.7 6.7 0 0 0 1.449-.735l1.008 1.428a5.6 5.6 0 0 1-1.827 1.008q-1.05.357-2.205.357-2.541 0-3.948-1.575-1.407-1.596-1.407-4.242 0-1.659.609-2.982.609-1.344 1.764-2.1t2.688-.756q2.205 0 3.486 1.491 1.302 1.47 1.302 4.053 0 .63-.063 1.05zm2.646-4.851q-1.134 0-1.848.819t-.819 2.436h5.145q-.042-1.575-.672-2.415t-1.806-.84m15.847-1.722q.861 0 1.68.273l-.399 4.095h-1.68v-2.268q-1.155.021-2.016.924-.84.903-1.344 2.541v4.116h2.226V256h-6.216v-1.68h1.638v-7.728h-1.638v-1.68h3.423l.42 2.562q.651-1.428 1.575-2.121.945-.714 2.331-.714M181.124 256h-2.73l-3.927-11.088h2.541l2.793 9.135 2.835-9.135h2.415zm11.227-16.527q.672 0 1.092.441.441.42.441 1.05t-.441 1.05q-.42.42-1.092.42-.693 0-1.113-.42t-.42-1.05q0-.651.42-1.071.441-.42 1.113-.42m1.617 14.805h3.024V256h-8.673v-1.722h3.297v-7.644h-3.192v-1.722h5.544zm11.899.063q1.323 0 2.73-.945l1.071 1.512a5.7 5.7 0 0 1-1.764 1.008 6.4 6.4 0 0 1-2.121.357q-2.541 0-3.969-1.554-1.428-1.575-1.428-4.2 0-1.701.651-3.024a4.95 4.95 0 0 1 1.869-2.1q1.239-.777 2.919-.777 2.205 0 3.843 1.344l-1.092 1.47q-1.344-.924-2.709-.924-1.386 0-2.184 1.008-.798.987-.798 3.003 0 1.974.798 2.898t2.184.924m9.189-3.129q.105 1.617.924 2.436.84.798 2.1.798.777 0 1.47-.231a6.7 6.7 0 0 0 1.449-.735l1.008 1.428a5.6 5.6 0 0 1-1.827 1.008q-1.05.357-2.205.357-2.541 0-3.948-1.575-1.407-1.596-1.407-4.242 0-1.659.609-2.982.609-1.344 1.764-2.1t2.688-.756q2.205 0 3.486 1.491 1.302 1.47 1.302 4.053 0 .63-.063 1.05zm2.646-4.851q-1.134 0-1.848.819t-.819 2.436h5.145q-.042-1.575-.672-2.415t-1.806-.84"/><path fill="#2BC0F6" d="M489.754 244.548q-1.155 0-1.953-.777-.777-.798-.777-1.953t.777-1.932 1.953-.777 1.953.777.777 1.953q0 1.155-.777 1.932t-1.953.777m27.59-5.481q0 2.436-1.512 3.612-1.512 1.155-4.137 1.155h-1.764V249h-2.415v-14.49h4.011q2.793 0 4.305 1.155 1.512 1.134 1.512 3.402m-2.541 0q0-2.73-3.108-2.73h-1.764v5.649h1.785q1.47 0 2.268-.672.819-.672.819-2.247m13.642 7.224q0 .63.189.945.189.294.651.441l-.546 1.596q-1.743-.21-2.289-1.533a3.94 3.94 0 0 1-1.533 1.155 5.1 5.1 0 0 1-1.995.378q-1.68 0-2.667-.945t-.987-2.499q0-1.743 1.365-2.688 1.386-.945 3.906-.945h1.575v-.714q0-1.05-.63-1.533t-1.827-.483a7.5 7.5 0 0 0-1.365.147q-.777.147-1.575.42l-.588-1.659q1.995-.756 3.885-.756 2.205 0 3.318.966t1.113 2.751zm-4.83 1.26q.735 0 1.407-.378a2.8 2.8 0 0 0 1.092-1.05v-2.457h-1.302q-1.596 0-2.331.546-.735.525-.735 1.533 0 .882.462 1.344.483.462 1.407.462m12.97-.063q1.113 0 1.743-.399.651-.399.651-1.092 0-.483-.189-.777-.189-.315-.756-.567-.567-.273-1.701-.567-1.827-.462-2.751-1.176-.903-.735-.903-2.1 0-1.449 1.197-2.31 1.197-.882 3.234-.882 2.457 0 4.221 1.281l-1.008 1.491q-1.491-.987-3.15-.987-2.1 0-2.1 1.218 0 .42.231.693.252.273.84.525.588.231 1.743.546 1.806.504 2.688 1.239.903.735.903 2.205 0 1.701-1.407 2.583-1.407.861-3.486.861-2.751 0-4.557-1.554l1.239-1.428q.693.546 1.533.882.861.315 1.785.315m12.591 0q1.113 0 1.743-.399.651-.399.651-1.092 0-.483-.189-.777-.189-.315-.756-.567-.567-.273-1.701-.567-1.827-.462-2.751-1.176-.903-.735-.903-2.1 0-1.449 1.197-2.31 1.197-.882 3.234-.882 2.457 0 4.221 1.281l-1.008 1.491q-1.491-.987-3.15-.987-2.1 0-2.1 1.218 0 .42.231.693.252.273.84.525.588.231 1.743.546 1.806.504 2.688 1.239.903.735.903 2.205 0 1.701-1.407 2.583-1.407.861-3.486.861-2.751 0-4.557-1.554l1.239-1.428q.693.546 1.533.882.861.315 1.785.315m8.539 1.512v-14.49h2.436V249zm7.56-14.49h2.688l-5.061 6.594 5.46 7.896h-2.919l-5.187-7.749zm7.006 9.702q.105 1.617.924 2.436.84.798 2.1.798.777 0 1.47-.231a6.7 6.7 0 0 0 1.449-.735l1.008 1.428a5.6 5.6 0 0 1-1.827 1.008q-1.05.357-2.205.357-2.541 0-3.948-1.575-1.407-1.596-1.407-4.242 0-1.659.609-2.982.609-1.344 1.764-2.1t2.688-.756q2.205 0 3.486 1.491 1.302 1.47 1.302 4.053 0 .63-.063 1.05zm2.646-4.851q-1.134 0-1.848.819t-.819 2.436h5.145q-.042-1.575-.672-2.415t-1.806-.84m13.873 9.681q-.672 2.016-1.953 3.15-1.26 1.155-3.486 1.344l-.294-1.764q1.092-.168 1.764-.525a3 3 0 0 0 1.071-.861q.399-.525.714-1.386h-.798l-3.738-11.088h2.499l2.793 9.45 2.835-9.45h2.415zm10.744-1.554q1.113 0 1.743-.399.651-.399.651-1.092 0-.483-.189-.777-.189-.315-.756-.567-.567-.273-1.701-.567-1.827-.462-2.751-1.176-.903-.735-.903-2.1 0-1.449 1.197-2.31 1.197-.882 3.234-.882 2.457 0 4.221 1.281l-1.008 1.491q-1.491-.987-3.15-.987-2.1 0-2.1 1.218 0 .42.231.693.252.273.84.525.588.231 1.743.546 1.806.504 2.688 1.239.903.735.903 2.205 0 1.701-1.407 2.583-1.407.861-3.486.861-2.751 0-4.557-1.554l1.239-1.428q.693.546 1.533.882.861.315 1.785.315m7.614 2.898 8.904-18.438 1.848.861-8.883 18.417zM629.389 249h-2.856l-1.428-10.731L623.614 249h-2.898l-1.848-14.49h2.352l1.134 12.138 1.554-10.458h2.499l1.449 10.458 1.344-12.138h2.184zm5.851-4.788q.105 1.617.924 2.436.84.798 2.1.798.777 0 1.47-.231a6.7 6.7 0 0 0 1.449-.735l1.008 1.428a5.6 5.6 0 0 1-1.827 1.008q-1.05.357-2.205.357-2.541 0-3.948-1.575-1.407-1.596-1.407-4.242 0-1.659.609-2.982.609-1.344 1.764-2.1t2.688-.756q2.205 0 3.486 1.491 1.302 1.47 1.302 4.053 0 .63-.063 1.05zm2.646-4.851q-1.134 0-1.848.819t-.819 2.436h5.145q-.042-1.575-.672-2.415t-1.806-.84m10.345-.126a4 4 0 0 1 1.344-1.197 3.6 3.6 0 0 1 1.701-.42q2.121 0 3.129 1.533t1.008 4.284q0 2.604-1.176 4.221-1.155 1.617-3.255 1.617-1.848 0-2.898-1.365l-.126 1.092h-2.079v-15.54l2.352-.273zm2.184 8.253q1.218 0 1.848-.987.651-1.008.651-3.045 0-2.1-.588-3.066-.567-.966-1.701-.966-.714 0-1.344.441a4 4 0 0 0-1.05 1.155v5.187q.84 1.281 2.184 1.281m16.54-1.197q0 .63.189.945.189.294.651.441l-.546 1.596q-1.743-.21-2.289-1.533a3.94 3.94 0 0 1-1.533 1.155 5.1 5.1 0 0 1-1.995.378q-1.68 0-2.667-.945t-.987-2.499q0-1.743 1.365-2.688 1.386-.945 3.906-.945h1.575v-.714q0-1.05-.63-1.533t-1.827-.483a7.5 7.5 0 0 0-1.365.147q-.777.147-1.575.42l-.588-1.659q1.995-.756 3.885-.756 2.205 0 3.318.966t1.113 2.751zm-4.83 1.26q.735 0 1.407-.378a2.8 2.8 0 0 0 1.092-1.05v-2.457h-1.302q-1.596 0-2.331.546-.735.525-.735 1.533 0 .882.462 1.344.483.462 1.407.462m11.289-1.89q0 .966.378 1.407.399.42 1.197.42a2.66 2.66 0 0 0 1.449-.441 3.45 3.45 0 0 0 1.134-1.113v-8.022h2.352V249h-2.037l-.147-1.428a3.86 3.86 0 0 1-1.533 1.26 4.6 4.6 0 0 1-1.953.441q-1.596 0-2.394-.861t-.798-2.457v-8.043h2.352zm19.501 2.751q-.63.399-1.47.63a6.6 6.6 0 0 1-1.764.231q-1.89 0-2.919-.966-1.029-.987-1.029-2.667v-6.006h-2.457v-1.722h2.457v-2.478l2.352-.273v2.751h3.759l-.273 1.722h-3.486v5.985q0 .903.462 1.344.462.42 1.47.42 1.113 0 2.058-.525zm5.683-9.135a4.5 4.5 0 0 1 1.554-1.239 4.4 4.4 0 0 1 1.89-.42q1.533 0 2.31.861.777.84.777 2.436V249h-2.352v-7.728q0-.987-.378-1.407-.378-.441-1.218-.441-.735 0-1.428.483a4.5 4.5 0 0 0-1.155 1.155V249h-2.352v-15.519l2.352-.252zm10.24-1.365h2.037l.168 1.449a4.7 4.7 0 0 1 1.617-1.281 4.44 4.44 0 0 1 1.974-.462q1.533 0 2.31.861t.777 2.436V249h-2.352v-6.909q0-1.029-.126-1.575-.105-.567-.441-.819-.336-.273-1.008-.273-.756 0-1.449.462a4.5 4.5 0 0 0-1.155 1.155V249h-2.352zm-219.084 31.636q-1.155 0-1.953-.777-.777-.798-.777-1.953t.777-1.932 1.953-.777 1.953.777.777 1.953q0 1.155-.777 1.932t-1.953.777m27.527-2.877q0 4.116-1.911 5.733-1.911 1.596-4.83 1.596h-3.549v-14.49h3.318q3.15 0 5.061 1.533 1.911 1.512 1.911 5.628m-2.562 0q0-3.108-1.092-4.2-1.071-1.092-2.856-1.092h-1.344v10.773h1.365q3.927 0 3.927-5.481m14.041-5.313h-3.15v10.773h3.15V274h-8.736v-1.869h3.15v-10.773h-3.15v-1.848h8.736zm13.705 5.313q0 4.116-1.911 5.733-1.911 1.596-4.83 1.596h-3.549v-14.49h3.318q3.15 0 5.061 1.533 1.911 1.512 1.911 5.628m-2.562 0q0-3.108-1.092-4.2-1.071-1.092-2.856-1.092h-1.344v10.773h1.365q3.927 0 3.927-5.481m27.43-2.961q0 1.512-.903 2.52t-2.394 1.47l4.116 6.3h-2.835l-3.654-5.964h-1.575V274h-2.436v-14.49h4.032q5.649 0 5.649 4.2m-2.541 0q0-1.26-.735-1.827-.714-.567-2.226-.567h-1.743v4.935h1.806q1.428 0 2.163-.609t.735-1.932m7.489 5.502q.105 1.617.924 2.436.84.798 2.1.798.777 0 1.47-.231a6.7 6.7 0 0 0 1.449-.735l1.008 1.428a5.6 5.6 0 0 1-1.827 1.008q-1.05.357-2.205.357-2.541 0-3.948-1.575-1.407-1.596-1.407-4.242 0-1.659.609-2.982.609-1.344 1.764-2.1t2.688-.756q2.205 0 3.486 1.491 1.302 1.47 1.302 4.053 0 .63-.063 1.05zm2.646-4.851q-1.134 0-1.848.819t-.819 2.436h5.145q-.042-1.575-.672-2.415t-1.806-.84m12.025 8.127q1.113 0 1.743-.399.651-.399.651-1.092 0-.483-.189-.777-.189-.315-.756-.567-.567-.273-1.701-.567-1.827-.462-2.751-1.176-.903-.735-.903-2.1 0-1.449 1.197-2.31 1.197-.882 3.234-.882 2.457 0 4.221 1.281l-1.008 1.491q-1.491-.987-3.15-.987-2.1 0-2.1 1.218 0 .42.231.693.252.273.84.525.588.231 1.743.546 1.806.504 2.688 1.239.903.735.903 2.205 0 1.701-1.407 2.583-1.407.861-3.486.861-2.751 0-4.557-1.554l1.239-1.428q.693.546 1.533.882.861.315 1.785.315m13.012-9.87q2.394 0 3.696 1.575 1.302 1.554 1.302 4.242t-1.323 4.263-3.696 1.575q-2.394 0-3.717-1.533-1.302-1.554-1.302-4.284 0-2.646 1.323-4.242 1.344-1.596 3.717-1.596m0 1.827q-1.281 0-1.932.987-.63.987-.63 3.024 0 2.058.63 3.045.63.966 1.911.966t1.911-.987.63-3.045q0-2.037-.63-3.003-.63-.987-1.89-.987m13.011 6.531q0 1.407 1.68 1.407.84 0 1.764-.378l.588 1.638q-1.155.63-2.856.63-1.659 0-2.604-.924-.924-.945-.924-2.583v-10.584h-3.339v-1.722h5.691zm10.072-.315q0 .966.378 1.407.399.42 1.197.42a2.66 2.66 0 0 0 1.449-.441 3.45 3.45 0 0 0 1.134-1.113v-8.022h2.352V274h-2.037l-.147-1.428a3.86 3.86 0 0 1-1.533 1.26 4.6 4.6 0 0 1-1.953.441q-1.596 0-2.394-.861t-.798-2.457v-8.043h2.352zm19.501 2.751q-.63.399-1.47.63a6.6 6.6 0 0 1-1.764.231q-1.89 0-2.919-.966-1.029-.987-1.029-2.667v-6.006h-2.457v-1.722h2.457v-2.478l2.352-.273v2.751h3.759l-.273 1.722h-3.486v5.985q0 .903.462 1.344.462.42 1.47.42 1.113 0 2.058-.525zm7.762-15.939q.672 0 1.092.441.441.42.441 1.05t-.441 1.05q-.42.42-1.092.42-.693 0-1.113-.42t-.42-1.05q0-.651.42-1.071.441-.42 1.113-.42m1.617 14.805h3.024V274h-8.673v-1.722h3.297v-7.644h-3.192v-1.722h5.544zm10.996-9.66q2.394 0 3.696 1.575 1.302 1.554 1.302 4.242t-1.323 4.263-3.696 1.575q-2.394 0-3.717-1.533-1.302-1.554-1.302-4.284 0-2.646 1.323-4.242 1.344-1.596 3.717-1.596m0 1.827q-1.281 0-1.932.987-.63.987-.63 3.024 0 2.058.63 3.045.63.966 1.911.966t1.911-.987.63-3.045q0-2.037-.63-3.003-.63-.987-1.89-.987m8.139-1.533h2.037l.168 1.449a4.7 4.7 0 0 1 1.617-1.281 4.44 4.44 0 0 1 1.974-.462q1.533 0 2.31.861t.777 2.436V274h-2.352v-6.909q0-1.029-.126-1.575-.105-.567-.441-.819-.336-.273-1.008-.273-.756 0-1.449.462a4.5 4.5 0 0 0-1.155 1.155V274h-2.352z"/><path fill="#000" fill-opacity=".2" d="M489.754 244.548q-1.155 0-1.953-.777-.777-.798-.777-1.953t.777-1.932 1.953-.777 1.953.777.777 1.953q0 1.155-.777 1.932t-1.953.777m27.59-5.481q0 2.436-1.512 3.612-1.512 1.155-4.137 1.155h-1.764V249h-2.415v-14.49h4.011q2.793 0 4.305 1.155 1.512 1.134 1.512 3.402m-2.541 0q0-2.73-3.108-2.73h-1.764v5.649h1.785q1.47 0 2.268-.672.819-.672.819-2.247m13.642 7.224q0 .63.189.945.189.294.651.441l-.546 1.596q-1.743-.21-2.289-1.533a3.94 3.94 0 0 1-1.533 1.155 5.1 5.1 0 0 1-1.995.378q-1.68 0-2.667-.945t-.987-2.499q0-1.743 1.365-2.688 1.386-.945 3.906-.945h1.575v-.714q0-1.05-.63-1.533t-1.827-.483a7.5 7.5 0 0 0-1.365.147q-.777.147-1.575.42l-.588-1.659q1.995-.756 3.885-.756 2.205 0 3.318.966t1.113 2.751zm-4.83 1.26q.735 0 1.407-.378a2.8 2.8 0 0 0 1.092-1.05v-2.457h-1.302q-1.596 0-2.331.546-.735.525-.735 1.533 0 .882.462 1.344.483.462 1.407.462m12.97-.063q1.113 0 1.743-.399.651-.399.651-1.092 0-.483-.189-.777-.189-.315-.756-.567-.567-.273-1.701-.567-1.827-.462-2.751-1.176-.903-.735-.903-2.1 0-1.449 1.197-2.31 1.197-.882 3.234-.882 2.457 0 4.221 1.281l-1.008 1.491q-1.491-.987-3.15-.987-2.1 0-2.1 1.218 0 .42.231.693.252.273.84.525.588.231 1.743.546 1.806.504 2.688 1.239.903.735.903 2.205 0 1.701-1.407 2.583-1.407.861-3.486.861-2.751 0-4.557-1.554l1.239-1.428q.693.546 1.533.882.861.315 1.785.315m12.591 0q1.113 0 1.743-.399.651-.399.651-1.092 0-.483-.189-.777-.189-.315-.756-.567-.567-.273-1.701-.567-1.827-.462-2.751-1.176-.903-.735-.903-2.1 0-1.449 1.197-2.31 1.197-.882 3.234-.882 2.457 0 4.221 1.281l-1.008 1.491q-1.491-.987-3.15-.987-2.1 0-2.1 1.218 0 .42.231.693.252.273.84.525.588.231 1.743.546 1.806.504 2.688 1.239.903.735.903 2.205 0 1.701-1.407 2.583-1.407.861-3.486.861-2.751 0-4.557-1.554l1.239-1.428q.693.546 1.533.882.861.315 1.785.315m8.539 1.512v-14.49h2.436V249zm7.56-14.49h2.688l-5.061 6.594 5.46 7.896h-2.919l-5.187-7.749zm7.006 9.702q.105 1.617.924 2.436.84.798 2.1.798.777 0 1.47-.231a6.7 6.7 0 0 0 1.449-.735l1.008 1.428a5.6 5.6 0 0 1-1.827 1.008q-1.05.357-2.205.357-2.541 0-3.948-1.575-1.407-1.596-1.407-4.242 0-1.659.609-2.982.609-1.344 1.764-2.1t2.688-.756q2.205 0 3.486 1.491 1.302 1.47 1.302 4.053 0 .63-.063 1.05zm2.646-4.851q-1.134 0-1.848.819t-.819 2.436h5.145q-.042-1.575-.672-2.415t-1.806-.84m13.873 9.681q-.672 2.016-1.953 3.15-1.26 1.155-3.486 1.344l-.294-1.764q1.092-.168 1.764-.525a3 3 0 0 0 1.071-.861q.399-.525.714-1.386h-.798l-3.738-11.088h2.499l2.793 9.45 2.835-9.45h2.415zm10.744-1.554q1.113 0 1.743-.399.651-.399.651-1.092 0-.483-.189-.777-.189-.315-.756-.567-.567-.273-1.701-.567-1.827-.462-2.751-1.176-.903-.735-.903-2.1 0-1.449 1.197-2.31 1.197-.882 3.234-.882 2.457 0 4.221 1.281l-1.008 1.491q-1.491-.987-3.15-.987-2.1 0-2.1 1.218 0 .42.231.693.252.273.84.525.588.231 1.743.546 1.806.504 2.688 1.239.903.735.903 2.205 0 1.701-1.407 2.583-1.407.861-3.486.861-2.751 0-4.557-1.554l1.239-1.428q.693.546 1.533.882.861.315 1.785.315m7.614 2.898 8.904-18.438 1.848.861-8.883 18.417zM629.389 249h-2.856l-1.428-10.731L623.614 249h-2.898l-1.848-14.49h2.352l1.134 12.138 1.554-10.458h2.499l1.449 10.458 1.344-12.138h2.184zm5.851-4.788q.105 1.617.924 2.436.84.798 2.1.798.777 0 1.47-.231a6.7 6.7 0 0 0 1.449-.735l1.008 1.428a5.6 5.6 0 0 1-1.827 1.008q-1.05.357-2.205.357-2.541 0-3.948-1.575-1.407-1.596-1.407-4.242 0-1.659.609-2.982.609-1.344 1.764-2.1t2.688-.756q2.205 0 3.486 1.491 1.302 1.47 1.302 4.053 0 .63-.063 1.05zm2.646-4.851q-1.134 0-1.848.819t-.819 2.436h5.145q-.042-1.575-.672-2.415t-1.806-.84m10.345-.126a4 4 0 0 1 1.344-1.197 3.6 3.6 0 0 1 1.701-.42q2.121 0 3.129 1.533t1.008 4.284q0 2.604-1.176 4.221-1.155 1.617-3.255 1.617-1.848 0-2.898-1.365l-.126 1.092h-2.079v-15.54l2.352-.273zm2.184 8.253q1.218 0 1.848-.987.651-1.008.651-3.045 0-2.1-.588-3.066-.567-.966-1.701-.966-.714 0-1.344.441a4 4 0 0 0-1.05 1.155v5.187q.84 1.281 2.184 1.281m16.54-1.197q0 .63.189.945.189.294.651.441l-.546 1.596q-1.743-.21-2.289-1.533a3.94 3.94 0 0 1-1.533 1.155 5.1 5.1 0 0 1-1.995.378q-1.68 0-2.667-.945t-.987-2.499q0-1.743 1.365-2.688 1.386-.945 3.906-.945h1.575v-.714q0-1.05-.63-1.533t-1.827-.483a7.5 7.5 0 0 0-1.365.147q-.777.147-1.575.42l-.588-1.659q1.995-.756 3.885-.756 2.205 0 3.318.966t1.113 2.751zm-4.83 1.26q.735 0 1.407-.378a2.8 2.8 0 0 0 1.092-1.05v-2.457h-1.302q-1.596 0-2.331.546-.735.525-.735 1.533 0 .882.462 1.344.483.462 1.407.462m11.289-1.89q0 .966.378 1.407.399.42 1.197.42a2.66 2.66 0 0 0 1.449-.441 3.45 3.45 0 0 0 1.134-1.113v-8.022h2.352V249h-2.037l-.147-1.428a3.86 3.86 0 0 1-1.533 1.26 4.6 4.6 0 0 1-1.953.441q-1.596 0-2.394-.861t-.798-2.457v-8.043h2.352zm19.501 2.751q-.63.399-1.47.63a6.6 6.6 0 0 1-1.764.231q-1.89 0-2.919-.966-1.029-.987-1.029-2.667v-6.006h-2.457v-1.722h2.457v-2.478l2.352-.273v2.751h3.759l-.273 1.722h-3.486v5.985q0 .903.462 1.344.462.42 1.47.42 1.113 0 2.058-.525zm5.683-9.135a4.5 4.5 0 0 1 1.554-1.239 4.4 4.4 0 0 1 1.89-.42q1.533 0 2.31.861.777.84.777 2.436V249h-2.352v-7.728q0-.987-.378-1.407-.378-.441-1.218-.441-.735 0-1.428.483a4.5 4.5 0 0 0-1.155 1.155V249h-2.352v-15.519l2.352-.252zm10.24-1.365h2.037l.168 1.449a4.7 4.7 0 0 1 1.617-1.281 4.44 4.44 0 0 1 1.974-.462q1.533 0 2.31.861t.777 2.436V249h-2.352v-6.909q0-1.029-.126-1.575-.105-.567-.441-.819-.336-.273-1.008-.273-.756 0-1.449.462a4.5 4.5 0 0 0-1.155 1.155V249h-2.352zm-219.084 31.636q-1.155 0-1.953-.777-.777-.798-.777-1.953t.777-1.932 1.953-.777 1.953.777.777 1.953q0 1.155-.777 1.932t-1.953.777m27.527-2.877q0 4.116-1.911 5.733-1.911 1.596-4.83 1.596h-3.549v-14.49h3.318q3.15 0 5.061 1.533 1.911 1.512 1.911 5.628m-2.562 0q0-3.108-1.092-4.2-1.071-1.092-2.856-1.092h-1.344v10.773h1.365q3.927 0 3.927-5.481m14.041-5.313h-3.15v10.773h3.15V274h-8.736v-1.869h3.15v-10.773h-3.15v-1.848h8.736zm13.705 5.313q0 4.116-1.911 5.733-1.911 1.596-4.83 1.596h-3.549v-14.49h3.318q3.15 0 5.061 1.533 1.911 1.512 1.911 5.628m-2.562 0q0-3.108-1.092-4.2-1.071-1.092-2.856-1.092h-1.344v10.773h1.365q3.927 0 3.927-5.481m27.43-2.961q0 1.512-.903 2.52t-2.394 1.47l4.116 6.3h-2.835l-3.654-5.964h-1.575V274h-2.436v-14.49h4.032q5.649 0 5.649 4.2m-2.541 0q0-1.26-.735-1.827-.714-.567-2.226-.567h-1.743v4.935h1.806q1.428 0 2.163-.609t.735-1.932m7.489 5.502q.105 1.617.924 2.436.84.798 2.1.798.777 0 1.47-.231a6.7 6.7 0 0 0 1.449-.735l1.008 1.428a5.6 5.6 0 0 1-1.827 1.008q-1.05.357-2.205.357-2.541 0-3.948-1.575-1.407-1.596-1.407-4.242 0-1.659.609-2.982.609-1.344 1.764-2.1t2.688-.756q2.205 0 3.486 1.491 1.302 1.47 1.302 4.053 0 .63-.063 1.05zm2.646-4.851q-1.134 0-1.848.819t-.819 2.436h5.145q-.042-1.575-.672-2.415t-1.806-.84m12.025 8.127q1.113 0 1.743-.399.651-.399.651-1.092 0-.483-.189-.777-.189-.315-.756-.567-.567-.273-1.701-.567-1.827-.462-2.751-1.176-.903-.735-.903-2.1 0-1.449 1.197-2.31 1.197-.882 3.234-.882 2.457 0 4.221 1.281l-1.008 1.491q-1.491-.987-3.15-.987-2.1 0-2.1 1.218 0 .42.231.693.252.273.84.525.588.231 1.743.546 1.806.504 2.688 1.239.903.735.903 2.205 0 1.701-1.407 2.583-1.407.861-3.486.861-2.751 0-4.557-1.554l1.239-1.428q.693.546 1.533.882.861.315 1.785.315m13.012-9.87q2.394 0 3.696 1.575 1.302 1.554 1.302 4.242t-1.323 4.263-3.696 1.575q-2.394 0-3.717-1.533-1.302-1.554-1.302-4.284 0-2.646 1.323-4.242 1.344-1.596 3.717-1.596m0 1.827q-1.281 0-1.932.987-.63.987-.63 3.024 0 2.058.63 3.045.63.966 1.911.966t1.911-.987.63-3.045q0-2.037-.63-3.003-.63-.987-1.89-.987m13.011 6.531q0 1.407 1.68 1.407.84 0 1.764-.378l.588 1.638q-1.155.63-2.856.63-1.659 0-2.604-.924-.924-.945-.924-2.583v-10.584h-3.339v-1.722h5.691zm10.072-.315q0 .966.378 1.407.399.42 1.197.42a2.66 2.66 0 0 0 1.449-.441 3.45 3.45 0 0 0 1.134-1.113v-8.022h2.352V274h-2.037l-.147-1.428a3.86 3.86 0 0 1-1.533 1.26 4.6 4.6 0 0 1-1.953.441q-1.596 0-2.394-.861t-.798-2.457v-8.043h2.352zm19.501 2.751q-.63.399-1.47.63a6.6 6.6 0 0 1-1.764.231q-1.89 0-2.919-.966-1.029-.987-1.029-2.667v-6.006h-2.457v-1.722h2.457v-2.478l2.352-.273v2.751h3.759l-.273 1.722h-3.486v5.985q0 .903.462 1.344.462.42 1.47.42 1.113 0 2.058-.525zm7.762-15.939q.672 0 1.092.441.441.42.441 1.05t-.441 1.05q-.42.42-1.092.42-.693 0-1.113-.42t-.42-1.05q0-.651.42-1.071.441-.42 1.113-.42m1.617 14.805h3.024V274h-8.673v-1.722h3.297v-7.644h-3.192v-1.722h5.544zm10.996-9.66q2.394 0 3.696 1.575 1.302 1.554 1.302 4.242t-1.323 4.263-3.696 1.575q-2.394 0-3.717-1.533-1.302-1.554-1.302-4.284 0-2.646 1.323-4.242 1.344-1.596 3.717-1.596m0 1.827q-1.281 0-1.932.987-.63.987-.63 3.024 0 2.058.63 3.045.63.966 1.911.966t1.911-.987.63-3.045q0-2.037-.63-3.003-.63-.987-1.89-.987m8.139-1.533h2.037l.168 1.449a4.7 4.7 0 0 1 1.617-1.281 4.44 4.44 0 0 1 1.974-.462q1.533 0 2.31.861t.777 2.436V274h-2.352v-6.909q0-1.029-.126-1.575-.105-.567-.441-.819-.336-.273-1.008-.273-.756 0-1.449.462a4.5 4.5 0 0 0-1.155 1.155V274h-2.352z"/><path fill="#2BC0F6" d="M881.754 231.548q-1.155 0-1.953-.777-.777-.798-.777-1.953t.777-1.932 1.953-.777 1.953.777.777 1.953q0 1.155-.777 1.932t-1.953.777M898.403 236l3.99-5.838-3.549-5.25h2.709l2.268 3.906 2.268-3.906h2.583l-3.465 5.145 3.99 5.943h-2.751l-2.73-4.536-2.709 4.536zm12.613 1.386 8.904-18.438 1.848.861-8.883 18.417zm17.968-17.913q.672 0 1.092.441.441.42.441 1.05t-.441 1.05q-.42.42-1.092.42-.693 0-1.113-.42t-.42-1.05q0-.651.42-1.071.441-.42 1.113-.42m1.617 14.805h3.024V236h-8.673v-1.722h3.297v-7.644h-3.192v-1.722h5.544zm15.405-13.818V236h-2.079l-.168-1.365a3.7 3.7 0 0 1-1.344 1.218q-.798.42-1.764.42-2.079 0-3.129-1.554t-1.05-4.263q0-1.701.525-3.024.546-1.323 1.533-2.058.987-.756 2.331-.756 1.701 0 2.793 1.218v-5.649zm-4.536 5.964q-1.218 0-1.869 1.008-.63.987-.63 3.024 0 4.032 2.31 4.032 1.386 0 2.373-1.596v-5.229q-.861-1.239-2.184-1.239m10.219 4.788q.105 1.617.924 2.436.84.798 2.1.798.777 0 1.47-.231a6.7 6.7 0 0 0 1.449-.735l1.008 1.428a5.6 5.6 0 0 1-1.827 1.008q-1.05.357-2.205.357-2.541 0-3.948-1.575-1.407-1.596-1.407-4.242 0-1.659.609-2.982.609-1.344 1.764-2.1t2.688-.756q2.205 0 3.486 1.491 1.302 1.47 1.302 4.053 0 .63-.063 1.05zm2.646-4.851q-1.134 0-1.848.819t-.819 2.436h5.145q-.042-1.575-.672-2.415t-1.806-.84m7.993-1.449h2.037l.168 1.449a4.7 4.7 0 0 1 1.617-1.281 4.44 4.44 0 0 1 1.974-.462q1.533 0 2.31.861t.777 2.436V236h-2.352v-6.909q0-1.029-.126-1.575-.105-.567-.441-.819-.336-.273-1.008-.273-.756 0-1.449.462a4.5 4.5 0 0 0-1.155 1.155V236h-2.352zm21.853 10.5q-.63.399-1.47.63a6.6 6.6 0 0 1-1.764.231q-1.89 0-2.919-.966-1.029-.987-1.029-2.667v-6.006h-2.457v-1.722h2.457v-2.478l2.352-.273v2.751h3.759l-.273 1.722h-3.486v5.985q0 .903.462 1.344.462.42 1.47.42 1.113 0 2.058-.525zm7.762-15.939q.672 0 1.092.441.441.42.441 1.05t-.441 1.05q-.42.42-1.092.42-.693 0-1.113-.42t-.42-1.05q0-.651.42-1.071.441-.42 1.113-.42m1.617 14.805h3.024V236h-8.673v-1.722h3.297v-7.644h-3.192v-1.722h5.544zm15.8 1.134q-.63.399-1.47.63c-.56.154-1.14.231-1.76.231-1.26 0-2.23-.322-2.92-.966-.68-.658-1.03-1.547-1.03-2.667v-6.006h-2.455v-1.722h2.455v-2.478l2.35-.273v2.751h3.76l-.27 1.722h-3.49v5.985c0 .602.16 1.05.47 1.344q.45.42 1.47.42c.74 0 1.42-.175 2.05-.525zm9.22.63c-.45 1.344-1.1 2.394-1.96 3.15q-1.26 1.155-3.48 1.344l-.3-1.764q1.095-.168 1.77-.525c.44-.224.8-.511 1.07-.861.26-.35.5-.812.71-1.386h-.8l-3.73-11.088h2.49l2.8 9.45 2.83-9.45h2.42zm-136.826 20.506q-1.155 0-1.953-.777-.777-.798-.777-1.953t.777-1.932 1.953-.777 1.953.777.777 1.953q0 1.155-.777 1.932t-1.953.777m23.264-10.332q1.428 0 2.436.357a6.5 6.5 0 0 1 1.932 1.113l-1.26 1.512a4.64 4.64 0 0 0-3.003-1.071q-1.764 0-2.877 1.365-1.113 1.344-1.113 4.242 0 2.856 1.092 4.221 1.092 1.344 2.919 1.344 1.05 0 1.785-.315a7 7 0 0 0 1.491-.924l1.176 1.491q-1.764 1.722-4.536 1.722-1.869 0-3.339-.861-1.47-.882-2.31-2.583-.819-1.701-.819-4.095 0-2.352.84-4.053.861-1.701 2.331-2.583t3.255-.882m14.797 3.423q.861 0 1.68.273l-.399 4.095h-1.68v-2.268q-1.155.021-2.016.924-.84.903-1.344 2.541v4.116h2.226V261h-6.216v-1.68h1.638v-7.728h-1.638v-1.68h3.423l.42 2.562q.651-1.428 1.575-2.121.945-.714 2.331-.714m6.691 6.573q.105 1.617.924 2.436.84.798 2.1.798.777 0 1.47-.231a6.7 6.7 0 0 0 1.449-.735l1.008 1.428a5.6 5.6 0 0 1-1.827 1.008q-1.05.357-2.205.357-2.541 0-3.948-1.575-1.407-1.596-1.407-4.242 0-1.659.609-2.982.609-1.344 1.764-2.1t2.688-.756q2.205 0 3.486 1.491 1.302 1.47 1.302 4.053 0 .63-.063 1.05zm2.646-4.851q-1.134 0-1.848.819t-.819 2.436h5.145q-.042-1.575-.672-2.415t-1.806-.84m16.854-5.901V261h-2.079l-.168-1.365a3.7 3.7 0 0 1-1.344 1.218q-.798.42-1.764.42-2.079 0-3.129-1.554t-1.05-4.263q0-1.701.525-3.024.546-1.323 1.533-2.058.987-.756 2.331-.756 1.701 0 2.793 1.218v-5.649zm-4.536 5.964q-1.218 0-1.869 1.008-.63.987-.63 3.024 0 4.032 2.31 4.032 1.386 0 2.373-1.596v-5.229q-.861-1.239-2.184-1.239m10.219 4.788q.105 1.617.924 2.436.84.798 2.1.798.777 0 1.47-.231a6.7 6.7 0 0 0 1.449-.735l1.008 1.428a5.6 5.6 0 0 1-1.827 1.008q-1.05.357-2.205.357-2.541 0-3.948-1.575-1.407-1.596-1.407-4.242 0-1.659.609-2.982.609-1.344 1.764-2.1t2.688-.756q2.205 0 3.486 1.491 1.302 1.47 1.302 4.053 0 .63-.063 1.05zm2.646-4.851q-1.134 0-1.848.819t-.819 2.436h5.145q-.042-1.575-.672-2.415t-1.806-.84m7.993-1.449h2.037l.168 1.449a4.7 4.7 0 0 1 1.617-1.281 4.44 4.44 0 0 1 1.974-.462q1.533 0 2.31.861t.777 2.436V261h-2.352v-6.909q0-1.029-.126-1.575-.105-.567-.441-.819-.336-.273-1.008-.273-.756 0-1.449.462a4.5 4.5 0 0 0-1.155 1.155V261h-2.352zm21.853 10.5q-.63.399-1.47.63a6.6 6.6 0 0 1-1.764.231q-1.89 0-2.919-.966-1.029-.987-1.029-2.667v-6.006h-2.457v-1.722h2.457v-2.478l2.352-.273v2.751h3.759l-.273 1.722h-3.486v5.985q0 .903.462 1.344.462.42 1.47.42 1.113 0 2.058-.525zm7.762-15.939q.672 0 1.092.441.441.42.441 1.05t-.441 1.05q-.42.42-1.092.42-.693 0-1.113-.42t-.42-1.05q0-.651.42-1.071.441-.42 1.113-.42m1.617 14.805h3.024V261h-8.673v-1.722h3.297v-7.644h-3.192v-1.722h5.544zm15.03-.987c0 .42.06.735.19.945.12.196.34.343.65.441l-.55 1.596c-1.16-.14-1.92-.651-2.29-1.533q-.6.756-1.53 1.155c-.6.252-1.27.378-2 .378-1.12 0-2-.315-2.66-.945q-.99-.945-.99-2.499-.001-1.743 1.37-2.688 1.38-.945 3.9-.945h1.58v-.714q0-1.05-.63-1.533t-1.83-.483c-.39 0-.85.049-1.37.147-.51.098-1.04.238-1.57.42l-.59-1.659c1.33-.504 2.63-.756 3.89-.756 1.47 0 2.57.322 3.31.966.75.644 1.12 1.561 1.12 2.751zm-4.83 1.26c.49 0 .96-.126 1.4-.378.47-.252.83-.602 1.1-1.05v-2.457h-1.31c-1.06 0-1.84.182-2.33.546-.49.35-.73.861-.73 1.533 0 .588.15 1.036.46 1.344q.48.462 1.41.462m13.81-1.575q0 1.407 1.68 1.407c.56 0 1.15-.126 1.76-.378l.59 1.638c-.77.42-1.72.63-2.86.63-1.1 0-1.97-.308-2.6-.924-.62-.63-.92-1.491-.92-2.583v-10.584h-3.34v-1.722h5.69zm28.25-11.466h2.47L1043.7 261h-2.78l-4.6-14.49h2.61l3.42 12.18zm13.13 11.781c0 .42.07.735.19.945.13.196.35.343.65.441l-.54 1.596c-1.16-.14-1.93-.651-2.29-1.533q-.615.756-1.53 1.155c-.61.252-1.27.378-2 .378q-1.68 0-2.67-.945c-.65-.63-.98-1.463-.98-2.499 0-1.162.45-2.058 1.36-2.688.93-.63 2.23-.945 3.91-.945h1.57v-.714q0-1.05-.63-1.533c-.42-.322-1.03-.483-1.82-.483-.4 0-.85.049-1.37.147s-1.04.238-1.57.42l-.59-1.659c1.33-.504 2.62-.756 3.88-.756 1.47 0 2.58.322 3.32.966q1.11.966 1.11 2.751zm-4.83 1.26q.735 0 1.41-.378a2.8 2.8 0 0 0 1.09-1.05v-2.457h-1.3c-1.06 0-1.84.182-2.33.546-.49.35-.73.861-.73 1.533 0 .588.15 1.036.46 1.344.32.308.79.462 1.4.462m11.29-1.89c0 .644.13 1.113.38 1.407q.405.42 1.2.42c.5 0 .99-.147 1.45-.441.47-.294.85-.665 1.13-1.113v-8.022h2.35V261h-2.03l-.15-1.428q-.585.819-1.53 1.26c-.63.294-1.28.441-1.96.441-1.06 0-1.86-.287-2.39-.861s-.8-1.393-.8-2.457v-8.043h2.35zm15.12.315q0 1.407 1.68 1.407c.56 0 1.14-.126 1.76-.378l.59 1.638c-.77.42-1.72.63-2.86.63-1.1 0-1.97-.308-2.6-.924q-.93-.945-.93-2.583v-10.584h-3.33v-1.722h5.69zm16.98 2.436q-.63.399-1.47.63t-1.77.231c-1.26 0-2.23-.322-2.92-.966-.68-.658-1.03-1.547-1.03-2.667v-6.006h-2.45v-1.722h2.45v-2.478l2.36-.273v2.751h3.76l-.28 1.722h-3.48v5.985c0 .602.15 1.05.46 1.344q.465.42 1.47.42c.74 0 1.43-.175 2.06-.525zm-215.756 21.136q-1.155 0-1.953-.777-.777-.798-.777-1.953t.777-1.932 1.953-.777 1.953.777.777 1.953q0 1.155-.777 1.932t-1.953.777m27.065-.294q0 1.47-.609 2.604a4.3 4.3 0 0 1-1.722 1.785q-1.134.63-2.709.63-2.373 0-3.696-1.365-1.302-1.365-1.302-3.654v-9.744h2.436v9.282q0 1.806.609 2.688.63.861 1.953.861 1.344 0 1.953-.861.63-.882.63-2.688v-9.282h2.457zm7.174 3.234q1.113 0 1.743-.399.651-.399.651-1.092 0-.483-.189-.777-.189-.315-.756-.567-.567-.273-1.701-.567-1.827-.462-2.751-1.176-.903-.735-.903-2.1 0-1.449 1.197-2.31 1.197-.882 3.234-.882 2.457 0 4.221 1.281l-1.008 1.491q-1.491-.987-3.15-.987-2.1 0-2.1 1.218 0 .42.231.693.252.273.84.525.588.231 1.743.546 1.806.504 2.688 1.239.903.735.903 2.205 0 1.701-1.407 2.583-1.407.861-3.486.861-2.751 0-4.557-1.554l1.239-1.428q.693.546 1.533.882.861.315 1.785.315m10.513-3.276q.105 1.617.924 2.436.84.798 2.1.798.777 0 1.47-.231a6.7 6.7 0 0 0 1.449-.735l1.008 1.428a5.6 5.6 0 0 1-1.827 1.008q-1.05.357-2.205.357-2.541 0-3.948-1.575-1.407-1.596-1.407-4.242 0-1.659.609-2.982.609-1.344 1.764-2.1t2.688-.756q2.205 0 3.486 1.491 1.302 1.47 1.302 4.053 0 .63-.063 1.05zm2.646-4.851q-1.134 0-1.848.819t-.819 2.436h5.145q-.042-1.575-.672-2.415t-1.806-.84m15.846-1.722q.861 0 1.68.273l-.399 4.095h-1.68v-2.268q-1.155.021-2.016.924-.84.903-1.344 2.541v4.116h2.226V286h-6.216v-1.68h1.638v-7.728h-1.638v-1.68h3.423l.42 2.562q.651-1.428 1.575-2.121.945-.714 2.331-.714m26.129-1.281h-3.15v10.773h3.15V286h-8.736v-1.869h3.15v-10.773h-3.15v-1.848h8.736zm3.793 1.554h2.037l.168 1.449a4.7 4.7 0 0 1 1.617-1.281 4.44 4.44 0 0 1 1.974-.462q1.533 0 2.31.861t.777 2.436V286h-2.352v-6.909q0-1.029-.126-1.575-.105-.567-.441-.819-.336-.273-1.008-.273-.756 0-1.449.462a4.5 4.5 0 0 0-1.155 1.155V286h-2.352zm14.944 1.323a4 4 0 0 1 1.344-1.197 3.6 3.6 0 0 1 1.701-.42q2.121 0 3.129 1.533t1.008 4.284q0 2.604-1.176 4.221-1.155 1.617-3.255 1.617-1.848 0-2.898-1.365l-.126 1.092h-2.079v-15.54l2.352-.273zm2.184 8.253q1.218 0 1.848-.987.651-1.008.651-3.045 0-2.1-.588-3.066-.567-.966-1.701-.966-.714 0-1.344.441a4 4 0 0 0-1.05 1.155v5.187q.84 1.281 2.184 1.281m12.512-9.87q2.385 0 3.69 1.575c.87 1.036 1.3 2.45 1.3 4.242q0 2.688-1.32 4.263c-.88 1.05-2.11 1.575-3.7 1.575s-2.83-.511-3.71-1.533q-1.306-1.554-1.305-4.284 0-2.646 1.325-4.242 1.335-1.596 3.72-1.596m0 1.827c-.86 0-1.5.329-1.94.987q-.63.987-.63 3.024 0 2.058.63 3.045c.42.644 1.06.966 1.91.966q1.29 0 1.92-.987t.63-3.045q0-2.037-.63-3.003-.63-.987-1.89-.987m7.17 9.555 3.99-5.838-3.55-5.25h2.71l2.27 3.906 2.27-3.906h2.58l-3.47 5.145 3.99 5.943h-2.75l-2.73-4.536-2.71 4.536zm15.51-4.788c.07 1.078.38 1.89.92 2.436q.84.798 2.1.798a4.6 4.6 0 0 0 1.47-.231c.48-.168.96-.413 1.45-.735l1.01 1.428q-.78.651-1.83 1.008c-.7.238-1.43.357-2.2.357-1.7 0-3.01-.525-3.95-1.575q-1.41-1.596-1.41-4.242c0-1.106.21-2.1.61-2.982q.615-1.344 1.77-2.1c.77-.504 1.66-.756 2.68-.756 1.47 0 2.64.497 3.49 1.491.87.98 1.3 2.331 1.3 4.053q0 .63-.06 1.05zm2.65-4.851c-.76 0-1.38.273-1.85.819-.48.546-.75 1.358-.82 2.436h5.14c-.02-1.05-.25-1.855-.67-2.415q-.63-.84-1.8-.84m12.02 8.127q1.11 0 1.74-.399c.44-.266.65-.63.65-1.092q0-.483-.18-.777c-.13-.21-.38-.399-.76-.567-.38-.182-.95-.371-1.7-.567-1.22-.308-2.14-.7-2.75-1.176-.6-.49-.91-1.19-.91-2.1q0-1.449 1.2-2.31 1.2-.882 3.24-.882c1.63 0 3.04.427 4.22 1.281l-1.01 1.491q-1.5-.987-3.15-.987-2.1 0-2.1 1.218c0 .28.08.511.23.693q.255.273.84.525.585.231 1.74.546c1.21.336 2.1.749 2.69 1.239q.9.735.9 2.205c0 1.134-.47 1.995-1.4 2.583-.94.574-2.1.861-3.49.861q-2.745 0-4.56-1.554l1.24-1.428c.46.364.98.658 1.54.882.57.21 1.16.315 1.78.315"/><path fill="#000" fill-opacity=".2" d="M881.754 231.548q-1.155 0-1.953-.777-.777-.798-.777-1.953t.777-1.932 1.953-.777 1.953.777.777 1.953q0 1.155-.777 1.932t-1.953.777M898.403 236l3.99-5.838-3.549-5.25h2.709l2.268 3.906 2.268-3.906h2.583l-3.465 5.145 3.99 5.943h-2.751l-2.73-4.536-2.709 4.536zm12.613 1.386 8.904-18.438 1.848.861-8.883 18.417zm17.968-17.913q.672 0 1.092.441.441.42.441 1.05t-.441 1.05q-.42.42-1.092.42-.693 0-1.113-.42t-.42-1.05q0-.651.42-1.071.441-.42 1.113-.42m1.617 14.805h3.024V236h-8.673v-1.722h3.297v-7.644h-3.192v-1.722h5.544zm15.405-13.818V236h-2.079l-.168-1.365a3.7 3.7 0 0 1-1.344 1.218q-.798.42-1.764.42-2.079 0-3.129-1.554t-1.05-4.263q0-1.701.525-3.024.546-1.323 1.533-2.058.987-.756 2.331-.756 1.701 0 2.793 1.218v-5.649zm-4.536 5.964q-1.218 0-1.869 1.008-.63.987-.63 3.024 0 4.032 2.31 4.032 1.386 0 2.373-1.596v-5.229q-.861-1.239-2.184-1.239m10.219 4.788q.105 1.617.924 2.436.84.798 2.1.798.777 0 1.47-.231a6.7 6.7 0 0 0 1.449-.735l1.008 1.428a5.6 5.6 0 0 1-1.827 1.008q-1.05.357-2.205.357-2.541 0-3.948-1.575-1.407-1.596-1.407-4.242 0-1.659.609-2.982.609-1.344 1.764-2.1t2.688-.756q2.205 0 3.486 1.491 1.302 1.47 1.302 4.053 0 .63-.063 1.05zm2.646-4.851q-1.134 0-1.848.819t-.819 2.436h5.145q-.042-1.575-.672-2.415t-1.806-.84m7.993-1.449h2.037l.168 1.449a4.7 4.7 0 0 1 1.617-1.281 4.44 4.44 0 0 1 1.974-.462q1.533 0 2.31.861t.777 2.436V236h-2.352v-6.909q0-1.029-.126-1.575-.105-.567-.441-.819-.336-.273-1.008-.273-.756 0-1.449.462a4.5 4.5 0 0 0-1.155 1.155V236h-2.352zm21.853 10.5q-.63.399-1.47.63a6.6 6.6 0 0 1-1.764.231q-1.89 0-2.919-.966-1.029-.987-1.029-2.667v-6.006h-2.457v-1.722h2.457v-2.478l2.352-.273v2.751h3.759l-.273 1.722h-3.486v5.985q0 .903.462 1.344.462.42 1.47.42 1.113 0 2.058-.525zm7.762-15.939q.672 0 1.092.441.441.42.441 1.05t-.441 1.05q-.42.42-1.092.42-.693 0-1.113-.42t-.42-1.05q0-.651.42-1.071.441-.42 1.113-.42m1.617 14.805h3.024V236h-8.673v-1.722h3.297v-7.644h-3.192v-1.722h5.544zm15.8 1.134q-.63.399-1.47.63c-.56.154-1.14.231-1.76.231-1.26 0-2.23-.322-2.92-.966-.68-.658-1.03-1.547-1.03-2.667v-6.006h-2.455v-1.722h2.455v-2.478l2.35-.273v2.751h3.76l-.27 1.722h-3.49v5.985c0 .602.16 1.05.47 1.344q.45.42 1.47.42c.74 0 1.42-.175 2.05-.525zm9.22.63c-.45 1.344-1.1 2.394-1.96 3.15q-1.26 1.155-3.48 1.344l-.3-1.764q1.095-.168 1.77-.525c.44-.224.8-.511 1.07-.861.26-.35.5-.812.71-1.386h-.8l-3.73-11.088h2.49l2.8 9.45 2.83-9.45h2.42zm-136.826 20.506q-1.155 0-1.953-.777-.777-.798-.777-1.953t.777-1.932 1.953-.777 1.953.777.777 1.953q0 1.155-.777 1.932t-1.953.777m23.264-10.332q1.428 0 2.436.357a6.5 6.5 0 0 1 1.932 1.113l-1.26 1.512a4.64 4.64 0 0 0-3.003-1.071q-1.764 0-2.877 1.365-1.113 1.344-1.113 4.242 0 2.856 1.092 4.221 1.092 1.344 2.919 1.344 1.05 0 1.785-.315a7 7 0 0 0 1.491-.924l1.176 1.491q-1.764 1.722-4.536 1.722-1.869 0-3.339-.861-1.47-.882-2.31-2.583-.819-1.701-.819-4.095 0-2.352.84-4.053.861-1.701 2.331-2.583t3.255-.882m14.797 3.423q.861 0 1.68.273l-.399 4.095h-1.68v-2.268q-1.155.021-2.016.924-.84.903-1.344 2.541v4.116h2.226V261h-6.216v-1.68h1.638v-7.728h-1.638v-1.68h3.423l.42 2.562q.651-1.428 1.575-2.121.945-.714 2.331-.714m6.691 6.573q.105 1.617.924 2.436.84.798 2.1.798.777 0 1.47-.231a6.7 6.7 0 0 0 1.449-.735l1.008 1.428a5.6 5.6 0 0 1-1.827 1.008q-1.05.357-2.205.357-2.541 0-3.948-1.575-1.407-1.596-1.407-4.242 0-1.659.609-2.982.609-1.344 1.764-2.1t2.688-.756q2.205 0 3.486 1.491 1.302 1.47 1.302 4.053 0 .63-.063 1.05zm2.646-4.851q-1.134 0-1.848.819t-.819 2.436h5.145q-.042-1.575-.672-2.415t-1.806-.84m16.854-5.901V261h-2.079l-.168-1.365a3.7 3.7 0 0 1-1.344 1.218q-.798.42-1.764.42-2.079 0-3.129-1.554t-1.05-4.263q0-1.701.525-3.024.546-1.323 1.533-2.058.987-.756 2.331-.756 1.701 0 2.793 1.218v-5.649zm-4.536 5.964q-1.218 0-1.869 1.008-.63.987-.63 3.024 0 4.032 2.31 4.032 1.386 0 2.373-1.596v-5.229q-.861-1.239-2.184-1.239m10.219 4.788q.105 1.617.924 2.436.84.798 2.1.798.777 0 1.47-.231a6.7 6.7 0 0 0 1.449-.735l1.008 1.428a5.6 5.6 0 0 1-1.827 1.008q-1.05.357-2.205.357-2.541 0-3.948-1.575-1.407-1.596-1.407-4.242 0-1.659.609-2.982.609-1.344 1.764-2.1t2.688-.756q2.205 0 3.486 1.491 1.302 1.47 1.302 4.053 0 .63-.063 1.05zm2.646-4.851q-1.134 0-1.848.819t-.819 2.436h5.145q-.042-1.575-.672-2.415t-1.806-.84m7.993-1.449h2.037l.168 1.449a4.7 4.7 0 0 1 1.617-1.281 4.44 4.44 0 0 1 1.974-.462q1.533 0 2.31.861t.777 2.436V261h-2.352v-6.909q0-1.029-.126-1.575-.105-.567-.441-.819-.336-.273-1.008-.273-.756 0-1.449.462a4.5 4.5 0 0 0-1.155 1.155V261h-2.352zm21.853 10.5q-.63.399-1.47.63a6.6 6.6 0 0 1-1.764.231q-1.89 0-2.919-.966-1.029-.987-1.029-2.667v-6.006h-2.457v-1.722h2.457v-2.478l2.352-.273v2.751h3.759l-.273 1.722h-3.486v5.985q0 .903.462 1.344.462.42 1.47.42 1.113 0 2.058-.525zm7.762-15.939q.672 0 1.092.441.441.42.441 1.05t-.441 1.05q-.42.42-1.092.42-.693 0-1.113-.42t-.42-1.05q0-.651.42-1.071.441-.42 1.113-.42m1.617 14.805h3.024V261h-8.673v-1.722h3.297v-7.644h-3.192v-1.722h5.544zm15.03-.987c0 .42.06.735.19.945.12.196.34.343.65.441l-.55 1.596c-1.16-.14-1.92-.651-2.29-1.533q-.6.756-1.53 1.155c-.6.252-1.27.378-2 .378-1.12 0-2-.315-2.66-.945q-.99-.945-.99-2.499-.001-1.743 1.37-2.688 1.38-.945 3.9-.945h1.58v-.714q0-1.05-.63-1.533t-1.83-.483c-.39 0-.85.049-1.37.147-.51.098-1.04.238-1.57.42l-.59-1.659c1.33-.504 2.63-.756 3.89-.756 1.47 0 2.57.322 3.31.966.75.644 1.12 1.561 1.12 2.751zm-4.83 1.26c.49 0 .96-.126 1.4-.378.47-.252.83-.602 1.1-1.05v-2.457h-1.31c-1.06 0-1.84.182-2.33.546-.49.35-.73.861-.73 1.533 0 .588.15 1.036.46 1.344q.48.462 1.41.462m13.81-1.575q0 1.407 1.68 1.407c.56 0 1.15-.126 1.76-.378l.59 1.638c-.77.42-1.72.63-2.86.63-1.1 0-1.97-.308-2.6-.924-.62-.63-.92-1.491-.92-2.583v-10.584h-3.34v-1.722h5.69zm28.25-11.466h2.47L1043.7 261h-2.78l-4.6-14.49h2.61l3.42 12.18zm13.13 11.781c0 .42.07.735.19.945.13.196.35.343.65.441l-.54 1.596c-1.16-.14-1.93-.651-2.29-1.533q-.615.756-1.53 1.155c-.61.252-1.27.378-2 .378q-1.68 0-2.67-.945c-.65-.63-.98-1.463-.98-2.499 0-1.162.45-2.058 1.36-2.688.93-.63 2.23-.945 3.91-.945h1.57v-.714q0-1.05-.63-1.533c-.42-.322-1.03-.483-1.82-.483-.4 0-.85.049-1.37.147s-1.04.238-1.57.42l-.59-1.659c1.33-.504 2.62-.756 3.88-.756 1.47 0 2.58.322 3.32.966q1.11.966 1.11 2.751zm-4.83 1.26q.735 0 1.41-.378a2.8 2.8 0 0 0 1.09-1.05v-2.457h-1.3c-1.06 0-1.84.182-2.33.546-.49.35-.73.861-.73 1.533 0 .588.15 1.036.46 1.344.32.308.79.462 1.4.462m11.29-1.89c0 .644.13 1.113.38 1.407q.405.42 1.2.42c.5 0 .99-.147 1.45-.441.47-.294.85-.665 1.13-1.113v-8.022h2.35V261h-2.03l-.15-1.428q-.585.819-1.53 1.26c-.63.294-1.28.441-1.96.441-1.06 0-1.86-.287-2.39-.861s-.8-1.393-.8-2.457v-8.043h2.35zm15.12.315q0 1.407 1.68 1.407c.56 0 1.14-.126 1.76-.378l.59 1.638c-.77.42-1.72.63-2.86.63-1.1 0-1.97-.308-2.6-.924q-.93-.945-.93-2.583v-10.584h-3.33v-1.722h5.69zm16.98 2.436q-.63.399-1.47.63t-1.77.231c-1.26 0-2.23-.322-2.92-.966-.68-.658-1.03-1.547-1.03-2.667v-6.006h-2.45v-1.722h2.45v-2.478l2.36-.273v2.751h3.76l-.28 1.722h-3.48v5.985c0 .602.15 1.05.46 1.344q.465.42 1.47.42c.74 0 1.43-.175 2.06-.525zm-215.756 21.136q-1.155 0-1.953-.777-.777-.798-.777-1.953t.777-1.932 1.953-.777 1.953.777.777 1.953q0 1.155-.777 1.932t-1.953.777m27.065-.294q0 1.47-.609 2.604a4.3 4.3 0 0 1-1.722 1.785q-1.134.63-2.709.63-2.373 0-3.696-1.365-1.302-1.365-1.302-3.654v-9.744h2.436v9.282q0 1.806.609 2.688.63.861 1.953.861 1.344 0 1.953-.861.63-.882.63-2.688v-9.282h2.457zm7.174 3.234q1.113 0 1.743-.399.651-.399.651-1.092 0-.483-.189-.777-.189-.315-.756-.567-.567-.273-1.701-.567-1.827-.462-2.751-1.176-.903-.735-.903-2.1 0-1.449 1.197-2.31 1.197-.882 3.234-.882 2.457 0 4.221 1.281l-1.008 1.491q-1.491-.987-3.15-.987-2.1 0-2.1 1.218 0 .42.231.693.252.273.84.525.588.231 1.743.546 1.806.504 2.688 1.239.903.735.903 2.205 0 1.701-1.407 2.583-1.407.861-3.486.861-2.751 0-4.557-1.554l1.239-1.428q.693.546 1.533.882.861.315 1.785.315m10.513-3.276q.105 1.617.924 2.436.84.798 2.1.798.777 0 1.47-.231a6.7 6.7 0 0 0 1.449-.735l1.008 1.428a5.6 5.6 0 0 1-1.827 1.008q-1.05.357-2.205.357-2.541 0-3.948-1.575-1.407-1.596-1.407-4.242 0-1.659.609-2.982.609-1.344 1.764-2.1t2.688-.756q2.205 0 3.486 1.491 1.302 1.47 1.302 4.053 0 .63-.063 1.05zm2.646-4.851q-1.134 0-1.848.819t-.819 2.436h5.145q-.042-1.575-.672-2.415t-1.806-.84m15.846-1.722q.861 0 1.68.273l-.399 4.095h-1.68v-2.268q-1.155.021-2.016.924-.84.903-1.344 2.541v4.116h2.226V286h-6.216v-1.68h1.638v-7.728h-1.638v-1.68h3.423l.42 2.562q.651-1.428 1.575-2.121.945-.714 2.331-.714m26.129-1.281h-3.15v10.773h3.15V286h-8.736v-1.869h3.15v-10.773h-3.15v-1.848h8.736zm3.793 1.554h2.037l.168 1.449a4.7 4.7 0 0 1 1.617-1.281 4.44 4.44 0 0 1 1.974-.462q1.533 0 2.31.861t.777 2.436V286h-2.352v-6.909q0-1.029-.126-1.575-.105-.567-.441-.819-.336-.273-1.008-.273-.756 0-1.449.462a4.5 4.5 0 0 0-1.155 1.155V286h-2.352zm14.944 1.323a4 4 0 0 1 1.344-1.197 3.6 3.6 0 0 1 1.701-.42q2.121 0 3.129 1.533t1.008 4.284q0 2.604-1.176 4.221-1.155 1.617-3.255 1.617-1.848 0-2.898-1.365l-.126 1.092h-2.079v-15.54l2.352-.273zm2.184 8.253q1.218 0 1.848-.987.651-1.008.651-3.045 0-2.1-.588-3.066-.567-.966-1.701-.966-.714 0-1.344.441a4 4 0 0 0-1.05 1.155v5.187q.84 1.281 2.184 1.281m12.512-9.87q2.385 0 3.69 1.575c.87 1.036 1.3 2.45 1.3 4.242q0 2.688-1.32 4.263c-.88 1.05-2.11 1.575-3.7 1.575s-2.83-.511-3.71-1.533q-1.306-1.554-1.305-4.284 0-2.646 1.325-4.242 1.335-1.596 3.72-1.596m0 1.827c-.86 0-1.5.329-1.94.987q-.63.987-.63 3.024 0 2.058.63 3.045c.42.644 1.06.966 1.91.966q1.29 0 1.92-.987t.63-3.045q0-2.037-.63-3.003-.63-.987-1.89-.987m7.17 9.555 3.99-5.838-3.55-5.25h2.71l2.27 3.906 2.27-3.906h2.58l-3.47 5.145 3.99 5.943h-2.75l-2.73-4.536-2.71 4.536zm15.51-4.788c.07 1.078.38 1.89.92 2.436q.84.798 2.1.798a4.6 4.6 0 0 0 1.47-.231c.48-.168.96-.413 1.45-.735l1.01 1.428q-.78.651-1.83 1.008c-.7.238-1.43.357-2.2.357-1.7 0-3.01-.525-3.95-1.575q-1.41-1.596-1.41-4.242c0-1.106.21-2.1.61-2.982q.615-1.344 1.77-2.1c.77-.504 1.66-.756 2.68-.756 1.47 0 2.64.497 3.49 1.491.87.98 1.3 2.331 1.3 4.053q0 .63-.06 1.05zm2.65-4.851c-.76 0-1.38.273-1.85.819-.48.546-.75 1.358-.82 2.436h5.14c-.02-1.05-.25-1.855-.67-2.415q-.63-.84-1.8-.84m12.02 8.127q1.11 0 1.74-.399c.44-.266.65-.63.65-1.092q0-.483-.18-.777c-.13-.21-.38-.399-.76-.567-.38-.182-.95-.371-1.7-.567-1.22-.308-2.14-.7-2.75-1.176-.6-.49-.91-1.19-.91-2.1q0-1.449 1.2-2.31 1.2-.882 3.24-.882c1.63 0 3.04.427 4.22 1.281l-1.01 1.491q-1.5-.987-3.15-.987-2.1 0-2.1 1.218c0 .28.08.511.23.693q.255.273.84.525.585.231 1.74.546c1.21.336 2.1.749 2.69 1.239q.9.735.9 2.205c0 1.134-.47 1.995-1.4 2.583-.94.574-2.1.861-3.49.861q-2.745 0-4.56-1.554l1.24-1.428c.46.364.98.658 1.54.882.57.21 1.16.315 1.78.315"/><path fill="#2BC0F6" d="M1260.75 231.548q-1.155 0-1.95-.777-.78-.798-.78-1.953t.78-1.932 1.95-.777c.79 0 1.44.259 1.96.777s.77 1.169.77 1.953c0 .77-.25 1.414-.77 1.932s-1.17.777-1.96.777M1277.4 236l3.99-5.838-3.55-5.25h2.71l2.27 3.906 2.27-3.906h2.58l-3.46 5.145 3.99 5.943h-2.75l-2.73-4.536-2.71 4.536zm12.62 1.386 8.9-18.438 1.85.861-8.89 18.417zm23.49-11.928c-.41.14-.87.238-1.39.294q-.75.063-1.83.063c.68.308 1.18.693 1.52 1.155.33.462.5 1.022.5 1.68 0 .728-.18 1.372-.55 1.932-.35.56-.85 1.001-1.51 1.323s-1.43.483-2.33.483c-.63 0-1.13-.063-1.51-.189-.16.112-.27.252-.36.42q-.12.231-.12.504c0 .56.45.84 1.36.84h1.93q1.185 0 2.1.399c.62.266 1.09.637 1.43 1.113.35.462.53.987.53 1.575 0 1.106-.48 1.96-1.43 2.562-.95.616-2.33.924-4.12.924-1.24 0-2.23-.133-2.96-.399q-1.065-.378-1.53-1.134c-.3-.49-.44-1.127-.44-1.911h2.1c0 .42.07.749.23.987.17.252.45.434.86.546.4.126.99.189 1.76.189 1.12 0 1.93-.14 2.42-.42.49-.266.73-.665.73-1.197 0-.448-.19-.798-.59-1.05-.37-.238-.89-.357-1.55-.357h-1.91c-.99 0-1.75-.203-2.27-.609q-.75-.609-.75-1.533c0-.378.1-.742.31-1.092q.315-.525.9-.903c-.65-.35-1.14-.77-1.45-1.26-.29-.504-.44-1.12-.44-1.848 0-.77.2-1.449.59-2.037.39-.602.94-1.064 1.64-1.386.7-.336 1.5-.504 2.39-.504 1.21.014 2.16-.07 2.86-.252a12 12 0 0 0 2.27-.861zm-5.72.798q-1.11 0-1.68.63c-.37.406-.56.959-.56 1.659 0 .714.19 1.281.56 1.701.4.406.96.609 1.71.609q1.05 0 1.59-.609c.37-.406.55-.987.55-1.743 0-1.498-.72-2.247-2.17-2.247m12.81-1.638q2.385 0 3.69 1.575c.87 1.036 1.3 2.45 1.3 4.242q0 2.688-1.32 4.263t-3.69 1.575q-2.4 0-3.72-1.533c-.87-1.036-1.3-2.464-1.3-4.284q0-2.646 1.32-4.242c.9-1.064 2.13-1.596 3.72-1.596m0 1.827c-.86 0-1.5.329-1.94.987q-.63.987-.63 3.024 0 2.058.63 3.045.63.966 1.92.966c.85 0 1.49-.329 1.91-.987q.63-.987.63-3.045 0-2.037-.63-3.003-.63-.987-1.89-.987m13.93 9.555h-2.73l-3.92-11.088h2.54l2.79 9.135 2.83-9.135h2.42zm-73.78 20.548q-1.155 0-1.95-.777-.78-.798-.78-1.953t.78-1.932 1.95-.777c.79 0 1.44.259 1.96.777s.77 1.169.77 1.953c0 .77-.25 1.414-.77 1.932s-1.17.777-1.96.777M1277.4 261l3.99-5.838-3.55-5.25h2.71l2.27 3.906 2.27-3.906h2.58l-3.46 5.145 3.99 5.943h-2.75l-2.73-4.536-2.71 4.536zm12.62 1.386 8.9-18.438 1.85.861-8.89 18.417zm15.88-11.151q.57-.777 1.35-1.197c.53-.28 1.1-.42 1.7-.42 1.41 0 2.46.511 3.13 1.533s1.01 2.45 1.01 4.284c0 1.736-.4 3.143-1.18 4.221-.77 1.078-1.85 1.617-3.25 1.617-1.24 0-2.2-.455-2.9-1.365l-.13 1.092h-2.08v-15.54l2.35-.273zm2.19 8.253c.81 0 1.43-.329 1.85-.987.43-.672.65-1.687.65-3.045 0-1.4-.2-2.422-.59-3.066-.38-.644-.95-.966-1.7-.966q-.72 0-1.35.441-.6.441-1.05 1.155v5.187q.84 1.281 2.19 1.281m16.54-1.197c0 .42.06.735.19.945.12.196.34.343.65.441l-.55 1.596c-1.16-.14-1.92-.651-2.29-1.533q-.6.756-1.53 1.155c-.6.252-1.27.378-1.99.378q-1.68 0-2.67-.945t-.99-2.499c0-1.162.46-2.058 1.37-2.688q1.38-.945 3.9-.945h1.58v-.714q0-1.05-.63-1.533t-1.83-.483c-.39 0-.85.049-1.36.147-.52.098-1.05.238-1.58.42l-.59-1.659c1.33-.504 2.63-.756 3.89-.756 1.47 0 2.57.322 3.32.966q1.11.966 1.11 2.751zm-4.83 1.26q.735 0 1.41-.378c.46-.252.82-.602 1.09-1.05v-2.457h-1.3q-1.605 0-2.34.546c-.49.35-.73.861-.73 1.533 0 .588.15 1.036.46 1.344q.48.462 1.41.462m8.94-9.639h2.03l.17 1.449q.69-.84 1.62-1.281a4.44 4.44 0 0 1 1.97-.462q1.53 0 2.31.861t.78 2.436V261h-2.35v-6.909c0-.686-.04-1.211-.13-1.575-.07-.378-.22-.651-.44-.819-.22-.182-.56-.273-1.01-.273-.5 0-.98.154-1.45.462-.44.308-.83.693-1.15 1.155V261h-2.35zm15 11.088h-2.35v-15.54l2.35-.273zm2.88-6.132 4.93 6.132h-2.87l-4.77-6.069 4.45-5.019h2.73zm-85.87 26.68q-1.155 0-1.95-.777-.78-.798-.78-1.953t.78-1.932 1.95-.777c.79 0 1.44.259 1.96.777s.77 1.169.77 1.953c0 .77-.25 1.414-.77 1.932s-1.17.777-1.96.777M1277.4 286l3.99-5.838-3.55-5.25h2.71l2.27 3.906 2.27-3.906h2.58l-3.46 5.145 3.99 5.943h-2.75l-2.73-4.536-2.71 4.536zm12.62 1.386 8.9-18.438 1.85.861-8.89 18.417zm17.96-17.913c.45 0 .82.147 1.1.441.29.28.44.63.44 1.05s-.15.77-.44 1.05c-.28.28-.65.42-1.1.42q-.69 0-1.11-.42t-.42-1.05q0-.651.42-1.071c.29-.28.67-.42 1.11-.42m1.62 14.805h3.02V286h-8.67v-1.722h3.3v-7.644h-3.19v-1.722h5.54zm8.9-8.043a3.9 3.9 0 0 1 1.34-1.197c.53-.28 1.1-.42 1.7-.42 1.42 0 2.46.511 3.13 1.533s1.01 2.45 1.01 4.284c0 1.736-.39 3.143-1.18 4.221-.77 1.078-1.85 1.617-3.25 1.617-1.23 0-2.2-.455-2.9-1.365l-.13 1.092h-2.08v-15.54l2.36-.273zm2.18 8.253c.81 0 1.43-.329 1.85-.987.43-.672.65-1.687.65-3.045 0-1.4-.2-2.422-.59-3.066-.38-.644-.94-.966-1.7-.966-.48 0-.92.147-1.34.441q-.615.441-1.05 1.155v5.187c.56.854 1.28 1.281 2.18 1.281m13.41-.147q1.32 0 2.73-.945l1.07 1.512c-.49.42-1.08.756-1.76 1.008-.69.238-1.39.357-2.12.357-1.7 0-3.02-.518-3.97-1.554-.95-1.05-1.43-2.45-1.43-4.2 0-1.134.22-2.142.65-3.024.44-.896 1.06-1.596 1.87-2.1.83-.518 1.8-.777 2.92-.777q2.205 0 3.84 1.344l-1.09 1.47c-.9-.616-1.8-.924-2.71-.924-.92 0-1.65.336-2.18 1.008-.53.658-.8 1.659-.8 3.003 0 1.316.27 2.282.8 2.898s1.26.924 2.18.924"/><path fill="#000" fill-opacity=".2" d="M1260.75 231.548q-1.155 0-1.95-.777-.78-.798-.78-1.953t.78-1.932 1.95-.777c.79 0 1.44.259 1.96.777s.77 1.169.77 1.953c0 .77-.25 1.414-.77 1.932s-1.17.777-1.96.777M1277.4 236l3.99-5.838-3.55-5.25h2.71l2.27 3.906 2.27-3.906h2.58l-3.46 5.145 3.99 5.943h-2.75l-2.73-4.536-2.71 4.536zm12.62 1.386 8.9-18.438 1.85.861-8.89 18.417zm23.49-11.928c-.41.14-.87.238-1.39.294q-.75.063-1.83.063c.68.308 1.18.693 1.52 1.155.33.462.5 1.022.5 1.68 0 .728-.18 1.372-.55 1.932-.35.56-.85 1.001-1.51 1.323s-1.43.483-2.33.483c-.63 0-1.13-.063-1.51-.189-.16.112-.27.252-.36.42q-.12.231-.12.504c0 .56.45.84 1.36.84h1.93q1.185 0 2.1.399c.62.266 1.09.637 1.43 1.113.35.462.53.987.53 1.575 0 1.106-.48 1.96-1.43 2.562-.95.616-2.33.924-4.12.924-1.24 0-2.23-.133-2.96-.399q-1.065-.378-1.53-1.134c-.3-.49-.44-1.127-.44-1.911h2.1c0 .42.07.749.23.987.17.252.45.434.86.546.4.126.99.189 1.76.189 1.12 0 1.93-.14 2.42-.42.49-.266.73-.665.73-1.197 0-.448-.19-.798-.59-1.05-.37-.238-.89-.357-1.55-.357h-1.91c-.99 0-1.75-.203-2.27-.609q-.75-.609-.75-1.533c0-.378.1-.742.31-1.092q.315-.525.9-.903c-.65-.35-1.14-.77-1.45-1.26-.29-.504-.44-1.12-.44-1.848 0-.77.2-1.449.59-2.037.39-.602.94-1.064 1.64-1.386.7-.336 1.5-.504 2.39-.504 1.21.014 2.16-.07 2.86-.252a12 12 0 0 0 2.27-.861zm-5.72.798q-1.11 0-1.68.63c-.37.406-.56.959-.56 1.659 0 .714.19 1.281.56 1.701.4.406.96.609 1.71.609q1.05 0 1.59-.609c.37-.406.55-.987.55-1.743 0-1.498-.72-2.247-2.17-2.247m12.81-1.638q2.385 0 3.69 1.575c.87 1.036 1.3 2.45 1.3 4.242q0 2.688-1.32 4.263t-3.69 1.575q-2.4 0-3.72-1.533c-.87-1.036-1.3-2.464-1.3-4.284q0-2.646 1.32-4.242c.9-1.064 2.13-1.596 3.72-1.596m0 1.827c-.86 0-1.5.329-1.94.987q-.63.987-.63 3.024 0 2.058.63 3.045.63.966 1.92.966c.85 0 1.49-.329 1.91-.987q.63-.987.63-3.045 0-2.037-.63-3.003-.63-.987-1.89-.987m13.93 9.555h-2.73l-3.92-11.088h2.54l2.79 9.135 2.83-9.135h2.42zm-73.78 20.548q-1.155 0-1.95-.777-.78-.798-.78-1.953t.78-1.932 1.95-.777c.79 0 1.44.259 1.96.777s.77 1.169.77 1.953c0 .77-.25 1.414-.77 1.932s-1.17.777-1.96.777M1277.4 261l3.99-5.838-3.55-5.25h2.71l2.27 3.906 2.27-3.906h2.58l-3.46 5.145 3.99 5.943h-2.75l-2.73-4.536-2.71 4.536zm12.62 1.386 8.9-18.438 1.85.861-8.89 18.417zm15.88-11.151q.57-.777 1.35-1.197c.53-.28 1.1-.42 1.7-.42 1.41 0 2.46.511 3.13 1.533s1.01 2.45 1.01 4.284c0 1.736-.4 3.143-1.18 4.221-.77 1.078-1.85 1.617-3.25 1.617-1.24 0-2.2-.455-2.9-1.365l-.13 1.092h-2.08v-15.54l2.35-.273zm2.19 8.253c.81 0 1.43-.329 1.85-.987.43-.672.65-1.687.65-3.045 0-1.4-.2-2.422-.59-3.066-.38-.644-.95-.966-1.7-.966q-.72 0-1.35.441-.6.441-1.05 1.155v5.187q.84 1.281 2.19 1.281m16.54-1.197c0 .42.06.735.19.945.12.196.34.343.65.441l-.55 1.596c-1.16-.14-1.92-.651-2.29-1.533q-.6.756-1.53 1.155c-.6.252-1.27.378-1.99.378q-1.68 0-2.67-.945t-.99-2.499c0-1.162.46-2.058 1.37-2.688q1.38-.945 3.9-.945h1.58v-.714q0-1.05-.63-1.533t-1.83-.483c-.39 0-.85.049-1.36.147-.52.098-1.05.238-1.58.42l-.59-1.659c1.33-.504 2.63-.756 3.89-.756 1.47 0 2.57.322 3.32.966q1.11.966 1.11 2.751zm-4.83 1.26q.735 0 1.41-.378c.46-.252.82-.602 1.09-1.05v-2.457h-1.3q-1.605 0-2.34.546c-.49.35-.73.861-.73 1.533 0 .588.15 1.036.46 1.344q.48.462 1.41.462m8.94-9.639h2.03l.17 1.449q.69-.84 1.62-1.281a4.44 4.44 0 0 1 1.97-.462q1.53 0 2.31.861t.78 2.436V261h-2.35v-6.909c0-.686-.04-1.211-.13-1.575-.07-.378-.22-.651-.44-.819-.22-.182-.56-.273-1.01-.273-.5 0-.98.154-1.45.462-.44.308-.83.693-1.15 1.155V261h-2.35zm15 11.088h-2.35v-15.54l2.35-.273zm2.88-6.132 4.93 6.132h-2.87l-4.77-6.069 4.45-5.019h2.73zm-85.87 26.68q-1.155 0-1.95-.777-.78-.798-.78-1.953t.78-1.932 1.95-.777c.79 0 1.44.259 1.96.777s.77 1.169.77 1.953c0 .77-.25 1.414-.77 1.932s-1.17.777-1.96.777M1277.4 286l3.99-5.838-3.55-5.25h2.71l2.27 3.906 2.27-3.906h2.58l-3.46 5.145 3.99 5.943h-2.75l-2.73-4.536-2.71 4.536zm12.62 1.386 8.9-18.438 1.85.861-8.89 18.417zm17.96-17.913c.45 0 .82.147 1.1.441.29.28.44.63.44 1.05s-.15.77-.44 1.05c-.28.28-.65.42-1.1.42q-.69 0-1.11-.42t-.42-1.05q0-.651.42-1.071c.29-.28.67-.42 1.11-.42m1.62 14.805h3.02V286h-8.67v-1.722h3.3v-7.644h-3.19v-1.722h5.54zm8.9-8.043a3.9 3.9 0 0 1 1.34-1.197c.53-.28 1.1-.42 1.7-.42 1.42 0 2.46.511 3.13 1.533s1.01 2.45 1.01 4.284c0 1.736-.39 3.143-1.18 4.221-.77 1.078-1.85 1.617-3.25 1.617-1.23 0-2.2-.455-2.9-1.365l-.13 1.092h-2.08v-15.54l2.36-.273zm2.18 8.253c.81 0 1.43-.329 1.85-.987.43-.672.65-1.687.65-3.045 0-1.4-.2-2.422-.59-3.066-.38-.644-.94-.966-1.7-.966-.48 0-.92.147-1.34.441q-.615.441-1.05 1.155v5.187c.56.854 1.28 1.281 2.18 1.281m13.41-.147q1.32 0 2.73-.945l1.07 1.512c-.49.42-1.08.756-1.76 1.008-.69.238-1.39.357-2.12.357-1.7 0-3.02-.518-3.97-1.554-.95-1.05-1.43-2.45-1.43-4.2 0-1.134.22-2.142.65-3.024.44-.896 1.06-1.596 1.87-2.1.83-.518 1.8-.777 2.92-.777q2.205 0 3.84 1.344l-1.09 1.47c-.9-.616-1.8-.924-2.71-.924-.92 0-1.65.336-2.18 1.008-.53.658-.8 1.659-.8 3.003 0 1.316.27 2.282.8 2.898s1.26.924 2.18.924"/><defs><clipPath id="a"><rect width="1500" height="180" y="24" fill="#fff" rx="16"/></clipPath><clipPath id="b"><rect width="345" height="180" y="336" fill="#fff" rx="16"/></clipPath><clipPath id="c"><rect width="345" height="180" x="385" y="336" fill="#fff" rx="16"/></clipPath><clipPath id="d"><rect width="345" height="180" x="770" y="336" fill="#fff" rx="16"/></clipPath><clipPath id="e"><rect width="345" height="180" x="1155" y="336" fill="#fff" rx="16"/></clipPath><clipPath id="f"><rect width="1500" height="180" y="648" fill="#fff" rx="16"/></clipPath></defs></svg>