<svg width="1920" height="1080" viewBox="0 0 1920 1080" fill="none" xmlns="http://www.w3.org/2000/svg">
    <g clip-path="url(#clip0_42_44)">
        <rect width="1920" height="1080" fill="url(#paint0_radial_42_44)" />
        <g filter="url(#filter0_f_42_44)">
            <path
                d="M1269.26 888.245C1269.26 1302.86 937.365 1638.97 527.949 1638.97C118.533 1638.97 -213.364 1302.86 -213.364 888.245C-213.364 473.63 118.533 137.518 527.949 137.518C937.365 137.518 1269.26 473.63 1269.26 888.245Z"
                fill="#F68489" />
            <path
                d="M2538.96 1183.61C2538.96 1657.13 2177.05 2041 1730.61 2041C1284.17 2041 922.265 1657.13 922.265 1183.61C922.265 710.091 1284.17 326.225 1730.61 326.225C2177.05 326.225 2538.96 710.091 2538.96 1183.61Z"
                fill="#2BC0F6" />
            <path
                d="M1632.03 -42.9845C1632.03 423.74 1197.74 802.096 662.016 802.096C126.291 802.096 -308 423.74 -308 -42.9845C-308 -509.709 126.291 -888.065 662.016 -888.065C1197.74 -888.065 1632.03 -509.709 1632.03 -42.9845Z"
                fill="#805AEB" />
            <path
                d="M3091 -161.952C3091 370.477 2688.49 802.096 2191.96 802.096C1695.43 802.096 1292.92 370.477 1292.92 -161.952C1292.92 -694.381 1695.43 -1126 2191.96 -1126C2688.49 -1126 3091 -694.381 3091 -161.952Z"
                fill="#109CEF" />
        </g>
    </g>
    <defs>
        <filter id="filter0_f_42_44" x="-753" y="-1571" width="4289" height="4057" filterUnits="userSpaceOnUse"
            color-interpolation-filters="sRGB">
            <feFlood flood-opacity="0" result="BackgroundImageFix" />
            <feBlend mode="normal" in="SourceGraphic" in2="BackgroundImageFix" result="shape" />
            <feGaussianBlur stdDeviation="222.5" result="effect1_foregroundBlur_42_44" />
        </filter>
        <radialGradient id="paint0_radial_42_44" cx="0" cy="0" r="1" gradientUnits="userSpaceOnUse"
            gradientTransform="translate(359.599 577.241) rotate(7.41787) scale(906.584 560.025)">
            <stop stop-color="#E9CA9C" />
            <stop offset="1" stop-color="#0029FF" stop-opacity="0.33" />
        </radialGradient>
        <clipPath id="clip0_42_44">
            <rect width="1920" height="1080" fill="white" />
        </clipPath>
    </defs>
</svg>
